<svg xmlns="http://www.w3.org/2000/svg" width="43.742" height="49.599" viewBox="0 0 43.742 49.599">
  <path id="contactless_FILL0_wght600_GRAD0_opsz48" d="M96.751-833.78a42.027,42.027,0,0,0,1.972-5.557,21.642,21.642,0,0,0,.777-5.8,24.054,24.054,0,0,0-.717-5.856,23.179,23.179,0,0,0-2.151-5.5l-6.693,2.39a13.678,13.678,0,0,1,1.852,4.3,20.155,20.155,0,0,1,.538,4.661,16.679,16.679,0,0,1-.657,4.661,26.1,26.1,0,0,1-1.733,4.422ZM113-826.967a39.047,39.047,0,0,0,2.749-8.9,51.676,51.676,0,0,0,.837-9.262,50.692,50.692,0,0,0-.837-9.2A39.193,39.193,0,0,0,113-863.18l-6.812,2.39a29.686,29.686,0,0,1,2.51,7.649,44.672,44.672,0,0,1,.717,8.008,42.257,42.257,0,0,1-.777,8.067,34.744,34.744,0,0,1-2.45,7.709Zm15.656,6.693a56.857,56.857,0,0,0,3.824-12.191,66.93,66.93,0,0,0,1.2-12.669,66.931,66.931,0,0,0-1.2-12.669,54.518,54.518,0,0,0-3.824-12.071l-6.693,2.629a48.188,48.188,0,0,1,3.466,10.816,59.3,59.3,0,0,1,1.076,11.294,60.235,60.235,0,0,1-1.076,11.354,48.021,48.021,0,0,1-3.466,10.876ZM115.364-845.134Z" transform="translate(-89.938 869.873)" />
</svg>
