<svg width="23" height="18" viewBox="0 0 23 18" fill="none" xmlns="http://www.w3.org/2000/svg">
<path d="M17.4 8.74V5.39H14.05V3.84H17.4V0.5H18.95V3.85H22.3V5.4H18.95V8.75H17.4V8.74Z" fill="#141414"/>
<path d="M15.16 11.1801H11.76V12.1801H15.16V11.1801Z" fill="#141414"/>
<path d="M15.16 8.92004H11.76V9.92004H15.16V8.92004Z" fill="#141414"/>
<path d="M7.47997 11.1799C7.62317 11.1806 7.76506 11.1527 7.8973 11.0977C8.02953 11.0428 8.14944 10.9619 8.24997 10.8599C8.35274 10.76 8.4341 10.6402 8.48911 10.5078C8.54412 10.3755 8.57163 10.2333 8.56997 10.0899C8.57066 9.94675 8.54271 9.80486 8.48775 9.67263C8.4328 9.54039 8.35195 9.42048 8.24997 9.31995C8.15003 9.21718 8.03023 9.13582 7.89786 9.08081C7.76549 9.0258 7.62331 8.99829 7.47997 8.99995C7.33813 8.99836 7.19747 9.02594 7.06673 9.08099C6.93599 9.13604 6.81796 9.21737 6.71997 9.31995C6.61721 9.41989 6.53585 9.53969 6.48084 9.67206C6.42582 9.80443 6.39831 9.94661 6.39997 10.0899C6.39929 10.2331 6.42724 10.375 6.4822 10.5073C6.53715 10.6395 6.61799 10.7594 6.71997 10.8599C6.81854 10.9618 6.93667 11.0426 7.06728 11.0976C7.19788 11.1526 7.33826 11.1806 7.47997 11.1799Z" fill="#141414"/>
<path d="M9.82009 13.24C9.82211 13.0139 9.75967 12.7919 9.64009 12.6C9.53442 12.4247 9.37217 12.2907 9.18009 12.22C8.85428 12.099 8.52005 12.0021 8.18009 11.93C7.94996 11.8815 7.71526 11.858 7.48009 11.86C7.20761 11.8603 6.93598 11.8904 6.67009 11.95C6.34153 12.02 6.01759 12.1102 5.70009 12.22C5.50084 12.2871 5.33115 12.4215 5.22009 12.6C5.1005 12.7919 5.03807 13.0139 5.04009 13.24V13.52H9.82009V13.24Z" fill="#141414"/>
<path d="M18 10.11V15.66C17.9924 15.9758 17.8635 16.2767 17.6401 16.5001C17.4167 16.7235 17.1159 16.8524 16.8 16.86H3.2C3.04288 16.8602 2.88737 16.8283 2.74295 16.7664C2.59853 16.7045 2.46823 16.6139 2.36 16.5C2.2461 16.3918 2.15544 16.2615 2.09355 16.117C2.03166 15.9726 1.99983 15.8171 2 15.66V6.05999C1.99983 5.90286 2.03166 5.74735 2.09355 5.60293C2.15544 5.45852 2.2461 5.32822 2.36 5.21999C2.61121 5.04161 2.89758 4.91888 3.2 4.85999H12.47V6.05999H3.2V15.66H16.8V10.11H18Z" fill="#141414"/>
</svg>
