<svg xmlns="http://www.w3.org/2000/svg" width="60" height="60" viewBox="0 0 60 60">
  <path id="center_focus_weak_FILL0_wght400_GRAD0_opsz48" d="M150-798.083a11.617,11.617,0,0,1-8.583-3.333A11.617,11.617,0,0,1,138.083-810a11.618,11.618,0,0,1,3.333-8.583A11.618,11.618,0,0,1,150-821.917a11.618,11.618,0,0,1,8.583,3.333A11.618,11.618,0,0,1,161.917-810a11.618,11.618,0,0,1-3.333,8.583A11.617,11.617,0,0,1,150-798.083Zm0-5a6.683,6.683,0,0,0,4.917-2,6.683,6.683,0,0,0,2-4.917,6.683,6.683,0,0,0-2-4.917,6.683,6.683,0,0,0-4.917-2,6.683,6.683,0,0,0-4.917,2,6.683,6.683,0,0,0-2,4.917,6.683,6.683,0,0,0,2,4.917A6.683,6.683,0,0,0,150-803.083ZM150-810Zm-25,30a4.8,4.8,0,0,1-3.5-1.5A4.8,4.8,0,0,1,120-785v-14.333h5V-785h14.333v5Zm35.667,0v-5H175v-14.333h5V-785a4.8,4.8,0,0,1-1.5,3.5A4.8,4.8,0,0,1,175-780ZM120-820.667V-835a4.8,4.8,0,0,1,1.5-3.5A4.8,4.8,0,0,1,125-840h14.333v5H125v14.333Zm55,0V-835H160.667v-5H175a4.8,4.8,0,0,1,3.5,1.5A4.8,4.8,0,0,1,180-835v14.333Z" transform="translate(-120 840)"/>
</svg>
