<svg width="16" height="12" viewBox="0 0 16 12" xmlns="http://www.w3.org/2000/svg">
<path d="M1.2 12C1.04283 12.0005 0.887211 11.9688 0.742743 11.9069C0.598276 11.845 0.468022 11.7542 0.360007 11.64C0.245827 11.532 0.154977 11.4017 0.0930622 11.2573C0.0311474 11.1128 -0.000520623 10.9572 6.47324e-06 10.8V1.20001C-0.000461585 1.04285 0.031235 0.887257 0.0931461 0.742798C0.155057 0.598338 0.245874 0.468037 0.360007 0.359985C0.609988 0.179429 0.896855 0.0564996 1.2 0H14.8C15.1032 0.0564996 15.39 0.179429 15.64 0.359985C15.7541 0.468037 15.845 0.598338 15.9069 0.742798C15.9688 0.887257 16.0005 1.04285 16 1.20001V10.8C16.0005 10.9572 15.9689 11.1128 15.907 11.2573C15.845 11.4017 15.7542 11.532 15.64 11.64C15.532 11.7542 15.4017 11.845 15.2573 11.9069C15.1128 11.9688 14.9572 12.0005 14.8 12H1.2ZM1.2 10.8H14.8V1.20001H1.2V10.8ZM3.04001 8.65997H7.82001V8.38C7.82391 8.15366 7.76133 7.93112 7.64001 7.73999C7.53434 7.5647 7.37209 7.43066 7.18001 7.35999C6.85332 7.24171 6.51928 7.14486 6.18001 7.07001C5.94946 7.02424 5.71505 7.00079 5.48001 7C5.20763 7.00208 4.93619 7.03226 4.67 7.09003C4.34181 7.16156 4.01796 7.25167 3.7 7.35999C3.50051 7.42667 3.33069 7.56112 3.22001 7.73999C3.09869 7.93112 3.0361 8.15366 3.04001 8.38V8.65997ZM9.76001 7.32001H13.16V6.32001H9.76001V7.32001ZM5.48001 6.32001C5.62227 6.32251 5.76354 6.29587 5.89511 6.2417C6.02668 6.18752 6.14576 6.10696 6.24501 6.005C6.34701 5.90579 6.42759 5.78673 6.48176 5.65515C6.53594 5.52357 6.56257 5.38226 6.56 5.23999C6.56251 5.09773 6.53586 4.95646 6.48168 4.82489C6.42751 4.69332 6.34696 4.57423 6.24501 4.47498C6.14576 4.37302 6.02668 4.29252 5.89511 4.23834C5.76354 4.18417 5.62227 4.15747 5.48001 4.15997C5.33775 4.15747 5.19647 4.18417 5.0649 4.23834C4.93333 4.29252 4.81425 4.37302 4.715 4.47498C4.61305 4.57423 4.53251 4.69332 4.47833 4.82489C4.42416 4.95646 4.3975 5.09773 4.40001 5.23999C4.39744 5.38226 4.42407 5.52357 4.47825 5.65515C4.53243 5.78673 4.613 5.90579 4.715 6.005C4.81425 6.10696 4.93333 6.18752 5.0649 6.2417C5.19647 6.29587 5.33775 6.32251 5.48001 6.32001ZM9.76001 5.06H13.16V4.06H9.76001V5.06Z" />
</svg>
