<svg width="60" height="50" viewBox="0 0 60 50" xmlns="http://www.w3.org/2000/svg">
<path fill-rule="evenodd" clip-rule="evenodd" d="M2.54376 49.2446C3.03849 49.4577 3.57136 49.5668 4.1096 49.5652H15.8901V45.4348H4.1096V33.5945H1.74967e-05V45.4348C-0.00158544 45.9757 0.106966 46.5113 0.318991 47.0085C0.531015 47.5058 0.842027 47.9542 1.23289 48.3261C1.60293 48.7189 2.04904 49.0315 2.54376 49.2446ZM44.1099 45.4348V49.5652H55.8904C56.4286 49.5668 56.9615 49.4577 57.4562 49.2446C57.951 49.0315 58.3971 48.7189 58.7671 48.3261C59.158 47.9542 59.469 47.5058 59.681 47.0085C59.893 46.5113 60.0016 45.9757 60 45.4348V33.5945H55.8904V45.4348H44.1099ZM1.74967e-05 4.13045V15.9708H4.1096V4.13045H15.8901V1.75881e-05H4.1096C3.57136 -0.00159347 3.03849 0.10749 2.54376 0.32059C2.04904 0.53369 1.60293 0.846299 1.23289 1.23915C0.842027 1.61106 0.531015 2.05945 0.318991 2.55668C0.106966 3.05391 -0.00158544 3.58948 1.74967e-05 4.13045ZM55.8904 4.13045V15.9708H60V4.13045C60.0016 3.58948 59.893 3.05391 59.681 2.55668C59.469 2.05945 59.158 1.61106 58.7671 1.23915C58.3971 0.846299 57.951 0.53369 57.4562 0.32059C56.9615 0.10749 56.4286 -0.00159347 55.8904 1.75881e-05H44.1099V4.13045H55.8904ZM12.2513 38.9079C12.6046 39.0559 12.9852 39.1317 13.3696 39.1304H46.6305C47.0149 39.1317 47.3954 39.0559 47.7488 38.9079C48.1021 38.7598 48.4206 38.5426 48.6848 38.2696C48.964 38.0113 49.1862 37.6998 49.3377 37.3543C49.4891 37.0089 49.5665 36.6367 49.5652 36.2608V13.3044C49.5664 12.9285 49.4889 12.5565 49.3374 12.211C49.186 11.8656 48.9639 11.554 48.6848 11.2956C48.0734 10.8639 47.3719 10.5699 46.6305 10.4348H13.3696C12.6282 10.5699 11.9266 10.8639 11.3152 11.2956C11.0361 11.554 10.814 11.8656 10.6626 12.211C10.5112 12.5565 10.4337 12.9285 10.4348 13.3044V36.2608C10.4335 36.6367 10.511 37.0089 10.6624 37.3543C10.8138 37.6998 11.036 38.0113 11.3152 38.2696C11.5794 38.5426 11.898 38.7598 12.2513 38.9079ZM46.6305 36.2608H13.3696V13.3044H46.6305V36.2608ZM29.5598 31.1434H17.8696V30.4739C17.86 29.9327 18.0131 29.4005 18.3098 28.9435C18.5805 28.5157 18.9958 28.1942 19.4837 28.0347C20.2613 27.7757 21.0534 27.5603 21.856 27.3892C22.507 27.2511 23.1708 27.1789 23.837 27.1739C24.4118 27.1758 24.9851 27.2319 25.5489 27.3413C26.3787 27.5203 27.1956 27.7519 27.9946 28.0347C28.4643 28.2038 28.8612 28.5243 29.1196 28.9435C29.4163 29.4005 29.5693 29.9327 29.5598 30.4739V31.1434ZM42.6196 27.9391H34.3044V25.5478H42.6196V27.9391ZM24.8522 25.3606C24.5304 25.4901 24.1849 25.5538 23.837 25.5478C23.4891 25.5538 23.1435 25.4901 22.8218 25.3606C22.5 25.231 22.2088 25.0384 21.966 24.7946C21.7166 24.5573 21.5195 24.2726 21.387 23.958C21.2545 23.6433 21.1894 23.3054 21.1957 22.9652C21.1895 22.625 21.2547 22.2872 21.3872 21.9726C21.5197 21.6579 21.7167 21.3731 21.966 21.1358C22.2088 20.892 22.5 20.6995 22.8218 20.5699C23.1435 20.4404 23.4891 20.3765 23.837 20.3825C24.1849 20.3765 24.5304 20.4404 24.8522 20.5699C25.1739 20.6995 25.4652 20.892 25.7079 21.1358C25.9572 21.3731 26.1542 21.6579 26.2867 21.9726C26.4192 22.2872 26.4844 22.625 26.4783 22.9652C26.4846 23.3054 26.4194 23.6433 26.2869 23.958C26.1544 24.2726 25.9574 24.5573 25.7079 24.7946C25.4652 25.0384 25.1739 25.231 24.8522 25.3606ZM42.6196 22.5348H34.3044V20.1435H42.6196V22.5348Z" />
</svg>
