<svg width="17" height="17" viewBox="0 0 17 17" fill="none" xmlns="http://www.w3.org/2000/svg">
<g clip-path="url(#clip0_101_34)">
<path d="M9.11142 14V12.7781H10.3333V14H9.11142ZM7.8895 12.7781V9.72282H9.11142V12.7781H7.8895ZM12.7781 10.9447V8.5H14V10.9447H12.7781ZM11.5552 8.5V7.27808H12.7772V8.5H11.5552ZM4.22192 9.72192V8.5H5.44383V9.72192H4.22192ZM3 8.5V7.27808H4.22192V8.5H3ZM8.5 4.22192V3H9.72192V4.22192H8.5ZM3.76358 5.90218H5.90217V3.76359H3.76358V5.90218ZM3 6.66667V3H6.66667V6.66667H3ZM3.76358 13.2364H5.90217V11.0978H3.76358V13.2364ZM3 14V10.3333H6.66667V14H3ZM11.0969 5.90308H13.2355V3.76449H11.0969V5.90308ZM10.3333 6.66667V3H14V6.66667H10.3333ZM11.5552 14V12.1667H10.3333V10.9447H12.7781V12.7781H14V14H11.5552ZM9.1105 9.72192V8.5H11.5552V9.72192H9.1105ZM6.66575 9.72192V8.5H5.44383V7.27808H9.1105V8.5H7.88858V9.72192H6.66575ZM7.27717 6.66667V4.22192H8.5V5.44385H9.72192V6.66667H7.27717ZM4.37408 5.29167V4.375H5.29075V5.29167H4.37408ZM4.37408 12.625V11.7083H5.29075V12.625H4.37408ZM11.7074 5.29167V4.375H12.6241V5.29167H11.7074Z" fill="#3A3A3D"/>
</g>
<defs>
<clipPath id="clip0_101_34">
<rect width="11" height="11" fill="white" transform="translate(3 3)"/>
</clipPath>
</defs>
</svg>
