<svg viewBox="0 0 47 32" fill="none" xmlns="http://www.w3.org/2000/svg">
<path d="M0 4C0 1.791 1.80343 0 4.02854 0H42.9715C45.1966 0 47 1.791 47 4V28C47 30.209 45.1966 32 42.9715 32H4.02854C1.80343 32 0 30.209 0 28V4Z" fill="white"/>
<path d="M43.2654 13.8858L43.2744 13.8759H41.8455L40.9432 16.9838H40.8954L39.8594 13.8759H38.1614L40.2044 19.0049L39.3509 20.5683V20.606H40.684L43.2654 13.8858Z" fill="black"/>
<path d="M27.425 13.8759H25.9094V18.9861H27.425V13.8759Z" fill="black"/>
<path d="M37.8632 17.7081V15.573C37.8632 14.4099 37.1723 13.7709 35.9539 13.7709C35.1762 13.7709 34.6397 13.9046 33.6606 14.1999L33.9289 15.3729C34.8212 14.9726 35.2141 14.8012 35.6269 14.8012C36.1255 14.8012 36.3467 15.1539 36.3467 15.6977V15.7354C34.6099 16.0594 34.0725 16.2407 33.7374 16.5746C33.4881 16.8223 33.3824 17.175 33.3824 17.5851C33.3824 18.567 34.1502 19.0911 34.8691 19.0911C35.4065 19.0911 35.8382 18.891 36.4235 18.4521L36.5292 18.9861H38.0448L37.8632 17.7081ZM36.3477 17.7467C35.9448 17.9657 35.7145 18.0518 35.4463 18.0518C35.0814 18.0518 34.8511 17.8131 34.8511 17.4326C34.8511 17.2899 34.88 17.1463 34.9947 17.0323C35.1771 16.851 35.5321 16.7173 36.3477 16.527V17.7467Z" fill="black"/>
<path d="M31.1958 13.7709C30.6395 13.7709 30.2077 13.9809 29.7182 14.3812V13.8759H28.2026V20.606H29.7182V18.9376C30.0063 19.0139 30.2746 19.0525 30.6006 19.0525C31.9536 19.0525 33.172 18.0608 33.172 16.2973C33.172 14.715 32.2896 13.7709 31.1958 13.7709ZM30.2357 18.1084C30.0632 18.1084 29.8998 18.0895 29.7173 18.0321V15.2679C30.0343 15.0489 30.2926 14.9439 30.6187 14.9439C31.185 14.9439 31.6357 15.3917 31.6357 16.3457C31.6366 17.5654 30.9746 18.1084 30.2357 18.1084Z" fill="black"/>
<path d="M13.0622 11.2436H6.56369C5.71739 11.2436 5.03186 11.9311 5.03186 12.7783V19.2903C5.03186 20.1376 5.71739 20.825 6.56369 20.825H13.0622C13.9085 20.825 14.5931 20.1376 14.5931 19.2903V12.7783C14.594 11.9302 13.9085 11.2436 13.0622 11.2436Z" fill="#1677FF"/>
<path d="M12.9041 17.2602C12.5221 17.1319 12.0082 16.9353 11.4364 16.728C11.7797 16.1294 12.0542 15.4482 12.2349 14.7078H10.3499V14.0275H12.6585V13.6479H10.3499V12.5135H9.40786C9.24257 12.5135 9.24257 12.6768 9.24257 12.6768V13.647H6.9078V14.0266H9.24257V14.7069H7.31424V15.0865H11.0535C10.9171 15.5586 10.7329 16.0029 10.5152 16.4058C9.30218 16.0047 8.00699 15.6798 7.19411 15.8799C6.67387 16.0083 6.33878 16.2371 6.14189 16.4776C5.23869 17.5788 5.88628 19.2517 7.79384 19.2517C8.92194 19.2517 10.0085 18.6217 10.8503 17.5833C12.1066 18.1882 14.5931 19.2275 14.5931 19.2275V17.7467C14.594 17.7467 14.2815 17.7215 12.9041 17.2602ZM7.61591 18.6118C6.12834 18.6118 5.68848 17.4379 6.42368 16.7953C6.66936 16.5781 7.11734 16.4722 7.35579 16.4489C8.23912 16.3619 9.05742 16.6993 10.0229 17.1714C9.34463 18.0581 8.48027 18.6118 7.61591 18.6118Z" fill="white"/>
<path d="M20.6996 12.2649H18.6656L16.3922 18.9861H17.7931L18.1769 17.6704H20.5849L20.9498 18.9861H22.7435L20.6996 12.2649ZM18.4931 16.5737L19.3944 13.4756H19.4324L20.2859 16.5737H18.4931Z" fill="black"/>
<path d="M24.8725 12.0262H23.3569V18.9852H24.8725V12.0262Z" fill="black"/>
<path d="M25.7938 12.6463C25.7938 13.1417 26.1587 13.4756 26.6672 13.4756C27.1757 13.4756 27.5406 13.1417 27.5406 12.6463C27.5406 12.1599 27.1757 11.817 26.6672 11.817C26.1587 11.817 25.7938 12.1599 25.7938 12.6463Z" fill="#1677FF"/>
</svg>
