<svg viewBox="0 0 47 32" fill="none" xmlns="http://www.w3.org/2000/svg">
<path d="M0 4C0 1.791 1.80343 0 4.02854 0H42.9715C45.1966 0 47 1.791 47 4V28C47 30.209 45.1966 32 42.9715 32H4.02854C1.80343 32 0 30.209 0 28V4Z" fill="#1F72CD"/>
<path d="M8.42645 11.334L4.02856 20.996H9.29294L9.94508 19.455H11.4365L12.0897 20.996H17.8844V19.82L18.4007 20.996H21.3987L21.915 19.795V20.996H33.9664L35.4317 19.495L36.8034 20.996L42.9936 21.008L38.5827 16.191L42.9936 11.333H36.9L35.4739 12.806L34.1445 11.333H21.0344L19.9082 13.827L18.7559 11.333H13.5026V12.469L12.9179 11.333H8.42544L8.42645 11.334ZM9.44491 12.706H12.0112L14.9277 19.258V12.706H17.7385L19.9918 17.404L22.0679 12.706H24.8647V19.639H23.1629L23.1488 14.206L20.6681 19.639H19.1454L16.6506 14.206V19.639H13.1494L12.4852 18.085H8.89945L8.23725 19.638H6.36136L9.44491 12.706ZM33.3424 12.706L35.4588 14.976L37.6437 12.706H39.7601L36.5437 16.191L39.7601 19.636H37.5471L35.4307 17.34L33.2347 19.636H26.4215V12.707H33.3414L33.3424 12.706ZM10.6938 13.879L11.8743 16.648H9.51233L10.6938 13.879ZM28.1314 15.407H31.9063V16.818H28.1314V18.2H32.3662L34.3337 16.165L32.4498 14.141H28.1314V15.408V15.407Z" fill="white"/>
</svg>
