<svg viewBox="0 0 47 32" fill="none" xmlns="http://www.w3.org/2000/svg">
<path d="M0 4C0 1.791 1.80343 0 4.02854 0H42.9715C45.1966 0 47 1.791 47 4V28C47 30.209 45.1966 32 42.9715 32H4.02854C1.80343 32 0 30.209 0 28V4Z" fill="white"/>
<path fill-rule="evenodd" clip-rule="evenodd" d="M13.083 7H24.2256C31.7973 7 34.7069 11.1117 34.7069 16.3089C34.7069 22.5258 30.64 25.6507 24.2256 25.6507H13.083V7ZM14.1409 8.11845V24.5981H24.2255C30.3093 24.5981 33.6157 21.7693 33.6157 16.3418C33.6157 10.7499 30.0448 8.11845 24.2255 8.11845H14.1409ZM17.1168 16.6379C18.2307 16.6379 19.1337 15.7395 19.1337 14.6314C19.1337 13.5232 18.2307 12.6248 17.1168 12.6248C16.0029 12.6248 15.0999 13.5232 15.0999 14.6314C15.0999 15.7395 16.0029 16.6379 17.1168 16.6379ZM15.4967 17.4931H18.737V23.2165H15.4967V17.4931Z" fill="black"/>
<path fill-rule="evenodd" clip-rule="evenodd" d="M29.9457 12.7893H30.8715V15.5523H32.2271C31.8634 10.5196 27.8626 9.40121 24.2256 9.40121H20.3571V12.7893H20.9192C21.9772 12.7893 22.6054 13.48 22.6054 14.6313C22.6054 15.7826 21.9772 16.4733 20.9522 16.4733H20.3571V23.2165H24.2256C30.144 23.2165 32.161 20.4863 32.2602 16.4733H29.9457V12.7893ZM25.482 15.5523V16.4734H23.1675V12.7893H25.4159V13.7103H24.0933V14.1379H25.3498V15.0589H24.1264V15.5523H25.482ZM25.8787 16.4734L27.0029 12.7893H28.3254L29.4496 16.4734H28.4908L28.2924 15.7826H27.069L26.8706 16.4734H25.8787ZM27.3438 14.8286H27.3335V14.8615L27.3438 14.8286ZM27.3438 14.8286H27.9948L27.6972 13.8089H27.6641L27.3438 14.8286ZM20.3571 15.5523V13.7102H20.9191C21.2828 13.7102 21.6796 13.8089 21.6796 14.6312C21.6796 15.4536 21.3159 15.5523 20.9191 15.5523H20.3571Z" fill="#D50072"/>
</svg>
