<svg width="47" height="32" viewBox="0 0 47 32" fill="none" xmlns="http://www.w3.org/2000/svg">
<path d="M0 4C0 1.791 1.80343 0 4.02854 0H42.9715C45.1966 0 47 1.791 47 4V28C47 30.209 45.1966 32 42.9715 32H4.02854C1.80343 32 0 30.209 0 28V4Z" fill="white"/>
<path fill-rule="evenodd" clip-rule="evenodd" d="M11.6994 11.8851C10.7282 11.8851 9.78185 12.2335 9.18393 13.5039L9.23361 12.2335H6.2698L5 21.0752H8.06317L8.58595 17.4891C8.8852 15.422 9.93089 14.7241 10.8275 14.7241C11.3256 14.7241 11.6994 14.9234 11.8738 15.0234L13.094 12.3583C12.8947 12.1838 12.3222 11.8851 11.6994 11.8851Z" fill="#113180"/>
<path fill-rule="evenodd" clip-rule="evenodd" d="M29.4075 21.0753H32.9191L30.2042 16.0693C31.8981 15.1477 33.1432 13.6532 33.7908 12.2337H30.4787C29.7311 13.5537 28.3612 14.8242 26.9418 15.5712L28.0128 8H24.9745L23.131 21.0753H26.1699L26.8423 16.3431L29.4075 21.0753Z" fill="#D81130"/>
<path fill-rule="evenodd" clip-rule="evenodd" d="M19.246 15.6958H16.058C16.3318 14.5999 17.0789 13.8026 18.0506 13.8026C19.3205 13.8026 19.3453 14.8241 19.246 15.6958ZM18.3492 11.8851C14.9869 11.8851 12.8203 14.2013 12.8203 17.2147C12.8203 19.4812 14.3144 21.3242 17.4279 21.3242C19.3453 21.3242 20.7151 20.7019 21.6621 19.9798L20.242 18.261C19.8936 18.5597 19.1714 19.0577 17.9754 19.0577C16.8547 19.0577 16.058 18.3355 15.9332 17.1651H21.9855C22.9319 12.981 20.566 11.8851 18.3492 11.8851Z" fill="#113180"/>
<path fill-rule="evenodd" clip-rule="evenodd" d="M37.7259 19.3818C36.979 19.3818 36.6797 19.008 36.6797 18.4355C36.6797 17.265 38.0997 17.1402 39.7434 17.1402C39.4447 18.3858 38.8219 19.3818 37.7259 19.3818ZM39.0709 11.8851C37.2776 11.8851 35.6588 12.4577 34.6628 13.5287L36.1817 15.0731C36.9038 14.326 37.7011 13.9522 38.5978 13.9522C39.7186 13.9522 40.0173 14.5999 39.9676 15.671H38.8219C35.3849 15.671 33.5917 16.7664 33.5917 18.8838C33.5917 20.2288 34.7622 21.3242 36.3065 21.3242C37.8756 21.3242 38.7723 20.6523 39.295 20.0791V21.0752H42.1844L42.9313 15.92C43.33 13.1301 41.9851 11.8851 39.0709 11.8851Z" fill="#D81130"/>
</svg>
