<svg width="47" height="32" viewBox="0 0 47 32" fill="none" xmlns="http://www.w3.org/2000/svg">
<path d="M0 4C0 1.791 1.80343 0 4.02854 0H42.9715C45.1966 0 47 1.791 47 4V28C47 30.209 45.1966 32 42.9715 32H4.02854C1.80343 32 0 30.209 0 28V4Z" fill="white"/>
<path d="M23.5954 13.1212C23.5776 14.6813 24.9881 15.552 26.0515 16.0716C27.1439 16.6025 27.5101 16.9435 27.5064 17.4187C27.4987 18.1462 26.6344 18.4669 25.8283 18.4795C24.4178 18.5023 23.5992 18.0993 22.9464 17.7952L22.4382 20.1707C23.0935 20.4718 24.3026 20.7334 25.5584 20.7467C28.5037 20.7467 30.4314 19.2906 30.4415 17.0373C30.453 14.1756 26.4836 14.0178 26.5115 12.7398C26.5191 12.35 26.8904 11.9369 27.7003 11.8311C28.1033 11.7785 29.2097 11.7379 30.4669 12.3165L30.9586 10.0175C30.2843 9.77164 29.415 9.53656 28.3352 9.53656C25.5635 9.53656 23.6118 11.0105 23.5954 13.1212ZM35.6971 9.73485C35.1598 9.73485 34.7048 10.048 34.5033 10.5302L30.2957 20.5769H33.2398L33.8252 18.9586H37.4232L37.7616 20.5769H40.3559L38.0924 9.73485H35.6971ZM36.109 12.6637L36.9582 16.7357H34.6326L36.109 12.6637ZM20.0265 9.73485L17.7073 20.5769H20.5119L22.8312 9.73485H20.0265ZM15.8766 9.73485L12.958 17.1146L11.7768 10.8401C11.6387 10.1392 11.0918 9.73485 10.4835 9.73485H5.71067L5.64417 10.0498C6.62375 10.2627 7.73721 10.6055 8.41072 10.9718C8.82392 11.1961 8.94174 11.3913 9.07801 11.9243L11.3136 20.5769H14.2792L18.8238 9.73485H15.8766Z" fill="#1434CB"/>
<path d="M27.6414 23.3486V26.9998C27.884 27.0271 28.1653 27.0435 28.5133 27.0435C29.2356 27.0435 29.8091 26.856 30.162 26.5087C30.5036 26.1665 30.6969 25.6704 30.6969 25.064C30.6969 24.4626 30.5036 24.0323 30.1671 23.7294C29.8421 23.4316 29.3509 23.2662 28.6621 23.2662C28.2813 23.2662 27.934 23.2992 27.6414 23.3486ZM28.1216 26.6355V23.6959C28.2484 23.6686 28.436 23.6464 28.6837 23.6464C29.6988 23.6464 30.195 24.2034 30.1893 25.0804C30.1893 26.0841 29.6379 26.6576 28.6064 26.6576C28.4195 26.6576 28.2427 26.6519 28.1216 26.6355Z" fill="#1434CB"/>
<path d="M31.2653 25.7198C31.2653 26.5252 31.7558 27.0714 32.5776 27.0714C33.0022 27.0714 33.3 26.9776 33.471 26.9003L33.383 26.5531C33.2062 26.6298 32.9914 26.6906 32.6441 26.6906C32.1531 26.6906 31.7393 26.4207 31.7285 25.7642H33.6035C33.6142 25.709 33.6199 25.6374 33.6199 25.5379C33.6199 25.0475 33.3938 24.2864 32.5168 24.2864C31.7393 24.2864 31.2653 24.9151 31.2653 25.7198ZM32.4781 24.6337C33.0244 24.6337 33.1568 25.1133 33.1511 25.4169H31.7335C31.7722 25.0804 31.9819 24.6337 32.4781 24.6337Z" fill="#1434CB"/>
<path d="M34.3588 23.0952V26.3212C34.3588 26.5582 34.348 26.8287 34.3373 27.0106H34.7504L34.7783 26.5746H34.7891C34.9931 26.9224 35.3023 27.0714 35.6882 27.0714C36.2839 27.0714 36.8903 26.5968 36.8903 25.6431C36.8903 24.8377 36.4271 24.2864 35.7598 24.2864C35.3296 24.2864 35.021 24.474 34.8499 24.7719H34.8391V23.0952H34.3588ZM34.8607 26.1171C34.8442 26.062 34.8391 26.0011 34.8391 25.941V25.4663C34.8391 25.389 34.8499 25.3232 34.8663 25.2623C34.9659 24.8986 35.2744 24.6667 35.6002 24.6667C36.1235 24.6667 36.3991 25.1248 36.3991 25.6596C36.3991 26.2717 36.102 26.6855 35.5887 26.6855C35.2358 26.6855 34.9494 26.4536 34.8607 26.1171Z" fill="#1434CB"/>
<path d="M37.5747 23.5913C37.5747 23.7567 37.69 23.8891 37.8668 23.8891C38.0594 23.8891 38.1754 23.7567 38.1754 23.5913C38.1754 23.4202 38.0544 23.2878 37.8776 23.2878C37.6957 23.2878 37.5747 23.4259 37.5747 23.5913ZM37.6349 27.0106H38.1203V24.3416H37.6349V27.0106Z" fill="#1434CB"/>
<path d="M39.1741 23.8448V24.3416H38.761V24.711H39.1741V26.1665C39.1741 26.4809 39.2293 26.7185 39.3617 26.8674C39.4777 26.9941 39.6595 27.0714 39.8858 27.0714C40.0733 27.0714 40.2222 27.0384 40.316 27.0049L40.2938 26.6355C40.2222 26.6576 40.1449 26.6684 40.0125 26.6684C39.7426 26.6684 39.6487 26.4809 39.6487 26.1501V24.711H40.3433V24.3416H39.6487V23.7016L39.1741 23.8448Z" fill="#1434CB"/>
</svg>
