<svg width="69" height="69" viewBox="0 0 69 69" fill="none" xmlns="http://www.w3.org/2000/svg">
<circle cx="34.5" cy="34.5" r="34.5" fill="#FF1010"/>
<path d="M23.7142 48L21 45.2857L32.2857 34L21 22.7142L23.7142 20L35 31.2857L46.2857 20L49 22.7142L37.7142 34L49 45.2857L46.2857 48L35 36.7142L23.7142 48Z" fill="#F2F2F2"/>
<path fill-rule="evenodd" clip-rule="evenodd" d="M23.7142 50.8285L18.1715 45.2857L29.4573 34L18.1715 22.7142L23.7142 17.1716L34.9999 28.4573L46.2857 17.1716L51.8284 22.7142L40.5426 34L51.8284 45.2857L46.2857 50.8285L34.9999 39.5427L23.7142 50.8285ZM35 36.7142L46.2857 48L49 45.2857L37.7142 34L49 22.7142L46.2857 20L35 31.2857L23.7142 20L21 22.7142L32.2857 34L21 45.2857L23.7142 48L35 36.7142Z" fill="#F2F2F2"/>
</svg>
