<svg width="143" height="143" viewBox="0 0 143 143" fill="none" xmlns="http://www.w3.org/2000/svg">
<path d="M39.2241 112.999C38.0107 113.017 36.8066 112.786 35.686 112.32C34.5654 111.854 33.5522 111.164 32.7088 110.291C31.8362 109.448 31.1458 108.435 30.68 107.314C30.2143 106.193 29.9832 104.989 30.0009 103.776V39.2242C29.9832 38.0108 30.2143 36.8066 30.68 35.686C31.1458 34.5655 31.8362 33.552 32.7088 32.7086C33.5522 31.8361 34.5654 31.1458 35.686 30.6801C36.8066 30.2144 38.0107 29.9832 39.2241 30.0009H103.776C104.989 29.9832 106.193 30.2144 107.314 30.6801C108.435 31.1458 109.448 31.8361 110.291 32.7086C111.164 33.552 111.854 34.5655 112.32 35.686C112.786 36.8066 113.017 38.0108 112.999 39.2242V103.776C113.017 104.989 112.786 106.193 112.32 107.314C111.854 108.435 111.164 109.448 110.291 110.291C109.448 111.164 108.435 111.854 107.314 112.32C106.193 112.786 104.989 113.017 103.776 112.999H39.2241ZM39.2241 103.776H103.776V89.9411H89.9411C87.7265 92.786 84.9123 95.1082 81.6984 96.7419C78.5381 98.3489 75.0402 99.1792 71.4948 99.1643C67.9494 99.1792 64.4516 98.3489 61.2912 96.7419C58.0774 95.1082 55.2631 92.786 53.0485 89.9411H39.2137L39.2241 103.776ZM71.5 89.9465C74.3529 89.9674 77.1384 89.0788 79.4523 87.4098C81.7898 85.7809 83.5312 83.433 84.4114 80.7232H103.776V39.2242H39.2241V80.7232H58.5886C59.4688 83.433 61.2102 85.7809 63.5478 87.4098C65.8616 89.0788 68.6471 89.9674 71.5 89.9465Z" fill="#3A3A3D"/>
<circle cx="108.5" cy="34.5" r="34.5" fill="#FF1010"/>
<path fill-rule="evenodd" clip-rule="evenodd" d="M92 46.1141L97.5427 51.6569L108.828 40.371L120.114 51.6568L125.657 46.1141L114.371 34.8284L125.657 23.5426L120.114 18L108.828 29.2857L97.5427 18L92 23.5426L103.286 34.8284L92 46.1141Z" fill="white"/>
</svg>
