<svg width="17" height="12" viewBox="0 0 17 12" fill="none" xmlns="http://www.w3.org/2000/svg">
<path fill-rule="evenodd" clip-rule="evenodd" d="M2.00002 1.00001H10.97L15 1.00001C15.2652 1.00001 15.5196 1.10537 15.7071 1.29291C15.8946 1.48044 16 1.7348 16 2.00001L16 10C16 10.2652 15.8946 10.5196 15.7071 10.7071C15.5768 10.8374 15.4142 10.9281 15.2382 10.9712C15.1767 10.9863 15.1136 10.9956 15.0496 10.9988C15.0331 10.9996 15.0166 11 15 11L6.03 11L2.00002 11C1.73481 11 1.48045 10.8947 1.29291 10.7071C1.10538 10.5196 1.00002 10.2652 1.00002 10V2.00001C1.00002 1.7348 1.10538 1.48044 1.29291 1.29291C1.48045 1.10537 1.73481 1.00001 2.00002 1.00001ZM17 2.00001V5.65001H17V10C17 10.5304 16.7893 11.0392 16.4142 11.4142C16.1329 11.6955 15.7764 11.8844 15.392 11.9612C15.2639 11.9868 15.1326 12 15 12H2.00002C1.73712 12.0009 1.47663 11.9498 1.23356 11.8497C0.990493 11.7495 0.769647 11.6022 0.583746 11.4163C0.397844 11.2304 0.25056 11.0095 0.150379 10.7665C0.0501969 10.5234 -0.000903151 10.2629 2.18743e-05 10V6.35001H0V2.00001C0 1.46958 0.210715 0.960871 0.585788 0.585798C0.960861 0.210725 1.46957 1.11542e-05 2 1.12006e-05L15 1.2337e-05C15.2629 -0.000912665 15.5234 0.0501869 15.7665 0.150369C16.0095 0.250551 16.2304 0.397834 16.4163 0.583736C16.6022 0.769637 16.7495 0.990483 16.8496 1.23355C16.9498 1.47662 17.0009 1.73711 17 2.00001ZM6.75006 6.75994C6.67839 7.01162 6.59157 7.25874 6.49006 7.49994H6.48006L5.57006 7.19994C5.66134 7.00928 5.73822 6.81207 5.80006 6.60994C5.85999 6.40874 5.89031 6.19988 5.89006 5.98994C5.89206 5.78119 5.86855 5.57299 5.82006 5.36994C5.76605 5.16839 5.68176 4.9762 5.57006 4.79994L6.46006 4.47994C6.59159 4.70794 6.68928 4.95384 6.75006 5.20994C6.81831 5.46426 6.85194 5.72663 6.85006 5.98994C6.85194 6.24996 6.8183 6.50902 6.75006 6.75994ZM9.02007 7.21994C8.94242 7.62939 8.81828 8.02865 8.65006 8.40994L8.64006 8.41994L7.74006 8.09994C7.88889 7.77028 7.99961 7.42471 8.07006 7.06994C8.20341 6.36284 8.20341 5.63704 8.07006 4.92994C8.0103 4.57569 7.89913 4.23206 7.74006 3.90994L8.65006 3.58994C8.82274 3.96607 8.94706 4.36256 9.02007 4.76994C9.09181 5.17268 9.12861 5.58086 9.13006 5.98994C9.12821 6.40231 9.09141 6.81378 9.02007 7.21994ZM11.2401 7.67994C11.1309 8.23725 10.9599 8.78061 10.7301 9.29994V9.28994L9.84007 8.93994C10.0486 8.4759 10.203 7.98935 10.3001 7.48994C10.3917 6.9918 10.4386 6.48644 10.4401 5.97994C10.4435 5.47652 10.3966 4.97402 10.3001 4.47994C10.2076 3.98259 10.053 3.49881 9.84007 3.03994L10.7301 2.68994C10.9584 3.20635 11.1294 3.74625 11.2401 4.29994C11.4534 5.41651 11.4534 6.56337 11.2401 7.67994Z"/>
</svg>
