<svg xmlns="http://www.w3.org/2000/svg" width="16" height="16" viewBox="0 0 16 16">
  <path id="inbox_FILL0_wght400_GRAD0_opsz24" d="M121.778-824a1.712,1.712,0,0,1-1.256-.522,1.712,1.712,0,0,1-.522-1.256v-12.444a1.712,1.712,0,0,1,.522-1.256,1.712,1.712,0,0,1,1.256-.522h12.444a1.712,1.712,0,0,1,1.256.522,1.712,1.712,0,0,1,.522,1.256v12.444a1.712,1.712,0,0,1-.522,1.256,1.712,1.712,0,0,1-1.256.522Zm0-1.778h12.444v-2.667h-2.667a4.73,4.73,0,0,1-1.589,1.311,4.3,4.3,0,0,1-1.967.467,4.3,4.3,0,0,1-1.967-.467,4.73,4.73,0,0,1-1.589-1.311h-2.667ZM128-828.444a2.588,2.588,0,0,0,1.533-.489,2.52,2.52,0,0,0,.956-1.289h3.733v-8H121.778v8h3.733a2.52,2.52,0,0,0,.956,1.289A2.588,2.588,0,0,0,128-828.444Zm-6.222,2.667h0Z" transform="translate(-120 840)"/>
</svg>
