<svg width="143" height="143" viewBox="0 0 143 143" fill="none" xmlns="http://www.w3.org/2000/svg">
<path d="M31 113V82.5714H112V113H31ZM31 72.4286V62.2857H112V72.4286H31ZM31 52.1429V42H112V52.1429H31Z" fill="#3A3A3D"/>
<path d="M100.736 2.53069C102.631 -0.843561 107.369 -0.843565 109.264 2.53069L142.333 61.4079C144.228 64.7822 141.859 69 138.069 69H71.9312C68.1408 69 65.7718 64.7822 67.667 61.4079L100.736 2.53069Z" fill="#FFCB00"/>
<path d="M104.071 20.1262C104.817 19.9806 105.563 20.017 106.308 20.2354C107.977 20.6722 109.113 21.7097 109.717 23.3478C109.859 23.8938 109.823 25.0223 109.61 26.7332C109.468 27.6797 109.06 30.3917 108.385 34.8692C107.391 41.4945 106.77 44.9163 106.521 45.1347C106.273 45.2439 105.421 45.2621 103.965 45.1893C103.681 45.1893 103.521 45.1711 103.486 45.1347C103.308 45.0255 103.148 44.6069 103.006 43.8788C102.9 43.2236 102.438 40.2204 101.622 34.8692C100.592 27.9527 100.113 24.2579 100.184 23.7846C100.184 23.7118 100.219 23.5662 100.29 23.3478C100.752 21.8189 101.835 20.7996 103.539 20.29C103.716 20.2172 103.894 20.1626 104.071 20.1262ZM104.125 48.7386C104.728 48.593 105.421 48.6294 106.202 48.8478C107.764 49.2482 108.847 50.2311 109.451 51.7964C109.557 51.9784 109.628 52.1786 109.664 52.397C109.877 53.2343 109.877 54.0533 109.664 54.8542C109.238 56.5287 108.243 57.6572 106.681 58.2396C106.504 58.3124 106.344 58.367 106.202 58.4034C105.385 58.6219 104.586 58.6219 103.805 58.4034C102.172 57.9666 101.071 56.9473 100.503 55.3456C100.432 55.1636 100.379 54.9998 100.343 54.8542C100.13 54.0533 100.13 53.2343 100.343 52.397C100.627 51.305 101.16 50.4495 101.941 49.8307C102.545 49.321 103.273 48.957 104.125 48.7386Z" fill="#141414"/>
</svg>
