<svg xmlns="http://www.w3.org/2000/svg" width="23.006" height="18.405" viewBox="0 0 23.006 18.405">
  <path id="credit_card_FILL0_wght400_GRAD0_opsz48_2_" data-name="credit_card_FILL0_wght400_GRAD0_opsz48 (2)" d="M103.006-798.275v14.954a1.655,1.655,0,0,1-.518,1.208,1.655,1.655,0,0,1-1.208.518H81.725a1.655,1.655,0,0,1-1.208-.518A1.655,1.655,0,0,1,80-783.32v-14.954a1.655,1.655,0,0,1,.518-1.208A1.655,1.655,0,0,1,81.725-800h19.555a1.655,1.655,0,0,1,1.208.518A1.655,1.655,0,0,1,103.006-798.275ZM81.725-795.14h19.555v-3.135H81.725Zm0,3.71v8.11h19.555v-8.11Zm0,8.11v0Z" transform="translate(-80 800)" fill="#fff"/>
</svg>
