<svg width="143" height="143" viewBox="0 0 143 143" fill="none" xmlns="http://www.w3.org/2000/svg">
<path d="M47.625 115C44.9438 115 42.6484 114.043 40.7391 112.128C38.8297 110.213 37.875 107.911 37.875 105.222V41.6667H33V31.8889H57.375V27H86.625V31.8889H111V41.6667H106.125V105.222C106.125 107.911 105.17 110.213 103.261 112.128C101.352 114.043 99.0563 115 96.375 115H47.625ZM96.375 41.6667H47.625V105.222H96.375V41.6667ZM57.375 95.4444H67.125V51.4444H57.375V95.4444ZM76.875 95.4444H86.625V51.4444H76.875V95.4444Z" fill="#3A3A3D"/>
<circle cx="108.5" cy="34.5" r="34.5" fill="#FF1010"/>
<path fill-rule="evenodd" clip-rule="evenodd" d="M92 46.1141L97.5427 51.6569L108.828 40.371L120.114 51.6568L125.657 46.1141L114.371 34.8284L125.657 23.5426L120.114 18L108.828 29.2857L97.5427 18L92 23.5426L103.286 34.8284L92 46.1141Z" fill="white"/>
</svg>
