<svg width="751" height="670" viewBox="0 0 751 670" fill="none" xmlns="http://www.w3.org/2000/svg">
<path d="M333.757 24.5734C352.459 -8.1911 399.215 -8.19114 417.918 24.5733L744.255 596.28C762.957 629.044 739.579 670 702.175 670H49.5C12.0952 670 -11.2828 629.044 7.41962 596.28L333.757 24.5734Z" fill="#FFCB00"/>
<path d="M366.674 195.429C374.032 194.015 381.39 194.369 388.748 196.49C405.216 200.731 416.428 210.805 422.385 226.712C423.786 232.014 423.436 242.971 421.334 259.585C419.932 268.775 415.903 295.109 409.245 338.586C399.435 402.918 393.303 436.145 390.85 438.266C388.397 439.326 379.988 439.503 365.622 438.796C362.819 438.796 361.243 438.619 360.892 438.266C359.14 437.205 357.564 433.14 356.162 426.071C355.111 419.708 350.556 390.547 342.497 338.586C332.336 271.426 327.606 235.548 328.307 230.953C328.307 230.246 328.657 228.832 329.358 226.712C333.913 211.866 344.599 201.968 361.418 197.02C363.17 196.313 364.922 195.783 366.674 195.429ZM367.199 473.26C373.156 471.846 379.988 472.199 387.697 474.32C403.114 478.208 413.8 487.752 419.757 502.951C420.808 504.719 421.509 506.663 421.859 508.784C423.961 516.914 423.961 524.867 421.859 532.643C417.655 548.903 407.844 559.861 392.427 565.516C390.675 566.223 389.098 566.753 387.697 567.107C379.638 569.228 371.754 569.228 364.046 567.107C347.928 562.865 337.066 552.968 331.46 537.415C330.759 535.648 330.234 534.057 329.883 532.643C327.781 524.867 327.781 516.914 329.883 508.784C332.686 498.18 337.942 489.873 345.651 483.864C351.607 478.915 358.79 475.38 367.199 473.26Z" fill="#141414"/>
</svg>
