<svg width="47" height="32" viewBox="0 0 47 32" fill="none" xmlns="http://www.w3.org/2000/svg">
<path d="M0 4C0 1.791 1.792 0 4.003 0H42.699C44.91 0 46.702 1.791 46.702 4V28C46.702 30.209 44.91 32 42.699 32H4.003C1.792 32 0 30.209 0 28V4Z" fill="white"/>
<path d="M42.9911 13.8858L43 13.8759H41.5802L40.6837 16.9838H40.6361L39.6067 13.8759H37.9194L39.9495 19.0049L39.1014 20.5683V20.606H40.4261L42.9911 13.8858Z" fill="black"/>
<path d="M27.2511 13.8759H25.7451V18.9861H27.2511V13.8759Z" fill="black"/>
<path d="M37.6231 17.7081V15.573C37.6231 14.4099 36.9366 13.7709 35.7259 13.7709C34.9532 13.7709 34.4201 13.9046 33.4472 14.1999L33.7137 15.3729C34.6005 14.9726 34.9909 14.8012 35.401 14.8012C35.8964 14.8012 36.1163 15.1539 36.1163 15.6977V15.7354C34.3904 16.0594 33.8564 16.2407 33.5235 16.5746C33.2758 16.8223 33.1708 17.175 33.1708 17.5851C33.1708 18.567 33.9336 19.0911 34.648 19.0911C35.182 19.0911 35.611 18.891 36.1926 18.4521L36.2976 18.9861H37.8035L37.6231 17.7081ZM36.1172 17.7467C35.7169 17.9657 35.4881 18.0518 35.2215 18.0518C34.8589 18.0518 34.6301 17.8131 34.6301 17.4326C34.6301 17.2899 34.6588 17.1463 34.7728 17.0323C34.9541 16.851 35.3068 16.7173 36.1172 16.527V17.7467Z" fill="black"/>
<path d="M30.998 13.7709C30.4452 13.7709 30.0162 13.9809 29.5298 14.3812V13.8759H28.0238V20.606H29.5298V18.9376C29.8161 19.0139 30.0826 19.0525 30.4066 19.0525C31.751 19.0525 32.9617 18.0608 32.9617 16.2973C32.9617 14.715 32.0849 13.7709 30.998 13.7709ZM30.044 18.1084C29.8726 18.1084 29.7102 18.0895 29.5289 18.0321V15.2679C29.8439 15.0489 30.1006 14.9439 30.4245 14.9439C30.9873 14.9439 31.4351 15.3917 31.4351 16.3457C31.436 17.5654 30.7782 18.1084 30.044 18.1084Z" fill="black"/>
<path d="M12.9794 11.2436H6.52212C5.68118 11.2436 5 11.9311 5 12.7783V19.2903C5 20.1376 5.68118 20.825 6.52212 20.825H12.9794C13.8204 20.825 14.5007 20.1376 14.5007 19.2903V12.7783C14.5016 11.9302 13.8204 11.2436 12.9794 11.2436Z" fill="#1677FF"/>
<path d="M12.8223 17.2602C12.4427 17.1319 11.9321 16.9353 11.364 16.728C11.705 16.1294 11.9778 15.4482 12.1573 14.7078H10.2843V14.0275H12.5782V13.6479H10.2843V12.5135H9.34823C9.18399 12.5135 9.18399 12.6768 9.18399 12.6768V13.647H6.86402V14.0266H9.18399V14.7069H7.26788V15.0865H10.9834C10.8479 15.5586 10.6648 16.0029 10.4485 16.4058C9.24322 16.0047 7.95624 15.6798 7.14852 15.8799C6.63157 16.0083 6.29861 16.2371 6.10296 16.4776C5.20549 17.5788 5.84898 19.2517 7.74444 19.2517C8.86538 19.2517 9.94505 18.6217 10.7815 17.5833C12.0299 18.1882 14.5006 19.2275 14.5006 19.2275V17.7467C14.5015 17.7467 14.191 17.7215 12.8223 17.2602ZM7.56764 18.6118C6.0895 18.6118 5.65243 17.4379 6.38297 16.7953C6.62709 16.5781 7.07223 16.4722 7.30917 16.4489C8.18689 16.3619 9.00001 16.6993 9.9594 17.1714C9.2854 18.0581 8.42652 18.6118 7.56764 18.6118Z" fill="white"/>
<path d="M20.5684 12.2649H18.5473L16.2883 18.9861H17.6803L18.0617 17.6704H20.4544L20.817 18.9861H22.5994L20.5684 12.2649ZM18.3759 16.5737L19.2715 13.4756H19.3092L20.1573 16.5737H18.3759Z" fill="black"/>
<path d="M24.7148 12.0262H23.2089V18.9852H24.7148V12.0262Z" fill="black"/>
<path d="M25.6302 12.6463C25.6302 13.1417 25.9928 13.4756 26.4981 13.4756C27.0034 13.4756 27.366 13.1417 27.366 12.6463C27.366 12.1599 27.0034 11.817 26.4981 11.817C25.9928 11.817 25.6302 12.1599 25.6302 12.6463Z" fill="#1677FF"/>
</svg>
