<!-- Generated by IcoMoon.io -->
<svg version="1.1" xmlns="http://www.w3.org/2000/svg" width="47" height="32" viewBox="0 0 47 32">
<title>amex</title>
<path fill="#1f72cd" d="M0 4c0-2.209 1.792-4 4.003-4h38.696c2.211 0 4.003 1.791 4.003 4v24c0 2.209-1.792 4-4.003 4h-38.696c-2.211 0-4.003-1.791-4.003-4v-24z"></path>
<path fill="#fff" d="M8.373 11.334l-4.37 9.662h5.231l0.648-1.541h1.482l0.649 1.541h5.758v-1.176l0.513 1.176h2.979l0.513-1.201v1.201h11.975l1.456-1.501 1.363 1.501 6.151 0.012-4.383-4.817 4.383-4.858h-6.055l-1.417 1.473-1.321-1.473h-13.027l-1.119 2.494-1.145-2.494h-5.22v1.136l-0.581-1.136h-4.464zM9.385 12.706h2.55l2.898 6.552v-6.552h2.793l2.239 4.698 2.063-4.698h2.779v6.933h-1.691l-0.014-5.433-2.465 5.433h-1.513l-2.479-5.433v5.433h-3.479l-0.66-1.554h-3.563l-0.658 1.553h-1.864l3.064-6.932zM33.131 12.706l2.103 2.27 2.171-2.27h2.103l-3.196 3.485 3.196 3.445h-2.199l-2.103-2.296-2.182 2.296h-6.77v-6.929h6.876zM10.626 13.879l1.173 2.769h-2.347l1.174-2.769zM27.953 15.407h3.751v1.411h-3.751v1.382h4.208l1.955-2.035-1.872-2.024h-4.291v1.267z"></path>
</svg>
