<!-- Generated by IcoMoon.io -->
<svg version="1.1" xmlns="http://www.w3.org/2000/svg" width="42" height="22" viewBox="-1 1 42 25">
<title>applepay</title>
<path fill="#0f1a30" d="M14.182 15.275c-0.012-1.333 1.014-2.009 1.176-2.115 0.010-0.007 0.016-0.011 0.019-0.013-0.653-0.978-1.673-1.084-2.025-1.11-0.553-0.032-1.057 0.168-1.464 0.33-0.262 0.104-0.484 0.192-0.653 0.192-0.19 0-0.421-0.093-0.68-0.197-0.34-0.136-0.729-0.293-1.136-0.285-0.934 0.013-1.803 0.549-2.28 1.401-0.98 1.705-0.255 4.229 0.692 5.617 0.464 0.687 1.019 1.441 1.751 1.414 0.322-0.012 0.553-0.112 0.793-0.215 0.276-0.119 0.563-0.241 1.010-0.241 0.432 0 0.706 0.12 0.969 0.235 0.25 0.109 0.49 0.214 0.847 0.208 0.758-0.013 1.235-0.687 1.699-1.375 0.501-0.738 0.721-1.457 0.754-1.567l0.004-0.013c-0.001-0.001-0.007-0.004-0.018-0.009-0.167-0.078-1.446-0.67-1.459-2.258z"></path>
<path fill="#0f1a30" d="M13.359 9.334c-0.555 0.026-1.241 0.37-1.633 0.853-0.359 0.416-0.666 1.090-0.588 1.725 0.627 0.053 1.254-0.317 1.646-0.786 0.385-0.482 0.64-1.13 0.575-1.791z"></path>
<path fill="#0f1a30" d="M38.513 12.948l-1.862 6.086h-0.033l-1.862-6.086h-1.653l2.679 7.501-0.144 0.456c-0.242 0.773-0.634 1.071-1.333 1.071-0.124 0-0.366-0.013-0.464-0.026v1.236c0.091 0.026 0.483 0.040 0.601 0.040 1.542 0 2.267-0.595 2.901-2.399l2.777-7.877h-1.607z"></path>
<path fill="#0f1a30" d="M29.503 12.849c-1.679 0-2.92 0.971-2.966 2.306h1.424c0.118-0.634 0.699-1.051 1.496-1.051 0.967 0 1.509 0.456 1.509 1.295v0.568l-1.973 0.119c-1.836 0.112-2.829 0.872-2.829 2.194 0 1.335 1.026 2.22 2.496 2.22 0.993 0 1.914-0.509 2.332-1.315h0.033v1.236h1.463v-5.128c0-1.487-1.176-2.445-2.986-2.445zM30.966 17.627c0 0.965-0.81 1.652-1.882 1.652-0.843 0-1.378-0.41-1.378-1.038 0-0.648 0.516-1.024 1.503-1.084l1.758-0.112v0.582z"></path>
<path fill="#0f1a30" d="M22.42 10.12h-3.822v10.303h1.581v-3.522h2.189c1.999 0 3.404-1.388 3.404-3.396s-1.379-3.384-3.352-3.384zM21.996 15.559h-1.816v-4.091h1.823c1.372 0 2.156 0.74 2.156 2.042s-0.784 2.049-2.163 2.049z"></path>
</svg>
