<svg viewBox="0 0 47 32" fill="none" xmlns="http://www.w3.org/2000/svg">
<path d="M0 4C0 1.791 1.80343 0 4.02854 0H42.9715C45.1966 0 47 1.791 47 4V28C47 30.209 45.1966 32 42.9715 32H4.02854C1.80343 32 0 30.209 0 28V4Z" fill="white"/>
<path fill-rule="evenodd" clip-rule="evenodd" d="M11.2977 24.604C11.2977 24.4015 11.2497 24.2263 11.1539 24.0783C11.0579 23.9303 10.9317 23.8174 10.7752 23.7396C10.9317 23.6617 11.053 23.5467 11.1392 23.3949C11.2253 23.243 11.2683 23.0718 11.2683 22.881V22.7758C11.2683 22.5421 11.2234 22.3476 11.1334 22.1917C11.0433 22.036 10.917 21.9113 10.7546 21.8179C10.5922 21.7244 10.3974 21.6573 10.1705 21.6163C9.94338 21.5755 9.69102 21.5551 9.41305 21.5551C9.31918 21.5551 9.22128 21.557 9.11961 21.5609C9.01769 21.5648 8.91893 21.5696 8.82311 21.5755C8.72716 21.5813 8.63902 21.5882 8.55892 21.596C8.47858 21.6038 8.41299 21.6116 8.36215 21.6192C8.24865 21.6389 8.16843 21.6738 8.12149 21.7244C8.07455 21.7751 8.05103 21.8667 8.05103 21.999V25.5502C8.05103 25.6827 8.07541 25.7741 8.12442 25.8247C8.17331 25.8754 8.25645 25.9103 8.37398 25.9299C8.43262 25.9415 8.50308 25.9512 8.58525 25.9591C8.66742 25.9668 8.75642 25.9736 8.85237 25.9795C8.94832 25.9853 9.04707 25.9901 9.14887 25.9941C9.25066 25.9979 9.35039 26 9.44829 26C9.70272 26 9.94241 25.9804 10.1676 25.9415C10.3925 25.9027 10.5882 25.8334 10.7546 25.7341C10.921 25.6349 11.053 25.5005 11.1509 25.3312C11.2487 25.1618 11.2977 24.9485 11.2977 24.6915V24.604ZM10.2998 22.9275C10.2998 22.9898 10.29 23.0492 10.2704 23.1056C10.2507 23.162 10.2186 23.2107 10.1736 23.2518C10.1285 23.2925 10.0679 23.3256 9.99155 23.3509C9.91523 23.3762 9.81831 23.3888 9.70091 23.3888H9.04342V22.3784C9.06293 22.3784 9.09329 22.3776 9.13437 22.3755C9.17546 22.3736 9.21849 22.3726 9.26348 22.3726H9.48951C9.79088 22.3726 10.0013 22.4106 10.1207 22.4865C10.24 22.5624 10.2998 22.6802 10.2998 22.8398V22.9275ZM10.15 25.0478C10.2655 24.9583 10.3233 24.8317 10.3233 24.6682V24.6039C10.3233 24.4637 10.2782 24.3421 10.1882 24.2388C10.0981 24.1358 9.93572 24.0841 9.70091 24.0841H9.04342V25.1763H9.14608C9.19106 25.1763 9.238 25.1775 9.28701 25.1793C9.3359 25.1812 9.38283 25.1823 9.42794 25.1823H9.52474C9.82611 25.1823 10.0346 25.1374 10.15 25.0478ZM14.5152 23.7453C14.5152 23.5312 14.4829 23.349 14.4183 23.1991C14.3538 23.0493 14.2627 22.9266 14.1453 22.8312C14.0279 22.7358 13.8841 22.6658 13.7137 22.621C13.5436 22.5762 13.3528 22.5538 13.1414 22.5538C12.9456 22.5538 12.7548 22.5675 12.569 22.5948C12.3829 22.6219 12.2352 22.6492 12.1257 22.6764C12.0513 22.696 12.0141 22.7387 12.0141 22.8048V23.278C12.0141 23.317 12.0239 23.3443 12.0435 23.3597C12.063 23.3754 12.0884 23.3832 12.1198 23.3832H12.1491L12.3253 23.3686C12.3957 23.3627 12.475 23.358 12.5631 23.3539C12.6511 23.3501 12.7431 23.3472 12.839 23.3452C12.9348 23.3432 13.0298 23.3423 13.1238 23.3423C13.2607 23.3423 13.3684 23.3676 13.4466 23.4182C13.5249 23.4689 13.564 23.5779 13.564 23.7453V23.9556H13.2471C12.7421 23.9556 12.3751 24.0344 12.1462 24.1921C11.9172 24.3498 11.8027 24.6 11.8027 24.9426V24.9954C11.8027 25.186 11.8311 25.3456 11.8878 25.4741C11.9445 25.6027 12.02 25.7059 12.1139 25.7839C12.2079 25.8616 12.3144 25.9171 12.4339 25.9501C12.5532 25.9832 12.6776 25.9999 12.8067 25.9999C12.9829 25.9999 13.1345 25.9765 13.2617 25.9298C13.3888 25.8831 13.5092 25.8188 13.6228 25.737V25.8304C13.6228 25.8616 13.6345 25.8889 13.658 25.9122C13.6816 25.9356 13.7089 25.9472 13.7402 25.9472H14.3978C14.429 25.9472 14.4565 25.9356 14.48 25.9122C14.5035 25.8889 14.5152 25.8616 14.5152 25.8304V23.7453ZM13.3557 25.2492C13.4358 25.224 13.5112 25.1938 13.5817 25.1587V24.5163H13.247C13.1452 24.5163 13.0611 24.525 12.9946 24.5425C12.928 24.5601 12.8751 24.5864 12.8361 24.6214C12.7969 24.6564 12.7695 24.7012 12.7539 24.7557C12.7382 24.8103 12.7304 24.8725 12.7304 24.9426V24.9954C12.7304 25.1198 12.7606 25.1996 12.8213 25.2347C12.882 25.2697 12.9749 25.2872 13.1003 25.2872C13.1902 25.2872 13.2753 25.2747 13.3557 25.2492ZM18.1082 25.8246V23.8795C18.1082 23.6968 18.0936 23.5243 18.0642 23.3627C18.0348 23.2013 17.982 23.061 17.9057 22.9421C17.8294 22.8234 17.7237 22.7289 17.5886 22.6589C17.4536 22.5888 17.2804 22.5538 17.069 22.5538C16.8811 22.5538 16.7147 22.5763 16.57 22.6214C16.4252 22.6666 16.2725 22.746 16.1121 22.8598V22.7182C16.1121 22.6869 16.1003 22.6594 16.0768 22.6359C16.0533 22.6124 16.0259 22.6005 15.9946 22.6005H15.3371C15.3056 22.6005 15.2783 22.6121 15.2549 22.6355C15.2314 22.6589 15.2197 22.6862 15.2197 22.7173V25.8246C15.2197 25.8558 15.2322 25.884 15.2578 25.9093C15.2832 25.9346 15.3116 25.9472 15.3429 25.9472H16.0533C16.0847 25.9472 16.1121 25.9346 16.1355 25.9094C16.159 25.8842 16.1707 25.856 16.1707 25.8248V23.5287C16.2725 23.4743 16.3683 23.4297 16.4584 23.3948C16.5484 23.3597 16.6364 23.3423 16.7226 23.3423C16.8126 23.3423 16.886 23.351 16.9428 23.3686C16.9995 23.386 17.0435 23.4161 17.0748 23.459C17.1062 23.5016 17.1278 23.5579 17.1395 23.6278C17.1512 23.6977 17.1571 23.7832 17.1571 23.8843V25.8248C17.1571 25.856 17.1688 25.8842 17.1924 25.9094C17.2158 25.9346 17.2431 25.9472 17.2745 25.9472H17.9849C18.0161 25.9472 18.0445 25.9346 18.07 25.9093C18.0955 25.884 18.1082 25.8558 18.1082 25.8246ZM20.9968 25.2582V25.7779C20.9968 25.8207 20.9869 25.8509 20.9674 25.8684C20.9478 25.886 20.9165 25.9005 20.8734 25.9122C20.7913 25.9317 20.6846 25.9511 20.5535 25.9708C20.4223 25.99 20.2687 25.9999 20.0926 25.9999C19.6777 25.9999 19.346 25.8734 19.0975 25.6201C18.8489 25.3671 18.7247 25.0011 18.7247 24.5221V24.0315C18.7247 23.5526 18.8489 23.1865 19.0975 22.9335C19.346 22.6803 19.6777 22.5538 20.0926 22.5538C20.2687 22.5538 20.4223 22.5635 20.5535 22.5829C20.6846 22.6025 20.7913 22.6219 20.8734 22.6413C20.9165 22.653 20.9478 22.6677 20.9674 22.6851C20.9869 22.7027 20.9968 22.7329 20.9968 22.7757V23.2956C20.9968 23.3267 20.9859 23.351 20.9645 23.3686C20.9429 23.386 20.9165 23.3948 20.8852 23.3948H20.8734C20.7638 23.3832 20.6592 23.3734 20.5594 23.3657C20.4595 23.358 20.3254 23.3539 20.1572 23.3539C20.0906 23.3539 20.0281 23.3647 19.9693 23.386C19.9105 23.4075 19.8597 23.4445 19.8167 23.497C19.7735 23.5496 19.7394 23.6196 19.7139 23.7073C19.6884 23.7949 19.6757 23.903 19.6757 24.0315V24.5221C19.6757 24.6506 19.6884 24.7586 19.7139 24.8463C19.7394 24.9339 19.7735 25.004 19.8167 25.0565C19.8597 25.1091 19.9105 25.1461 19.9693 25.1675C20.0281 25.1889 20.0906 25.1996 20.1572 25.1996C20.3254 25.1996 20.4595 25.1957 20.5594 25.188C20.6592 25.1802 20.7638 25.1704 20.8734 25.1587H20.8852C20.9165 25.1587 20.9429 25.1675 20.9645 25.1851C20.9859 25.2027 20.9968 25.2269 20.9968 25.2582ZM24.2555 24.0724C24.2555 23.8387 24.223 23.6285 24.1583 23.4416C24.0936 23.2547 23.9995 23.096 23.876 22.9655C23.7525 22.8352 23.5995 22.7339 23.4172 22.6618C23.2348 22.5899 23.0239 22.5538 22.7847 22.5538C22.5455 22.5538 22.3347 22.5899 22.1523 22.6618C21.9699 22.7339 21.816 22.8352 21.6905 22.9655C21.5649 23.096 21.4699 23.2547 21.4052 23.4416C21.3404 23.6285 21.3081 23.8387 21.3081 24.0724V24.4812C21.3081 24.7148 21.3404 24.9251 21.4052 25.1121C21.4699 25.299 21.5649 25.4576 21.6905 25.5881C21.816 25.7186 21.9699 25.8198 22.1523 25.8918C22.3347 25.9637 22.5455 25.9999 22.7847 25.9999C23.0239 25.9999 23.2348 25.9637 23.4172 25.8918C23.5995 25.8198 23.7525 25.7186 23.876 25.5881C23.9995 25.4576 24.0936 25.299 24.1583 25.1121C24.223 24.9251 24.2555 24.7148 24.2555 24.4812V24.0724ZM22.7847 25.1996C23.1311 25.1996 23.3043 24.9602 23.3043 24.4812V24.0724C23.3043 23.5973 23.1311 23.3597 22.7847 23.3597C22.6135 23.3597 22.4831 23.4191 22.3936 23.5379C22.304 23.6567 22.2593 23.8349 22.2593 24.0724V24.4812C22.2593 24.7187 22.304 24.8979 22.3936 25.0185C22.4831 25.1393 22.6135 25.1996 22.7847 25.1996ZM27.7484 25.8246V23.8795C27.7484 23.6968 27.7335 23.5243 27.7044 23.3627C27.675 23.2013 27.6221 23.061 27.5457 22.9421C27.4693 22.8234 27.3638 22.7289 27.2288 22.6589C27.0937 22.5888 26.9205 22.5538 26.7092 22.5538C26.5213 22.5538 26.3549 22.5763 26.2101 22.6214C26.0653 22.6666 25.9126 22.746 25.7522 22.8598V22.7182C25.7522 22.6869 25.7405 22.6594 25.7168 22.6359C25.6935 22.6124 25.666 22.6005 25.6348 22.6005H24.9772C24.9458 22.6005 24.9185 22.6121 24.895 22.6355C24.8716 22.6589 24.8598 22.6862 24.8598 22.7173V25.8246C24.8598 25.8558 24.8724 25.884 24.8979 25.9093C24.9234 25.9346 24.9517 25.9472 24.9831 25.9472H25.6935C25.7248 25.9472 25.7522 25.9346 25.7757 25.9094C25.7991 25.8842 25.8109 25.856 25.8109 25.8248V23.5287C25.9126 23.4743 26.0086 23.4297 26.0985 23.3948C26.1886 23.3597 26.2767 23.3423 26.3629 23.3423C26.4528 23.3423 26.5262 23.351 26.5829 23.3686C26.6396 23.386 26.6837 23.4161 26.7151 23.459C26.7464 23.5016 26.7679 23.5579 26.7797 23.6278C26.7914 23.6977 26.7972 23.7832 26.7972 23.8843V25.8248C26.7972 25.856 26.8089 25.8842 26.8325 25.9094C26.856 25.9346 26.8833 25.9472 26.9146 25.9472H27.625C27.6564 25.9472 27.6848 25.9346 27.7103 25.9093C27.7356 25.884 27.7484 25.8558 27.7484 25.8246ZM30.3084 25.3858V25.8378C30.3084 25.9035 30.2712 25.9421 30.1968 25.9535C30.1067 25.9691 30.0284 25.9806 29.962 25.9884C29.8954 25.9961 29.819 26 29.733 26C29.5733 26 29.4323 25.9873 29.3098 25.962C29.1872 25.9367 29.085 25.8871 29.0033 25.8131C28.9217 25.7391 28.8594 25.6369 28.8166 25.5064C28.7739 25.376 28.7525 25.2078 28.7525 25.0012V23.3075L28.2829 23.2314C28.2514 23.2236 28.2231 23.2091 28.1977 23.1876C28.1722 23.1663 28.1595 23.14 28.1595 23.1088V22.7232C28.1595 22.6922 28.1722 22.6639 28.1977 22.6386C28.2231 22.6133 28.2514 22.6006 28.2829 22.6006H28.7525V22.1216C28.7525 22.0905 28.7642 22.0652 28.7875 22.0457C28.8106 22.0263 28.8381 22.0127 28.8693 22.0048L29.5811 21.8823H29.5986C29.6297 21.8823 29.655 21.891 29.6745 21.9084C29.6939 21.926 29.7037 21.9504 29.7037 21.9814V22.6006H30.1851C30.2163 22.6006 30.2437 22.6124 30.2673 22.6359C30.2908 22.6594 30.3025 22.6871 30.3025 22.7184V23.1954C30.3025 23.2269 30.2908 23.2543 30.2673 23.2779C30.2437 23.3014 30.2163 23.3132 30.1851 23.3132H29.7037V25.0129C29.7037 25.1297 29.7134 25.2047 29.733 25.2377C29.7526 25.2708 29.8073 25.2873 29.8973 25.2873H30.1851C30.2673 25.2873 30.3084 25.3202 30.3084 25.3858ZM33.4436 23.7453C33.4436 23.5312 33.4114 23.349 33.3467 23.1991C33.2822 23.0493 33.1912 22.9266 33.0738 22.8312C32.9564 22.7358 32.8125 22.6658 32.6422 22.621C32.472 22.5762 32.2812 22.5538 32.0698 22.5538C31.8739 22.5538 31.6833 22.5675 31.4975 22.5948C31.3114 22.6219 31.1637 22.6492 31.0542 22.6764C30.9796 22.696 30.9426 22.7387 30.9426 22.8048V23.278C30.9426 23.317 30.9523 23.3443 30.9719 23.3597C30.9915 23.3754 31.0169 23.3832 31.0482 23.3832H31.0776L31.2538 23.3686C31.3242 23.3627 31.4035 23.358 31.4915 23.3539C31.5796 23.3501 31.6716 23.3472 31.7675 23.3452C31.8633 23.3432 31.9583 23.3423 32.0522 23.3423C32.1892 23.3423 32.2969 23.3676 32.3751 23.4182C32.4534 23.4689 32.4925 23.5779 32.4925 23.7453V23.9556H32.1755C31.6705 23.9556 31.3036 24.0344 31.0747 24.1921C30.8457 24.3498 30.7312 24.6 30.7312 24.9426V24.9954C30.7312 25.186 30.7595 25.3456 30.8163 25.4741C30.8729 25.6027 30.9485 25.7059 31.0424 25.7839C31.1363 25.8616 31.2429 25.9171 31.3624 25.9501C31.4817 25.9832 31.606 25.9999 31.7352 25.9999C31.9114 25.9999 32.0629 25.9765 32.1902 25.9298C32.3173 25.8831 32.4375 25.8188 32.5513 25.737V25.8304C32.5513 25.8616 32.563 25.8889 32.5865 25.9122C32.6099 25.9356 32.6374 25.9472 32.6687 25.9472H33.3263C33.3575 25.9472 33.3849 25.9356 33.4085 25.9122C33.4319 25.8889 33.4436 25.8616 33.4436 25.8304V23.7453ZM32.2842 25.2492C32.3643 25.224 32.4397 25.1938 32.5102 25.1587V24.5163H32.1755C32.0737 24.5163 31.9896 24.525 31.923 24.5425C31.8565 24.5601 31.8036 24.5864 31.7646 24.6214C31.7253 24.6564 31.6979 24.7012 31.6824 24.7557C31.6667 24.8103 31.6589 24.8725 31.6589 24.9426V24.9954C31.6589 25.1198 31.6891 25.1996 31.7498 25.2347C31.8105 25.2697 31.9034 25.2872 32.0287 25.2872C32.1187 25.2872 32.2037 25.2747 32.2842 25.2492ZM36.3321 25.7779V25.2582C36.3321 25.2269 36.3212 25.2027 36.2998 25.1851C36.2782 25.1675 36.2518 25.1587 36.2205 25.1587H36.2088C36.0992 25.1704 35.9945 25.1802 35.8946 25.188C35.7949 25.1957 35.6608 25.1996 35.4926 25.1996C35.4259 25.1996 35.3632 25.1889 35.3047 25.1675C35.2459 25.1461 35.195 25.1091 35.1519 25.0565C35.1089 25.004 35.0746 24.9339 35.0493 24.8463C35.0237 24.7586 35.0111 24.6506 35.0111 24.5221V24.0315C35.0111 23.903 35.0237 23.7949 35.0493 23.7073C35.0746 23.6196 35.1089 23.5496 35.1519 23.497C35.195 23.4445 35.2459 23.4075 35.3047 23.386C35.3632 23.3647 35.4259 23.3539 35.4926 23.3539C35.6608 23.3539 35.7949 23.358 35.8946 23.3657C35.9945 23.3734 36.0992 23.3832 36.2088 23.3948H36.2205C36.2518 23.3948 36.2782 23.386 36.2998 23.3686C36.3212 23.351 36.3321 23.3267 36.3321 23.2956V22.7757C36.3321 22.7329 36.3223 22.7027 36.3027 22.6851C36.2829 22.6677 36.2518 22.653 36.2088 22.6413C36.1266 22.6219 36.0198 22.6025 35.8888 22.5829C35.7576 22.5635 35.6041 22.5538 35.428 22.5538C35.0128 22.5538 34.6813 22.6803 34.4328 22.9335C34.1842 23.1865 34.0599 23.5526 34.0599 24.0315V24.5221C34.0599 25.0011 34.1842 25.3671 34.4328 25.6201C34.6813 25.8734 35.0128 25.9999 35.428 25.9999C35.6041 25.9999 35.7576 25.99 35.8888 25.9708C36.0198 25.9511 36.1266 25.9317 36.2088 25.9122C36.2518 25.9005 36.2829 25.886 36.3027 25.8684C36.3223 25.8509 36.3321 25.8207 36.3321 25.7779ZM38.8624 25.3858V25.8378C38.8624 25.9035 38.8251 25.9421 38.7508 25.9535C38.6607 25.9691 38.5824 25.9806 38.516 25.9884C38.4493 25.9961 38.373 26 38.287 26C38.1273 26 37.9863 25.9873 37.8638 25.962C37.7411 25.9367 37.6389 25.8871 37.5574 25.8131C37.4757 25.7391 37.4134 25.6369 37.3706 25.5064C37.3279 25.376 37.3065 25.2078 37.3065 25.0012V23.3075L36.8369 23.2314C36.8054 23.2236 36.7771 23.2091 36.7516 23.1876C36.7262 23.1663 36.7135 23.14 36.7135 23.1088V22.7232C36.7135 22.6922 36.7262 22.6639 36.7516 22.6386C36.7771 22.6133 36.8054 22.6006 36.8369 22.6006H37.3065V22.1216C37.3065 22.0905 37.3182 22.0652 37.3415 22.0457C37.3646 22.0263 37.3919 22.0127 37.4232 22.0048L38.135 21.8823H38.1526C38.1837 21.8823 38.209 21.891 38.2283 21.9084C38.2479 21.926 38.2577 21.9504 38.2577 21.9814V22.6006H38.7391C38.7703 22.6006 38.7977 22.6124 38.8213 22.6359C38.8447 22.6594 38.8565 22.6871 38.8565 22.7184V23.1954C38.8565 23.2269 38.8447 23.2543 38.8213 23.2779C38.7977 23.3014 38.7703 23.3132 38.7391 23.3132H38.2577V25.0129C38.2577 25.1297 38.2674 25.2047 38.287 25.2377C38.3065 25.2708 38.3613 25.2873 38.4514 25.2873H38.7391C38.8213 25.2873 38.8624 25.3202 38.8624 25.3858Z" fill="#005697"/>
<path d="M35.5054 10.3149H25.967L24.9969 11.4015L21.8489 14.9273V14.9274L20.8789 16.0139H11.4665L12.4215 14.9136L12.8736 14.3928L13.8287 13.2925H9.49169C8.69937 13.2925 8.05103 13.9538 8.05103 14.7621V17.863C8.05103 18.6714 8.69937 19.3327 9.49169 19.3327H26.0956C26.8879 19.3327 27.9703 18.8415 28.5008 18.2412L31.0124 15.3992L35.5054 10.3149Z" fill="#005697"/>
<path d="M37.4221 7C38.2144 7 38.8627 7.66137 38.8627 8.46974V11.5705C38.8627 12.3788 38.2144 13.0403 37.4221 13.0403H33.0992L34.0633 11.9482H34.0634L34.5415 11.4068L35.5056 10.3149H25.9672L20.8791 16.018H11.4083L18.2003 8.3778L18.4573 8.08866C18.9897 7.48987 20.0735 7 20.8658 7H37.4221V7Z" fill="#FBD500"/>
</svg>
