<svg width="47" height="32" viewBox="0 0 47 32" fill="none" xmlns="http://www.w3.org/2000/svg">
<path d="M0 4C0 1.791 1.792 0 4.003 0H42.699C44.91 0 46.702 1.791 46.702 4V28C46.702 30.209 44.91 32 42.699 32H4.003C1.792 32 0 30.209 0 28V4Z" fill="white"/>
<path fill-rule="evenodd" clip-rule="evenodd" d="M11.2261 24.604C11.2261 24.4015 11.1784 24.2263 11.0832 24.0783C10.9878 23.9303 10.8625 23.8174 10.7069 23.7396C10.8625 23.6617 10.983 23.5467 11.0686 23.3949C11.1542 23.243 11.1969 23.0718 11.1969 22.881V22.7758C11.1969 22.5421 11.1522 22.3476 11.0628 22.1917C10.9733 22.036 10.8478 21.9113 10.6864 21.8179C10.5251 21.7244 10.3315 21.6573 10.106 21.6163C9.88036 21.5755 9.6296 21.5551 9.35339 21.5551C9.26011 21.5551 9.16284 21.557 9.06181 21.5609C8.96053 21.5648 8.86241 21.5696 8.76719 21.5755C8.67185 21.5813 8.58427 21.5882 8.50468 21.596C8.42484 21.6038 8.35967 21.6116 8.30915 21.6192C8.19637 21.6389 8.11666 21.6738 8.07002 21.7244C8.02338 21.7751 8 21.8667 8 21.999V25.5502C8 25.6827 8.02423 25.7741 8.07293 25.8247C8.1215 25.8754 8.20412 25.9103 8.3209 25.9299C8.37917 25.9415 8.44919 25.9512 8.53084 25.9591C8.61249 25.9668 8.70092 25.9736 8.79626 25.9795C8.8916 25.9853 8.98973 25.9901 9.09088 25.9941C9.19203 25.9979 9.29113 26 9.3884 26C9.64122 26 9.87939 25.9804 10.1031 25.9415C10.3266 25.9027 10.5211 25.8334 10.6864 25.7341C10.8518 25.6349 10.983 25.5005 11.0803 25.3312C11.1774 25.1618 11.2261 24.9485 11.2261 24.6915V24.604ZM10.2344 22.9275C10.2344 22.9898 10.2247 23.0492 10.2052 23.1056C10.1857 23.162 10.1538 23.2107 10.1091 23.2518C10.0642 23.2925 10.004 23.3257 9.92819 23.3509C9.85235 23.3762 9.75605 23.3888 9.63939 23.3888H8.98607V22.3784C9.00546 22.3784 9.03562 22.3776 9.07644 22.3755C9.11727 22.3736 9.16003 22.3726 9.20473 22.3726H9.42933C9.72879 22.3726 9.93788 22.4106 10.0565 22.4865C10.1751 22.5624 10.2344 22.6802 10.2344 22.8398V22.9275ZM10.0857 25.0478C10.2004 24.9583 10.2578 24.8317 10.2578 24.6682V24.6039C10.2578 24.4637 10.213 24.3421 10.1236 24.2388C10.0341 24.1358 9.87271 24.0841 9.63939 24.0841H8.98607V25.1763H9.08807C9.13277 25.1763 9.17941 25.1775 9.22811 25.1793C9.27669 25.1812 9.32333 25.1823 9.36815 25.1823H9.46434C9.7638 25.1823 9.97095 25.1374 10.0857 25.0478ZM14.4231 23.7453C14.4231 23.5312 14.391 23.349 14.3268 23.1991C14.2627 23.0493 14.1722 22.9266 14.0556 22.8312C13.9389 22.7358 13.796 22.6658 13.6267 22.621C13.4576 22.5762 13.268 22.5538 13.058 22.5538C12.8634 22.5538 12.6738 22.5675 12.4892 22.5948C12.3044 22.6219 12.1575 22.6492 12.0488 22.6764C11.9749 22.696 11.9379 22.7387 11.9379 22.8048V23.278C11.9379 23.317 11.9476 23.3443 11.9671 23.3597C11.9865 23.3754 12.0117 23.3832 12.0429 23.3832H12.072L12.2471 23.3686C12.3171 23.3628 12.3958 23.358 12.4834 23.3539C12.5709 23.3501 12.6622 23.3472 12.7576 23.3452C12.8528 23.3432 12.9471 23.3423 13.0405 23.3423C13.1766 23.3423 13.2835 23.3676 13.3613 23.4182C13.4391 23.4689 13.478 23.5779 13.478 23.7453V23.9556H13.163C12.6612 23.9556 12.2966 24.0344 12.0691 24.1921C11.8416 24.3498 11.7279 24.6 11.7279 24.9426V24.9954C11.7279 25.186 11.7561 25.3457 11.8124 25.4741C11.8687 25.6027 11.9437 25.7059 12.037 25.7839C12.1304 25.8616 12.2363 25.9171 12.355 25.9501C12.4736 25.9832 12.5972 25.9999 12.7255 25.9999C12.9005 25.9999 13.0512 25.9765 13.1776 25.9298C13.3039 25.8831 13.4235 25.8188 13.5364 25.737V25.8304C13.5364 25.8616 13.548 25.8889 13.5714 25.9122C13.5948 25.9356 13.6219 25.9472 13.653 25.9472H14.3065C14.3375 25.9472 14.3647 25.9356 14.3881 25.9122C14.4115 25.8889 14.4231 25.8616 14.4231 25.8304V23.7453ZM13.271 25.2492C13.3506 25.224 13.4256 25.1938 13.4956 25.1587V24.5163H13.1631C13.062 24.5163 12.9784 24.525 12.9122 24.5425C12.8461 24.5601 12.7935 24.5864 12.7547 24.6214C12.7159 24.6564 12.6886 24.7012 12.6731 24.7557C12.6575 24.8103 12.6497 24.8725 12.6497 24.9426V24.9954C12.6497 25.1198 12.6798 25.1996 12.7401 25.2347C12.8004 25.2697 12.8927 25.2872 13.0173 25.2872C13.1067 25.2872 13.1912 25.2747 13.271 25.2492ZM17.9934 25.8246V23.8795C17.9934 23.6968 17.9789 23.5243 17.9497 23.3628C17.9205 23.2013 17.868 23.061 17.7922 22.9421C17.7164 22.8234 17.6113 22.7289 17.4771 22.6589C17.343 22.5888 17.1709 22.5538 16.9608 22.5538C16.7741 22.5538 16.6088 22.5763 16.465 22.6215C16.321 22.6666 16.1694 22.746 16.01 22.8598V22.7182C16.01 22.6869 15.9982 22.6594 15.9749 22.6359C15.9516 22.6124 15.9243 22.6005 15.8932 22.6005H15.2399C15.2086 22.6005 15.1815 22.6121 15.1582 22.6355C15.1348 22.6589 15.1232 22.6862 15.1232 22.7173V25.8246C15.1232 25.8558 15.1357 25.884 15.1611 25.9093C15.1863 25.9346 15.2145 25.9472 15.2457 25.9472H15.9516C15.9827 25.9472 16.01 25.9346 16.0332 25.9094C16.0566 25.8842 16.0682 25.856 16.0682 25.8249V23.5287C16.1694 23.4743 16.2646 23.4297 16.3541 23.3948C16.4435 23.3597 16.531 23.3423 16.6166 23.3423C16.706 23.3423 16.779 23.351 16.8354 23.3686C16.8917 23.386 16.9355 23.4161 16.9666 23.4591C16.9977 23.5016 17.0192 23.5579 17.0308 23.6278C17.0424 23.6977 17.0484 23.7832 17.0484 23.8843V25.8249C17.0484 25.856 17.06 25.8842 17.0834 25.9094C17.1066 25.9346 17.1338 25.9472 17.165 25.9472H17.8709C17.9019 25.9472 17.9302 25.9346 17.9555 25.9093C17.9808 25.884 17.9934 25.8558 17.9934 25.8246ZM20.8636 25.2582V25.7779C20.8636 25.8207 20.8538 25.8509 20.8344 25.8684C20.8149 25.886 20.7838 25.9005 20.741 25.9122C20.6594 25.9317 20.5534 25.9511 20.4231 25.9708C20.2928 25.99 20.1402 25.9999 19.9651 25.9999C19.5529 25.9999 19.2232 25.8734 18.9763 25.6201C18.7293 25.3671 18.6059 25.0011 18.6059 24.5221V24.0315C18.6059 23.5526 18.7293 23.1865 18.9763 22.9335C19.2232 22.6803 19.5529 22.5538 19.9651 22.5538C20.1402 22.5538 20.2928 22.5635 20.4231 22.5829C20.5534 22.6025 20.6594 22.6219 20.741 22.6413C20.7838 22.653 20.8149 22.6677 20.8344 22.6851C20.8538 22.7027 20.8636 22.7329 20.8636 22.7757V23.2956C20.8636 23.3267 20.8528 23.351 20.8315 23.3686C20.8101 23.386 20.7838 23.3948 20.7528 23.3948H20.741C20.6321 23.3832 20.5282 23.3734 20.429 23.3657C20.3297 23.358 20.1965 23.3539 20.0293 23.3539C19.9632 23.3539 19.901 23.3647 19.8426 23.386C19.7842 23.4075 19.7337 23.4445 19.691 23.497C19.6481 23.5497 19.6142 23.6196 19.5888 23.7073C19.5635 23.7949 19.5509 23.903 19.5509 24.0315V24.5221C19.5509 24.6506 19.5635 24.7586 19.5888 24.8463C19.6142 24.9339 19.6481 25.004 19.691 25.0565C19.7337 25.1091 19.7842 25.1461 19.8426 25.1675C19.901 25.1889 19.9632 25.1996 20.0293 25.1996C20.1965 25.1996 20.3297 25.1957 20.429 25.188C20.5282 25.1802 20.6321 25.1704 20.741 25.1587H20.7528C20.7838 25.1587 20.8101 25.1675 20.8315 25.1851C20.8528 25.2027 20.8636 25.2269 20.8636 25.2582ZM24.1017 24.0724C24.1017 23.8387 24.0695 23.6285 24.0051 23.4416C23.9408 23.2547 23.8473 23.096 23.7246 22.9655C23.6019 22.8352 23.4498 22.7339 23.2687 22.6618C23.0875 22.5899 22.8779 22.5538 22.6402 22.5538C22.4026 22.5538 22.1931 22.5899 22.0119 22.6618C21.8307 22.7339 21.6777 22.8352 21.553 22.9655C21.4282 23.096 21.3337 23.2547 21.2695 23.4416C21.2051 23.6285 21.173 23.8387 21.173 24.0724V24.4812C21.173 24.7148 21.2051 24.9252 21.2695 25.1121C21.3337 25.299 21.4282 25.4576 21.553 25.5881C21.6777 25.7186 21.8307 25.8198 22.0119 25.8918C22.1931 25.9637 22.4026 25.9999 22.6402 25.9999C22.8779 25.9999 23.0875 25.9637 23.2687 25.8918C23.4498 25.8198 23.6019 25.7186 23.7246 25.5881C23.8473 25.4576 23.9408 25.299 24.0051 25.1121C24.0695 24.9252 24.1017 24.7148 24.1017 24.4812V24.0724ZM22.6402 25.1996C22.9844 25.1996 23.1565 24.9602 23.1565 24.4812V24.0724C23.1565 23.5973 22.9844 23.3597 22.6402 23.3597C22.47 23.3597 22.3405 23.4192 22.2516 23.5379C22.1626 23.6567 22.1181 23.8349 22.1181 24.0724V24.4812C22.1181 24.7187 22.1626 24.8979 22.2516 25.0185C22.3405 25.1393 22.47 25.1996 22.6402 25.1996ZM27.5725 25.8246V23.8795C27.5725 23.6968 27.5578 23.5243 27.5288 23.3628C27.4996 23.2013 27.447 23.061 27.3711 22.9421C27.2952 22.8234 27.1903 22.7289 27.0562 22.6589C26.922 22.5888 26.7499 22.5538 26.5399 22.5538C26.3532 22.5538 26.1879 22.5763 26.044 22.6215C25.9001 22.6666 25.7484 22.746 25.589 22.8598V22.7182C25.589 22.6869 25.5773 22.6594 25.5538 22.6359C25.5307 22.6124 25.5033 22.6005 25.4723 22.6005H24.8189C24.7877 22.6005 24.7606 22.6121 24.7372 22.6355C24.714 22.6589 24.7022 22.6862 24.7022 22.7173V25.8246C24.7022 25.8558 24.7148 25.884 24.7401 25.9093C24.7654 25.9346 24.7936 25.9472 24.8248 25.9472H25.5307C25.5617 25.9472 25.589 25.9346 25.6123 25.9094C25.6356 25.8842 25.6474 25.856 25.6474 25.8249V23.5287C25.7484 23.4743 25.8437 23.4297 25.9331 23.3948C26.0227 23.3597 26.1101 23.3423 26.1958 23.3423C26.2852 23.3423 26.3581 23.351 26.4144 23.3686C26.4708 23.386 26.5146 23.4161 26.5457 23.4591C26.5769 23.5016 26.5982 23.5579 26.6099 23.6278C26.6216 23.6977 26.6274 23.7832 26.6274 23.8843V25.8249C26.6274 25.856 26.639 25.8842 26.6624 25.9094C26.6858 25.9346 26.7129 25.9472 26.744 25.9472H27.4499C27.4811 25.9472 27.5093 25.9346 27.5346 25.9093C27.5598 25.884 27.5725 25.8558 27.5725 25.8246ZM30.1162 25.3858V25.8378C30.1162 25.9035 30.0793 25.9421 30.0054 25.9535C29.9158 25.9691 29.8381 25.9806 29.772 25.9884C29.7059 25.9961 29.6299 26 29.5445 26C29.3858 26 29.2457 25.9873 29.1239 25.962C29.0022 25.9367 28.9005 25.8871 28.8194 25.8131C28.7383 25.7391 28.6764 25.6369 28.6339 25.5064C28.5915 25.376 28.5702 25.2078 28.5702 25.0012V23.3075L28.1036 23.2314C28.0723 23.2236 28.0442 23.2091 28.0189 23.1876C27.9936 23.1663 27.981 23.14 27.981 23.1088V22.7232C27.981 22.6922 27.9936 22.6639 28.0189 22.6386C28.0442 22.6133 28.0723 22.6006 28.1036 22.6006H28.5702V22.1216C28.5702 22.0905 28.5818 22.0652 28.605 22.0457C28.628 22.0263 28.6552 22.0127 28.6862 22.0048L29.3936 21.8823H29.4109C29.4418 21.8823 29.467 21.891 29.4864 21.9084C29.5056 21.926 29.5153 21.9504 29.5153 21.9814V22.6006H29.9937C30.0247 22.6006 30.052 22.6124 30.0754 22.6359C30.0988 22.6594 30.1104 22.6871 30.1104 22.7184V23.1954C30.1104 23.2269 30.0988 23.2543 30.0754 23.2779C30.052 23.3014 30.0247 23.3132 29.9937 23.3132H29.5153V25.0129C29.5153 25.1297 29.525 25.2047 29.5445 25.2377C29.5639 25.2708 29.6183 25.2873 29.7077 25.2873H29.9937C30.0754 25.2873 30.1162 25.3202 30.1162 25.3858ZM33.2315 23.7453C33.2315 23.5312 33.1995 23.349 33.1352 23.1991C33.0711 23.0493 32.9807 22.9266 32.8641 22.8312C32.7474 22.7358 32.6045 22.6658 32.4352 22.621C32.2661 22.5762 32.0765 22.5538 31.8665 22.5538C31.6718 22.5538 31.4823 22.5675 31.2977 22.5948C31.1129 22.6219 30.966 22.6492 30.8573 22.6764C30.7831 22.696 30.7464 22.7387 30.7464 22.8048V23.278C30.7464 23.317 30.756 23.3443 30.7755 23.3597C30.795 23.3754 30.8202 23.3832 30.8513 23.3832H30.8805L31.0556 23.3686C31.1256 23.3628 31.2043 23.358 31.2918 23.3539C31.3794 23.3501 31.4707 23.3472 31.5661 23.3452C31.6613 23.3432 31.7556 23.3423 31.8489 23.3423C31.9851 23.3423 32.092 23.3676 32.1698 23.4182C32.2476 23.4689 32.2865 23.5779 32.2865 23.7453V23.9556H31.9715C31.4696 23.9556 31.1051 24.0344 30.8776 24.1921C30.6501 24.3498 30.5364 24.6 30.5364 24.9426V24.9954C30.5364 25.186 30.5645 25.3457 30.6209 25.4741C30.6771 25.6027 30.7522 25.7059 30.8455 25.7839C30.9389 25.8616 31.0448 25.9171 31.1635 25.9501C31.2821 25.9832 31.4055 25.9999 31.534 25.9999C31.709 25.9999 31.8596 25.9765 31.986 25.9298C32.1124 25.8831 32.2318 25.8188 32.3449 25.737V25.8304C32.3449 25.8616 32.3565 25.8889 32.3799 25.9122C32.4031 25.9356 32.4304 25.9472 32.4615 25.9472H33.115C33.146 25.9472 33.1732 25.9356 33.1966 25.9122C33.2199 25.8889 33.2315 25.8616 33.2315 25.8304V23.7453ZM32.0794 25.2492C32.159 25.224 32.234 25.1938 32.304 25.1587V24.5163H31.9715C31.8703 24.5163 31.7867 24.525 31.7206 24.5425C31.6544 24.5601 31.6019 24.5864 31.5631 24.6214C31.5241 24.6564 31.4968 24.7012 31.4815 24.7557C31.4658 24.8103 31.4581 24.8725 31.4581 24.9426V24.9954C31.4581 25.1198 31.4881 25.1996 31.5484 25.2347C31.6088 25.2697 31.7011 25.2872 31.8256 25.2872C31.915 25.2872 31.9995 25.2747 32.0794 25.2492ZM36.1017 25.7779V25.2582C36.1017 25.2269 36.0909 25.2027 36.0696 25.1851C36.0481 25.1675 36.022 25.1587 35.9908 25.1587H35.9792C35.8703 25.1704 35.7662 25.1802 35.667 25.188C35.5679 25.1957 35.4347 25.1996 35.2675 25.1996C35.2012 25.1996 35.139 25.1889 35.0808 25.1675C35.0224 25.1461 34.9718 25.1091 34.929 25.0565C34.8863 25.004 34.8522 24.9339 34.827 24.8463C34.8016 24.7586 34.7891 24.6506 34.7891 24.5221V24.0315C34.7891 23.903 34.8016 23.7949 34.827 23.7073C34.8522 23.6196 34.8863 23.5497 34.929 23.497C34.9718 23.4445 35.0224 23.4075 35.0808 23.386C35.139 23.3647 35.2012 23.3539 35.2675 23.3539C35.4347 23.3539 35.5679 23.358 35.667 23.3657C35.7662 23.3734 35.8703 23.3832 35.9792 23.3948H35.9908C36.022 23.3948 36.0481 23.386 36.0696 23.3686C36.0909 23.351 36.1017 23.3267 36.1017 23.2956V22.7757C36.1017 22.7329 36.092 22.7027 36.0725 22.6851C36.0528 22.6677 36.022 22.653 35.9792 22.6413C35.8975 22.6219 35.7914 22.6025 35.6612 22.5829C35.5308 22.5635 35.3783 22.5538 35.2033 22.5538C34.7908 22.5538 34.4614 22.6803 34.2144 22.9335C33.9674 23.1865 33.844 23.5526 33.844 24.0315V24.5221C33.844 25.0011 33.9674 25.3671 34.2144 25.6201C34.4614 25.8734 34.7908 25.9999 35.2033 25.9999C35.3783 25.9999 35.5308 25.99 35.6612 25.9708C35.7914 25.9511 35.8975 25.9317 35.9792 25.9122C36.022 25.9005 36.0528 25.886 36.0725 25.8684C36.092 25.8509 36.1017 25.8207 36.1017 25.7779ZM38.6159 25.3858V25.8378C38.6159 25.9035 38.5789 25.9421 38.5051 25.9535C38.4156 25.9691 38.3378 25.9806 38.2718 25.9884C38.2055 25.9961 38.1297 26 38.0443 26C37.8856 26 37.7454 25.9873 37.6237 25.962C37.5018 25.9367 37.4003 25.8871 37.3192 25.8131C37.2381 25.7391 37.1762 25.6369 37.1337 25.5064C37.0913 25.376 37.0699 25.2078 37.0699 25.0012V23.3075L36.6033 23.2314C36.572 23.2236 36.5439 23.2091 36.5186 23.1876C36.4933 23.1663 36.4807 23.14 36.4807 23.1088V22.7232C36.4807 22.6922 36.4933 22.6639 36.5186 22.6386C36.5439 22.6133 36.572 22.6006 36.6033 22.6006H37.0699V22.1216C37.0699 22.0905 37.0816 22.0652 37.1047 22.0457C37.1277 22.0263 37.1549 22.0127 37.1859 22.0048L37.8932 21.8823H37.9107C37.9416 21.8823 37.9667 21.891 37.9859 21.9084C38.0054 21.926 38.0151 21.9504 38.0151 21.9814V22.6006H38.4935C38.5245 22.6006 38.5517 22.6124 38.5751 22.6359C38.5984 22.6594 38.6101 22.6871 38.6101 22.7184V23.1954C38.6101 23.2269 38.5984 23.2543 38.5751 23.2779C38.5517 23.3014 38.5245 23.3132 38.4935 23.3132H38.0151V25.0129C38.0151 25.1297 38.0248 25.2047 38.0443 25.2377C38.0637 25.2708 38.1181 25.2873 38.2076 25.2873H38.4935C38.5751 25.2873 38.6159 25.3202 38.6159 25.3858Z" fill="#005697"/>
<path d="M35.2803 10.3149H25.8023L24.8384 11.4015L21.7104 14.9273V14.9274L20.7465 16.0139H11.3938L12.3428 14.9136L12.792 14.3928L13.741 13.2925H9.43153C8.64423 13.2925 8 13.9538 8 14.7621V17.863C8 18.6714 8.64423 19.3327 9.43153 19.3327H25.9301C26.7174 19.3327 27.7929 18.8415 28.3201 18.2412L30.8158 15.3992L35.2803 10.3149Z" fill="#005697"/>
<path d="M37.1847 7C37.972 7 38.6163 7.66137 38.6163 8.46974V11.5705C38.6163 12.3788 37.972 13.0403 37.1847 13.0403H32.8893L33.8473 11.9482H33.8474L34.3224 11.4068L35.2804 10.3149H25.8025L20.7467 16.018H11.3359L18.0848 8.3778L18.3402 8.08866C18.8692 7.48987 19.9462 7 20.7335 7H37.1847V7Z" fill="#FBD500"/>
</svg>
