<svg width="47" height="32" viewBox="0 0 47 32" fill="none" xmlns="http://www.w3.org/2000/svg">
<path d="M0 4C0 1.791 1.792 0 4.003 0H42.699C44.91 0 46.702 1.791 46.702 4V28C46.702 30.209 44.91 32 42.699 32H4.003C1.792 32 0 30.209 0 28V4Z" fill="white"/>
<path d="M25.6683 25.9998C31.1817 26.0316 35.7391 21.6597 36 16.0887C35.9672 13.3603 34.8565 10.7587 32.9155 8.86401C30.9746 6.96927 28.3649 5.93895 25.6683 6.0028H20.9578C18.2966 5.94119 15.7266 6.98454 13.8459 8.89001C11.9652 10.7955 10.9378 13.3969 11.0029 16.0887C11.0633 21.599 15.5102 26.0264 20.9578 25.9998H25.6683Z" fill="#0779BE"/>
<path fill-rule="evenodd" clip-rule="evenodd" d="M21.052 6.82873C16.057 6.82873 12.0078 10.9248 12.0078 15.9775C12.0078 21.0302 16.057 25.1262 21.052 25.1262C26.047 25.1262 30.0962 21.0302 30.0962 15.9775C30.0962 10.9248 26.047 6.82873 21.052 6.82873ZM15.3209 15.9775C15.3233 13.5781 16.7827 11.4267 18.9951 10.5613V21.3937C16.7798 20.532 15.3188 18.3783 15.3209 15.9775ZM26.7805 15.9775C26.7805 13.5734 25.3136 11.4187 23.0932 10.5613V21.3937C25.3136 20.5363 26.7805 18.3816 26.7805 15.9775Z" fill="white"/>
<path d="M25.6683 25.9998C31.1817 26.0316 35.7391 21.6597 36 16.0887C35.9672 13.3603 34.8565 10.7587 32.9155 8.86401C30.9746 6.96927 28.3649 5.93895 25.6683 6.0028H20.9578C18.2966 5.94119 15.7266 6.98454 13.8459 8.89001C11.9652 10.7955 10.9378 13.3969 11.0029 16.0887C11.0633 21.599 15.5102 26.0264 20.9578 25.9998H25.6683Z" fill="#0779BE"/>
<path fill-rule="evenodd" clip-rule="evenodd" d="M21.052 6.82873C16.057 6.82873 12.0078 10.9248 12.0078 15.9775C12.0078 21.0302 16.057 25.1262 21.052 25.1262C26.047 25.1262 30.0962 21.0302 30.0962 15.9775C30.0962 10.9248 26.047 6.82873 21.052 6.82873ZM15.3209 15.9775C15.3233 13.5781 16.7827 11.4267 18.9951 10.5613V21.3937C16.7798 20.532 15.3188 18.3783 15.3209 15.9775ZM26.7805 15.9775C26.7805 13.5734 25.3136 11.4187 23.0932 10.5613V21.3937C25.3136 20.5363 26.7805 18.3816 26.7805 15.9775Z" fill="white"/>
</svg>
