<svg width="47" height="32" viewBox="0 0 47 32" fill="none" xmlns="http://www.w3.org/2000/svg">
<path d="M0 4C0 1.791 1.792 0 4.003 0H42.699C44.91 0 46.702 1.791 46.702 4V28C46.702 30.209 44.91 32 42.699 32H4.003C1.792 32 0 30.209 0 28V4Z" fill="white"/>
<path fill-rule="evenodd" clip-rule="evenodd" d="M20 32H42.699C44.91 32 46.702 30.209 46.702 28V24.3708L20 32Z" fill="#FD6020"/>
<path fill-rule="evenodd" clip-rule="evenodd" d="M4 13.2709H5.83C6.72346 13.1944 7.60751 13.4999 8.26313 14.1117C8.91875 14.7235 9.28458 15.5843 9.27 16.4809C9.26809 17.4304 8.84726 18.3306 8.12 18.9409C7.47109 19.4561 6.65765 19.7189 5.83 19.6809H4V13.2709ZM5.58 18.6309C6.20073 18.6847 6.81698 18.4864 7.29 18.0809C7.74494 17.6655 8.00287 17.077 8 16.4609C8.00098 15.851 7.74289 15.2694 7.29 14.8609C6.81074 14.4691 6.19624 14.2823 5.58 14.3409H5.25V18.6309H5.58Z" fill="#231F20"/>
<rect x="9.84998" y="13.2609" width="1.25" height="6.42" fill="#231F20"/>
<path d="M14.17 15.7209C13.42 15.4509 13.17 15.2609 13.17 14.9209C13.17 14.5809 13.56 14.2009 14.1 14.2009C14.494 14.2175 14.8602 14.4079 15.1 14.7209L15.75 13.8709C15.2369 13.4019 14.5652 13.1447 13.87 13.1509C13.3578 13.1181 12.8545 13.296 12.4768 13.6435C12.0991 13.991 11.8799 14.4778 11.87 14.9909C11.87 15.8809 12.27 16.3309 13.44 16.7509C13.7408 16.8473 14.032 16.9711 14.31 17.1209C14.5457 17.257 14.6907 17.5088 14.69 17.7809C14.6882 18.0377 14.5792 18.282 14.3892 18.4548C14.1993 18.6277 13.9458 18.7133 13.69 18.6909C13.1068 18.6973 12.5743 18.3605 12.33 17.8309L11.52 18.6109C11.9927 19.4113 12.8719 19.8817 13.8 19.8309C14.3772 19.8704 14.9444 19.6653 15.3629 19.2658C15.7814 18.8664 16.0126 18.3093 16 17.7309C16 16.7109 15.59 16.2409 14.17 15.7209Z" fill="#231F20"/>
<path d="M16.4101 16.4709C16.4017 17.3689 16.7575 18.2319 17.3963 18.8632C18.035 19.4944 18.9022 19.8399 19.8001 19.8209C20.3454 19.8241 20.8836 19.6973 21.3701 19.4509V17.9809C20.9923 18.4226 20.4412 18.6781 19.8601 18.6809C19.2722 18.6957 18.7049 18.4645 18.2949 18.043C17.8848 17.6216 17.6692 17.0481 17.7001 16.4609C17.6812 15.8892 17.8931 15.3338 18.2882 14.92C18.6832 14.5062 19.228 14.2687 19.8001 14.2609C20.4027 14.2633 20.975 14.5258 21.3701 14.9809V13.5109C20.8987 13.2497 20.3689 13.112 19.8301 13.1109C18.9302 13.1003 18.0632 13.4489 17.4212 14.0796C16.7793 14.7103 16.4153 15.571 16.4101 16.4709V16.4709Z" fill="#231F20"/>
<path d="M31.3 17.5709L29.58 13.2609H28.22L30.94 19.8409H31.61L34.39 13.2609H33.03L31.3 17.5709V17.5709Z" fill="#231F20"/>
<path d="M34.95 19.6809H38.51V18.5909H36.2V16.8609H38.42V15.7709H36.2V14.3509H38.51V13.2609H34.95V19.6809V19.6809Z" fill="#231F20"/>
<path fill-rule="evenodd" clip-rule="evenodd" d="M43.46 15.1509C43.5275 16.0491 42.8907 16.8473 42 16.9809L44 19.6809H42.48L40.74 17.1009H40.59V19.6809H39.34V13.2709H41.19C42.63 13.2709 43.46 13.9609 43.46 15.1509ZM40.63 16.2109H41C41.75 16.2109 42.19 15.9509 42.19 15.2709C42.19 14.5909 41.77 14.2709 41 14.2709H40.63V16.2109Z" fill="#231F20"/>
<path d="M28.59 16.4709C28.59 18.3542 27.0633 19.8809 25.18 19.8809C23.2967 19.8809 21.77 18.3542 21.77 16.4709C21.77 14.5876 23.2967 13.0609 25.18 13.0609C27.061 13.0664 28.5845 14.5899 28.59 16.4709V16.4709Z" fill="#FD6020"/>
<path fill-rule="evenodd" clip-rule="evenodd" d="M44.11 13.3809C44.1174 13.454 44.0709 13.5217 44 13.5409L44.17 13.7909H44.02L43.84 13.5509V13.7909H43.71V13.2109H43.9C44.04 13.2109 44.11 13.2709 44.11 13.3809ZM43.88 13.3209V13.4609H43.9C43.9841 13.4609 43.9833 13.4468 43.9809 13.4065C43.9805 13.3989 43.98 13.3904 43.98 13.3809C43.98 13.3209 43.94 13.3209 43.88 13.3209Z" fill="#231F20"/>
<path fill-rule="evenodd" clip-rule="evenodd" d="M43.5964 13.1515C43.6864 13.0577 43.81 13.0036 43.9399 13.0009C44.0768 12.9925 44.2109 13.0418 44.3097 13.1368C44.4085 13.2318 44.463 13.3639 44.4599 13.5009C44.4599 13.7771 44.2361 14.0009 43.9599 14.0009C43.6838 14.0009 43.4599 13.7771 43.4599 13.5009C43.4573 13.371 43.5063 13.2453 43.5964 13.1515ZM43.9399 13.9009C44.0353 13.9021 44.1264 13.862 44.1899 13.7909C44.2736 13.7179 44.3211 13.6119 44.3199 13.5009C44.3254 13.3958 44.2881 13.2929 44.2165 13.2157C44.1449 13.1385 44.0452 13.0935 43.9399 13.0909C43.8338 13.0935 43.7331 13.1382 43.66 13.2151C43.5868 13.292 43.5473 13.3948 43.5499 13.5009C43.5472 13.6061 43.5871 13.7079 43.6606 13.7832C43.734 13.8585 43.8348 13.901 43.9399 13.9009Z" fill="#231F20"/>
</svg>
