<svg width="47" height="32" viewBox="0 0 47 32" fill="none" xmlns="http://www.w3.org/2000/svg">
<path d="M0 4C0 1.791 1.792 0 4.003 0H42.699C44.91 0 46.702 1.791 46.702 4V28C46.702 30.209 44.91 32 42.699 32H4.003C1.792 32 0 30.209 0 28V4Z" fill="white"/>
<path fill-rule="evenodd" clip-rule="evenodd" d="M7.72615 10.0316C6.86427 10.033 6.16695 10.6504 6.16528 11.4133V11.4134V20.5868V20.5868C6.16549 20.6821 6.17657 20.7752 6.19748 20.8651C6.21859 20.9558 6.24973 21.0433 6.28983 21.1267C6.5277 21.6209 7.08079 21.9674 7.72615 21.9685H23.9663V21.9685V10.0316V10.0316H7.72615ZM7.72608 9H38.8073C40.313 9.00023 41.5329 10.0799 41.5334 11.4133V20.5868C41.5329 21.9197 40.313 22.9995 38.8073 23H7.72608C6.22027 22.9995 5.00052 21.9197 5 20.5868V11.4133C5.00052 10.0799 6.22027 9.00023 7.72608 9Z" fill="#0F3365"/>
<path fill-rule="evenodd" clip-rule="evenodd" d="M26.624 19.0862H25.2606V14.1833H26.5182V14.8138H26.5334C26.806 14.3242 27.382 14.1029 28.0032 14.1029C29.0943 14.1029 29.6923 15.0218 29.6923 15.8667C29.6923 16.8997 29.0636 17.7582 27.8893 17.7582C27.4122 17.7582 26.8969 17.6041 26.6393 17.1883H26.624V19.0862ZM27.4579 16.8326C27.9727 16.8326 28.2834 16.4505 28.2834 15.8937C28.2834 15.4306 27.9879 15.0284 27.4579 15.0284C26.9576 15.0284 26.624 15.4175 26.624 15.9405C26.624 16.4505 27.0031 16.8326 27.4579 16.8326ZM34.917 19.0862C35.1975 19.14 35.4777 19.1669 35.7656 19.1669C36.945 19.1669 37.2746 18.4086 37.6323 17.5856C37.6538 17.5361 37.6754 17.4864 37.6973 17.4366L39.1445 14.1833H37.7809L36.9701 16.4636H36.955L36.1064 14.1833H34.6372L36.2349 17.7582C36.1371 18.0667 35.8794 18.2412 35.5465 18.2412C35.3566 18.2412 35.1898 18.2214 35.0084 18.1673L34.917 19.0862ZM34.4089 17.7913C34.3484 17.5164 34.3329 17.2416 34.3329 16.9664V15.6653C34.3329 14.5988 33.4619 14.2167 32.4543 14.2167C31.8707 14.2167 31.3632 14.2902 30.8784 14.4649L30.9009 15.283C31.28 15.0954 31.7193 15.0215 32.1584 15.0215C32.6511 15.0215 33.0528 15.1489 33.0603 15.6253C32.886 15.5982 32.6438 15.5778 32.4241 15.5778C31.6967 15.5778 30.3862 15.7057 30.3862 16.7721C30.3862 17.5302 31.0831 17.8722 31.8635 17.8722C32.4241 17.8722 32.8029 17.6774 33.1133 17.2416H33.1281C33.1281 17.3479 33.1361 17.4544 33.1442 17.562C33.1499 17.6377 33.1556 17.714 33.1587 17.7913H34.4089ZM31.6585 16.685C31.6585 16.3496 32.0221 16.2222 32.4843 16.2222C32.6292 16.2222 32.7703 16.2289 32.9021 16.2352L32.9022 16.2352C32.9565 16.2378 33.0093 16.2403 33.0601 16.2422C33.0601 16.6512 32.7346 17.0676 32.219 17.0676C31.901 17.0676 31.6585 16.9261 31.6585 16.685Z" fill="#FFFFFE"/>
<path fill-rule="evenodd" clip-rule="evenodd" d="M13.4098 17.6775H14.7733V14.1833H13.4098V17.6775ZM13.4098 13.6131H14.7733V12.7278H13.4098V13.6131ZM18.1083 14.1029C18.2671 14.1029 18.4338 14.123 18.5702 14.1428L18.5019 15.1489C18.3506 15.1088 18.1989 15.1088 18.04 15.1088C17.4037 15.1088 17.0475 15.518 17.0475 16.2023V17.6775H15.684V14.1833H16.9264V14.827H16.9414C17.1764 14.3846 17.5173 14.1029 18.1083 14.1029ZM23.2132 15.934C23.2132 17.0877 22.2207 17.7582 20.918 17.7582C19.6151 17.7582 18.6226 17.0877 18.6226 15.934C18.6226 14.7734 19.6151 14.1029 20.918 14.1029C22.2207 14.1029 23.2132 14.7734 23.2132 15.934ZM20.0319 15.934C20.0319 16.4505 20.2894 16.9131 20.9183 16.9131C21.547 16.9131 21.8047 16.4505 21.8047 15.934C21.8047 15.4108 21.547 14.948 20.9183 14.948C20.2894 14.948 20.0319 15.4108 20.0319 15.934ZM11.2337 14.1833H12.4688V17.2688C12.4688 18.7039 11.681 19.1669 10.09 19.1669C9.43864 19.1669 8.90073 19.0459 8.58244 18.9457L8.65079 17.9931C9.06735 18.1743 9.41581 18.2814 9.98404 18.2814C10.772 18.2814 11.1961 17.9529 11.1961 17.2688V17.0806H11.1807C10.8552 17.4902 10.4007 17.6775 9.85533 17.6775C8.77189 17.6775 8.09766 16.9538 8.09766 15.9204C8.09766 14.8807 8.65079 14.1029 9.8779 14.1029C10.4611 14.1029 10.9309 14.3846 11.2189 14.8136H11.2337V14.1833ZM10.2795 15.0284C9.7719 15.0284 9.50675 15.4242 9.50675 15.9002C9.50675 16.4433 9.87043 16.7522 10.2795 16.7522C10.7642 16.7522 11.1507 16.3901 11.1507 15.8532C11.1507 15.464 10.893 15.0284 10.2795 15.0284Z" fill="#D8232A"/>
</svg>
