<svg width="47" height="32" viewBox="0 0 47 32" fill="none" xmlns="http://www.w3.org/2000/svg">
<path d="M0 4C0 1.791 1.80343 0 4.02854 0H42.9715C45.1966 0 47 1.791 47 4V28C47 30.209 45.1966 32 42.9715 32H4.02854C1.80343 32 0 30.209 0 28V4Z" fill="white"/>
<path d="M36.9676 24.9664C36.945 24.1639 36.945 23.5927 36.945 22.7859C36.945 21.7804 36.9619 20.7734 36.9676 19.7692H36.2201V22.2585C36.1519 22.1622 36.0734 22.0738 35.986 21.9947C35.7035 21.747 35.3391 21.6128 34.9634 21.6182C34.7177 21.6163 34.4742 21.6655 34.2484 21.7626C34.0226 21.8597 33.8195 22.0026 33.6518 22.1823C33.0313 22.848 33.0877 23.7492 33.0877 23.8832C33.0911 24.1941 33.1473 24.5022 33.2541 24.7943C33.453 25.3077 33.9254 25.9409 34.9042 25.9409C35.3144 25.9478 35.7115 25.7963 36.0127 25.5178C36.1111 25.4283 36.1974 25.3264 36.2694 25.2146L36.3019 25.8492H37C36.9817 25.5178 36.9774 25.295 36.9661 24.9664M36.2384 23.8085C36.2377 24.0048 36.2088 24.2 36.1524 24.3881C35.9592 24.9748 35.5191 25.295 35.0241 25.295C34.8072 25.2925 34.5959 25.2264 34.4163 25.1048C34.2368 24.9832 34.097 24.8114 34.0143 24.6109C33.8959 24.3453 33.8431 24.0551 33.8605 23.7647C33.8602 23.5467 33.8969 23.3302 33.9691 23.1244C34.2385 22.353 34.852 22.2782 35.0551 22.2782C35.5276 22.2782 35.9606 22.5941 36.1467 23.1682C36.2074 23.3775 36.2364 23.5948 36.2328 23.8127M32.5658 22.3177C32.7384 22.32 32.909 22.3539 33.0693 22.4178V21.6915C32.9211 21.6706 32.7719 21.6579 32.6223 21.6534C32.4381 21.645 32.2544 21.6787 32.0853 21.752C31.9161 21.8253 31.766 21.9363 31.6463 22.0765C31.5701 22.1762 31.5013 22.2813 31.4404 22.391L31.4037 21.6986H30.6985C30.7239 22.219 30.7366 22.5829 30.7366 23.0948C30.7366 23.697 30.7366 24.1216 30.7366 24.7167V25.845H31.4897V23.8169C31.5151 23.4234 31.5335 22.9016 31.9396 22.5476C32.1111 22.3929 32.335 22.3092 32.5658 22.3135M29.2303 25.8492H29.865V23.1696C29.8787 22.846 29.8072 22.5246 29.6577 22.2373C29.4405 21.8749 28.968 21.6196 28.315 21.6196C27.8556 21.6008 27.4014 21.7229 27.0133 21.9694V22.6223C27.1797 22.5236 27.6592 22.2289 28.1754 22.2289C28.3676 22.2185 28.5584 22.267 28.7225 22.3677C28.8865 22.4685 29.0159 22.6168 29.0935 22.793C29.1483 22.9701 29.1735 23.1549 29.1683 23.3402C28.9765 23.3318 28.772 23.3233 28.5731 23.3233C28.1627 23.3233 27.6733 23.3402 27.2629 23.5419C26.9442 23.6942 26.5084 23.989 26.5084 24.6533C26.5057 24.835 26.5421 25.0151 26.6151 25.1816C26.6881 25.348 26.796 25.4968 26.9315 25.6179C27.1804 25.8055 27.4829 25.9084 27.7946 25.9113C28.15 25.9314 28.502 25.8321 28.7945 25.6292C28.957 25.4992 29.1046 25.3517 29.2346 25.1892L29.2303 25.8492ZM29.1866 23.9791C29.194 24.1692 29.1731 24.3593 29.1246 24.5433C29.0848 24.6717 29.0217 24.7917 28.9384 24.8972C28.8428 25.0349 28.7148 25.1469 28.5658 25.2236C28.4168 25.3003 28.2513 25.3394 28.0837 25.3373C27.741 25.3373 27.2869 25.1596 27.2869 24.6716C27.2869 24.1836 27.71 23.9819 28.0837 23.8903C28.2638 23.858 28.4466 23.8434 28.6295 23.8465C28.8143 23.8465 29.0005 23.8465 29.1937 23.8677L29.1866 23.9791ZM25.2376 25.9127C25.5829 25.9216 25.9253 25.8476 26.2362 25.6969L26.1812 25.0298C25.9121 25.1661 25.6166 25.2426 25.3152 25.2541C25.1334 25.2573 24.9533 25.2182 24.7891 25.1398C24.1587 24.8296 24.0036 24.1949 24.0036 23.7295C24.0036 23.0243 24.3547 22.628 24.7087 22.4348C24.93 22.3135 25.1802 22.255 25.4323 22.2655C25.6569 22.2807 25.8761 22.3412 26.0768 22.4432L26.1149 21.7677C25.8557 21.6876 25.5875 21.6402 25.3166 21.6266C24.9994 21.606 24.6821 21.6647 24.3933 21.7974C24.1044 21.9301 23.8532 22.1327 23.6623 22.3868C23.3574 22.8123 23.2081 23.3297 23.2392 23.8522C23.2688 24.9551 23.8992 25.5446 24.4507 25.7745C24.7019 25.8735 24.9704 25.9214 25.2405 25.9155M22.1772 25.3951C22.6581 24.9114 22.7963 24.2541 22.7893 23.7224C22.7667 22.7027 22.2251 22.0935 21.7258 21.8269C21.4437 21.6922 21.1344 21.6241 20.8218 21.628C19.891 21.628 19.2916 22.1118 19.0053 22.6068C18.8142 22.9711 18.7172 23.3774 18.7232 23.7887C18.7147 24.6222 19.0053 25.113 19.3663 25.4586C19.4493 25.5301 19.538 25.5947 19.6315 25.6518C19.8642 25.8041 20.1956 25.9339 20.7471 25.9339C21.0478 25.9444 21.3472 25.8891 21.6243 25.7717C21.8341 25.6834 22.0254 25.5567 22.1884 25.3979M22.0178 23.7337C22.0178 24.1878 21.8768 24.8521 21.3197 25.1666C21.1549 25.2561 20.9715 25.3057 20.7841 25.3113C20.5967 25.317 20.4106 25.2785 20.2407 25.1991C20.1698 25.1606 20.1019 25.1167 20.0377 25.0679C19.8621 24.9224 19.7267 24.7346 19.6442 24.5221C19.5397 24.2679 19.4916 23.9941 19.5031 23.7196C19.4984 23.4963 19.5408 23.2745 19.6276 23.0687C19.7143 22.8628 19.8435 22.6776 20.0066 22.525C20.233 22.3299 20.5229 22.224 20.8218 22.2274C21.4649 22.2359 21.7498 22.6774 21.8909 23.0144C21.9727 23.2454 22.0147 23.4886 22.015 23.7337M14.7079 20.7099H15.5076V19.8905H14.7079V20.7099ZM13.4851 27.0114C13.794 26.6038 13.8194 26.1793 13.8405 25.3091L13.8377 21.6972H13.1325V22.3389C13.0411 22.1924 12.9279 22.0607 12.7969 21.9482C12.5194 21.7207 12.1682 21.6028 11.8096 21.6168C11.4885 21.6161 11.1737 21.706 10.9014 21.8763C10.7075 21.9997 10.5413 22.162 10.4134 22.353C10.1274 22.7784 9.9832 23.2834 10.0016 23.7958C9.99723 24.0923 10.0386 24.3877 10.1243 24.6716C10.228 25.0252 10.43 25.3421 10.7067 25.5855C11.016 25.8376 11.4105 25.9608 11.8082 25.9296C12.1667 25.9153 12.5118 25.7896 12.7955 25.57C12.9035 25.4791 12.9984 25.3738 13.0775 25.2569V25.821C13.0726 26.009 13.0403 26.1952 12.9816 26.3739C12.9415 26.4902 12.8781 26.5972 12.7955 26.6884C12.5952 26.9197 12.3399 27.0396 11.8505 27.0565C11.4912 27.0557 11.1343 26.9961 10.7942 26.8802C10.6514 26.8269 10.514 26.7604 10.3838 26.6814L10.3062 27.4035C10.4233 27.4514 10.5093 27.4824 10.6348 27.5262C11.0137 27.642 11.4078 27.7009 11.804 27.701C12.2151 27.7197 12.624 27.6323 12.9915 27.4472C13.1882 27.3412 13.3583 27.1923 13.4894 27.0114M13.117 23.8014C13.1222 24.1151 13.0391 24.424 12.8773 24.6927C12.7994 24.8431 12.6873 24.9731 12.55 25.0723C12.4127 25.1714 12.254 25.2369 12.0867 25.2636C11.9195 25.2902 11.7483 25.2771 11.587 25.2255C11.4257 25.1739 11.2788 25.0851 11.158 24.9664C10.8661 24.6843 10.7801 24.2118 10.7801 23.7676C10.7801 23.1414 10.9662 22.7888 11.2624 22.518C11.4367 22.3487 11.6696 22.2532 11.9126 22.2514C12.1643 22.2583 12.4067 22.348 12.6023 22.5067C13.1311 22.9495 13.1072 23.7605 13.1072 23.8014M15.4794 21.6972H14.7502V25.8492H15.4794V21.6972ZM18.1929 22.3135C18.3654 22.3158 18.5361 22.3497 18.6964 22.4136V21.6873C18.5477 21.6664 18.398 21.6537 18.2479 21.6492C18.0638 21.6408 17.8801 21.6746 17.711 21.7479C17.5419 21.8212 17.3917 21.9322 17.2719 22.0723C17.1963 22.1721 17.128 22.2772 17.0674 22.3868L17.0308 21.6943H16.3256C16.3496 22.2148 16.3623 22.5786 16.3623 23.0906C16.3623 23.6928 16.3623 24.1173 16.3623 24.7125V25.8408H17.114V23.8169C17.1408 23.4234 17.1591 22.9016 17.5639 22.5476C17.7357 22.3926 17.9601 22.3088 18.1915 22.3135" fill="#1F3A6A"/>
<path d="M27.0174 7.88412H25.954V8.1662H26.7918L28.9073 16.7694H18.0927L20.2082 8.17325H21.0474V7.89118H19.9826L17.6456 17.1149H29.3657L27.0174 7.88412Z" fill="#1F3A6A"/>
<path d="M25.555 4.00564H21.4424C21.3302 4.00564 21.2226 4.05022 21.1432 4.12957C21.0639 4.20891 21.0193 4.31653 21.0193 4.42875V8.46237H21.3282V4.42311C21.3289 4.39453 21.3405 4.36732 21.3608 4.34711C21.381 4.3269 21.4082 4.31522 21.4368 4.31451H22.204V7.22407H21.3987L22.5523 8.45672H24.4338L25.5874 7.22407H24.7821V4.31451H25.5493C25.5779 4.31522 25.6051 4.3269 25.6253 4.34711C25.6456 4.36732 25.6572 4.39453 25.6579 4.42311V8.45672H25.9668V4.42311C25.9668 4.31089 25.9222 4.20327 25.8429 4.12393C25.7635 4.04458 25.6559 4 25.5437 4" fill="#5DC4E9"/>
<path d="M22.7991 8.82907C22.7577 8.82968 22.7181 8.84583 22.688 8.8743C22.658 8.90278 22.6397 8.9415 22.6369 8.9828L22.5932 9.71619C22.5916 9.73563 22.5941 9.75519 22.6005 9.77363C22.6069 9.79206 22.617 9.80897 22.6303 9.82329C22.6436 9.83761 22.6596 9.84902 22.6775 9.8568C22.6954 9.86458 22.7147 9.86857 22.7342 9.8685H24.2546C24.2741 9.86857 24.2934 9.86458 24.3113 9.8568C24.3292 9.84902 24.3453 9.83761 24.3585 9.82329C24.3718 9.80897 24.3819 9.79206 24.3883 9.77363C24.3947 9.75519 24.3972 9.73563 24.3956 9.71619L24.3533 8.9828C24.3502 8.94138 24.3316 8.90264 24.3014 8.8742C24.2711 8.84575 24.2313 8.82966 24.1897 8.82907H22.7991ZM24.854 8.82907C24.8345 8.82901 24.8152 8.833 24.7973 8.84078C24.7794 8.84856 24.7633 8.85997 24.7501 8.87429C24.7368 8.8886 24.7267 8.90551 24.7203 8.92395C24.7139 8.94238 24.7114 8.96194 24.713 8.98139L24.7764 9.71619C24.7806 9.7576 24.7999 9.79602 24.8306 9.82412C24.8613 9.85222 24.9012 9.86802 24.9429 9.8685H26.4745C26.4933 9.86947 26.5121 9.86602 26.5294 9.85844C26.5467 9.85086 26.562 9.83936 26.574 9.82485C26.5861 9.81033 26.5946 9.79321 26.5988 9.77484C26.6031 9.75646 26.603 9.73735 26.5986 9.71901L26.4491 8.97998C26.439 8.93812 26.4155 8.90072 26.3821 8.87347C26.3487 8.84623 26.3074 8.83063 26.2644 8.82907H24.854ZM20.7245 8.82907C20.6816 8.8307 20.6405 8.84635 20.6074 8.87361C20.5742 8.90087 20.551 8.93823 20.5411 8.97998L20.3916 9.71901C20.387 9.73732 20.3867 9.75646 20.3908 9.77491C20.3949 9.79335 20.4032 9.81059 20.4151 9.82525C20.427 9.83991 20.4422 9.85158 20.4594 9.85933C20.4767 9.86709 20.4955 9.87071 20.5143 9.86992H22.053C22.0948 9.86908 22.1348 9.85298 22.1654 9.82465C22.1961 9.79632 22.2153 9.75773 22.2195 9.71619L22.2829 8.98139C22.2845 8.96194 22.282 8.94238 22.2756 8.92395C22.2692 8.90551 22.2591 8.8886 22.2458 8.87429C22.2326 8.85997 22.2165 8.84856 22.1986 8.84078C22.1807 8.833 22.1614 8.82901 22.1419 8.82907H20.7245ZM20.4734 10.1872C20.4243 10.1888 20.3771 10.2064 20.3391 10.2376C20.3011 10.2687 20.2745 10.3115 20.2633 10.3593L20.0701 11.3169C20.0656 11.3378 20.0659 11.3593 20.0709 11.38C20.076 11.4007 20.0857 11.42 20.0992 11.4364C20.1128 11.4529 20.1299 11.466 20.1493 11.4749C20.1687 11.4837 20.1898 11.4881 20.2111 11.4876H21.8937C21.9413 11.4868 21.987 11.4686 22.0221 11.4363C22.0572 11.4041 22.0792 11.3601 22.0841 11.3127L22.1645 10.3621C22.1669 10.3398 22.1645 10.3172 22.1575 10.2958C22.1504 10.2744 22.1389 10.2548 22.1237 10.2383C22.1085 10.2217 22.0899 10.2086 22.0692 10.1998C22.0485 10.191 22.0262 10.1867 22.0037 10.1872H20.4734ZM22.7413 10.1872C22.6942 10.1878 22.649 10.2062 22.6147 10.2386C22.5805 10.271 22.5597 10.3151 22.5565 10.3621L22.5001 11.3127C22.4986 11.3352 22.5017 11.3579 22.5093 11.3791C22.5169 11.4004 22.5288 11.4198 22.5443 11.4363C22.5598 11.4527 22.5786 11.4657 22.5994 11.4746C22.6202 11.4834 22.6425 11.4878 22.6651 11.4876H24.3322C24.3548 11.4878 24.3772 11.4834 24.3979 11.4746C24.4187 11.4657 24.4375 11.4527 24.453 11.4363C24.4685 11.4198 24.4804 11.4004 24.488 11.3791C24.4956 11.3579 24.4987 11.3352 24.4972 11.3127L24.4422 10.3621C24.4383 10.3151 24.4172 10.2712 24.3828 10.2388C24.3484 10.2065 24.3032 10.1881 24.256 10.1872H22.7413ZM24.9979 10.1872C24.9755 10.1869 24.9533 10.1913 24.9328 10.2002C24.9123 10.2091 24.8939 10.2223 24.8788 10.2388C24.8637 10.2553 24.8523 10.2749 24.8454 10.2961C24.8384 10.3174 24.8361 10.3399 24.8385 10.3621L24.9203 11.3127C24.9248 11.3602 24.9468 11.4044 24.9819 11.4367C25.0171 11.469 25.063 11.4871 25.1107 11.4876H26.7876C26.8089 11.4881 26.83 11.4837 26.8494 11.4749C26.8688 11.466 26.8859 11.4529 26.8995 11.4364C26.913 11.42 26.9227 11.4007 26.9278 11.38C26.9328 11.3593 26.9331 11.3378 26.9286 11.3169L26.7354 10.3593C26.7238 10.3117 26.697 10.2692 26.6591 10.2381C26.6212 10.2071 26.5742 10.1892 26.5253 10.1872H24.9979ZM20.1843 11.8627C20.1231 11.8653 20.0644 11.8878 20.017 11.9267C19.9697 11.9657 19.9363 12.0189 19.922 12.0785L19.6766 13.2731C19.67 13.2994 19.6696 13.3268 19.6754 13.3532C19.6813 13.3797 19.6933 13.4044 19.7104 13.4254C19.7276 13.4463 19.7494 13.463 19.7741 13.474C19.7989 13.4851 19.8258 13.4902 19.8529 13.4889H21.6779C21.737 13.4879 21.7938 13.4655 21.8376 13.4258C21.8815 13.3861 21.9094 13.3318 21.9162 13.2731L22.0178 12.0842C22.021 12.0561 22.0182 12.0277 22.0095 12.0008C22.0009 11.9739 21.9866 11.9491 21.9677 11.9282C21.9487 11.9072 21.9255 11.8906 21.8996 11.8793C21.8738 11.868 21.8458 11.8624 21.8175 11.8627H20.1843ZM22.6919 11.8627C22.6329 11.8636 22.5763 11.8865 22.5332 11.927C22.4902 11.9674 22.4638 12.0225 22.4592 12.0814L22.3859 13.2731C22.3839 13.3012 22.3878 13.3295 22.3973 13.356C22.4068 13.3826 22.4217 13.4069 22.441 13.4274C22.4604 13.448 22.4837 13.4643 22.5097 13.4753C22.5356 13.4864 22.5636 13.492 22.5918 13.4917H24.4055C24.4337 13.492 24.4617 13.4864 24.4876 13.4753C24.5136 13.4643 24.5369 13.448 24.5563 13.4274C24.5756 13.4069 24.5905 13.3826 24.6 13.356C24.6095 13.3295 24.6134 13.3012 24.6114 13.2731L24.5423 12.0842C24.5384 12.0248 24.5123 11.969 24.4692 11.928C24.4261 11.887 24.3691 11.8637 24.3096 11.8627H22.6919ZM25.184 11.8627C25.1557 11.8618 25.1275 11.8669 25.1013 11.8778C25.0751 11.8886 25.0515 11.9049 25.0322 11.9256C25.0128 11.9463 24.9981 11.9709 24.989 11.9978C24.9799 12.0247 24.9767 12.0531 24.9795 12.0814L25.0811 13.2703C25.0876 13.3294 25.1153 13.3842 25.1591 13.4244C25.203 13.4646 25.2599 13.4875 25.3194 13.4889H27.1416C27.1687 13.4902 27.1956 13.4851 27.2204 13.474C27.2451 13.463 27.2669 13.4463 27.284 13.4254C27.3012 13.4044 27.3132 13.3797 27.319 13.3532C27.3249 13.3268 27.3245 13.2994 27.3179 13.2731L27.0767 12.0785C27.0623 12.0187 27.0287 11.9653 26.9811 11.9263C26.9335 11.8874 26.8745 11.865 26.813 11.8627H25.184ZM19.812 13.9303C19.7387 13.9327 19.6681 13.9591 19.6113 14.0055C19.5545 14.0518 19.5145 14.1156 19.4975 14.187L19.1928 15.7031C19.1846 15.7345 19.1838 15.7674 19.1907 15.7991C19.1975 15.8308 19.2118 15.8605 19.2323 15.8856C19.2528 15.9108 19.2789 15.9308 19.3086 15.9439C19.3382 15.957 19.3706 15.963 19.403 15.9612H21.4268C21.4978 15.9595 21.5656 15.9319 21.6176 15.8835C21.6696 15.8352 21.702 15.7695 21.7089 15.6989L21.8387 14.1912C21.8421 14.1578 21.8383 14.124 21.8277 14.0922C21.817 14.0603 21.7997 14.0311 21.7769 14.0064C21.7541 13.9817 21.7263 13.9622 21.6954 13.949C21.6645 13.9359 21.6311 13.9296 21.5975 13.9303H19.812ZM22.6144 13.9303C22.5428 13.9302 22.4739 13.9571 22.4216 14.0058C22.3692 14.0545 22.3373 14.1213 22.3323 14.1927L22.2434 15.6989C22.2411 15.7328 22.2458 15.7668 22.2573 15.7987C22.2687 15.8307 22.2867 15.8599 22.31 15.8845C22.3333 15.9092 22.3615 15.9287 22.3928 15.9419C22.4241 15.9551 22.4577 15.9617 22.4917 15.9612H24.5056C24.5396 15.9617 24.5732 15.9551 24.6045 15.9419C24.6358 15.9287 24.664 15.9092 24.6873 15.8845C24.7106 15.8599 24.7286 15.8307 24.74 15.7987C24.7515 15.7668 24.7562 15.7328 24.7539 15.6989L24.665 14.1927C24.66 14.1213 24.6281 14.0545 24.5757 14.0058C24.5234 13.9571 24.4545 13.9302 24.3829 13.9303H22.6144ZM25.4055 13.9303C25.3719 13.9296 25.3385 13.9359 25.3075 13.949C25.2766 13.9622 25.2488 13.9817 25.226 14.0064C25.2032 14.0311 25.1859 14.0603 25.1753 14.0922C25.1646 14.124 25.1609 14.1578 25.1643 14.1912L25.294 15.6989C25.3012 15.7694 25.3338 15.8349 25.3857 15.8832C25.4376 15.9315 25.5053 15.9592 25.5761 15.9612H27.6C27.6324 15.963 27.6647 15.957 27.6944 15.9439C27.724 15.9308 27.7502 15.9108 27.7707 15.8856C27.7912 15.8605 27.8054 15.8308 27.8123 15.7991C27.8191 15.7674 27.8184 15.7345 27.8101 15.7031L27.5041 14.187C27.4869 14.1158 27.4468 14.0521 27.39 14.0057C27.3332 13.9594 27.2628 13.9329 27.1896 13.9303H25.4055Z" fill="#1F3A6A"/>
</svg>
