<!-- Generated by IcoMoon.io -->
<svg version="1.1" xmlns="http://www.w3.org/2000/svg" width="47" height="32" viewBox="0 0 47 32">
<title>googlepay-oldlogo</title>
<path fill="#fff" d="M0 4c0-2.209 1.792-4 4.003-4h38.696c2.211 0 4.003 1.791 4.003 4v24c0 2.209-1.792 4-4.003 4h-38.696c-2.211 0-4.003-1.791-4.003-4v-24z"></path>
<path fill="#5f6368" d="M22.695 16.56v4.298h-1.387v-10.63h3.605c0.878 0 1.71 0.324 2.357 0.924 0.647 0.555 0.971 1.387 0.971 2.265s-0.324 1.664-0.971 2.265c-0.647 0.601-1.433 0.924-2.357 0.924l-2.218-0.046zM22.695 11.522v3.697h2.311c0.508 0 1.017-0.185 1.34-0.555 0.739-0.693 0.739-1.849 0.046-2.542l-0.046-0.046c-0.37-0.37-0.832-0.601-1.34-0.555h-2.311z"></path>
<path fill="#5f6368" d="M31.43 13.371c1.017 0 1.802 0.277 2.403 0.832s0.878 1.294 0.878 2.218v4.437h-1.294v-1.017h-0.046c-0.555 0.832-1.34 1.248-2.265 1.248-0.786 0-1.479-0.231-2.034-0.693-0.508-0.462-0.832-1.109-0.832-1.802 0-0.739 0.277-1.34 0.832-1.802s1.34-0.647 2.265-0.647c0.832 0 1.479 0.139 1.987 0.462v-0.324c0-0.462-0.185-0.924-0.555-1.202-0.37-0.324-0.832-0.508-1.34-0.508-0.786 0-1.387 0.324-1.802 0.971l-1.202-0.739c0.739-0.971 1.71-1.433 3.004-1.433zM29.674 18.64c0 0.37 0.185 0.693 0.462 0.878 0.324 0.231 0.693 0.37 1.063 0.37 0.555 0 1.109-0.231 1.525-0.647 0.462-0.416 0.693-0.924 0.693-1.479-0.416-0.324-1.017-0.508-1.802-0.508-0.555 0-1.017 0.139-1.387 0.416-0.37 0.231-0.555 0.555-0.555 0.971z"></path>
<path fill="#5f6368" d="M42.199 13.602l-4.576 10.491h-1.387l1.71-3.651-3.004-6.794h1.479l2.172 5.223h0.046l2.126-5.223h1.433v-0.046z"></path>
<path fill="#4285f4" d="M17.195 15.636c0-0.416-0.046-0.832-0.092-1.248h-5.777v2.357h3.281c-0.139 0.739-0.555 1.433-1.202 1.849v1.525h1.987c1.155-1.063 1.802-2.634 1.802-4.483z"></path>
<path fill="#34a853" d="M11.325 21.598c1.664 0 3.050-0.555 4.067-1.479l-1.987-1.525c-0.555 0.37-1.248 0.601-2.080 0.601-1.571 0-2.958-1.063-3.42-2.542h-2.034v1.571c1.063 2.080 3.143 3.374 5.454 3.374z"></path>
<path fill="#fbbc04" d="M7.905 16.653c-0.277-0.739-0.277-1.571 0-2.357v-1.571h-2.034c-0.878 1.71-0.878 3.744 0 5.5l2.034-1.571z"></path>
<path fill="#ea4335" d="M11.26 11.8c0.878 0 1.71 0.324 2.357 0.924v0l1.756-1.756c-1.109-1.017-2.588-1.618-4.067-1.571-2.311 0-4.437 1.294-5.454 3.374l2.034 1.571c0.416-1.479 1.802-2.542 3.374-2.542z"></path>
</svg>
