<svg viewBox="0 0 47 32" fill="none" xmlns="http://www.w3.org/2000/svg">
<g clip-path="url(#clip0_19_123)">
<path d="M0 4C0 1.791 1.80343 0 4.02854 0H42.9715C45.1966 0 47 1.791 47 4V28C47 30.209 45.1966 32 42.9715 32H4.02854C1.80343 32 0 30.209 0 28V4Z" fill="white"/>
<path d="M32.1327 10.53C30.0515 9.336 27.3907 10.046 26.189 12.113L23.1578 17.331C22.2803 18.838 23.4094 19.364 24.6694 20.114L27.5859 21.787C28.5732 22.353 29.8352 22.017 30.4048 21.037L33.5205 15.675C34.5672 13.873 33.9462 11.57 32.1327 10.53Z" fill="#EA4335"/>
<path d="M28.7009 12.69L25.7844 11.017C24.1742 10.129 23.2624 10.07 22.6012 11.114L18.3 18.517C17.0983 20.583 17.8139 23.226 19.8931 24.417C21.7066 25.457 24.0243 24.84 25.0709 23.038L29.4547 15.492C30.0273 14.511 29.6892 13.256 28.7009 12.69Z" fill="#FBBC04"/>
<path d="M29.2625 8.88403L27.2135 7.70803C24.9471 6.40803 22.0498 7.17903 20.7425 9.43103L16.8418 16.144C16.2661 17.134 16.6073 18.402 17.6046 18.973L19.8991 20.289C21.0323 20.939 22.4805 20.553 23.1347 19.428L27.5909 11.759C28.5148 10.171 30.5577 9.62603 32.1569 10.544L29.2625 8.88403Z" fill="#34A853"/>
<path d="M21.2981 11.352L19.083 10.084C18.0958 9.51897 16.8338 9.85397 16.2642 10.833L13.6073 15.395C12.299 17.64 13.0749 20.513 15.3413 21.809L19.9596 24.452C18.3846 23.404 17.8834 21.304 18.8475 19.651L22.0549 14.145C22.6235 13.169 22.2853 11.918 21.2991 11.353L21.2981 11.352Z" fill="#4285F4"/>
</g>
<defs>
<clipPath id="clip0_19_123">
<rect width="47" height="32" fill="white"/>
</clipPath>
</defs>
</svg>
