<!-- Generated by IcoMoon.io -->
<svg version="1.1" xmlns="http://www.w3.org/2000/svg" width="47" height="32" viewBox="0 0 47 32">
<title>googlepay</title>
<path fill="#fff" d="M0 4c0-2.209 1.792-4 4.003-4h38.696c2.211 0 4.003 1.791 4.003 4v24c0 2.209-1.792 4-4.003 4h-38.696c-2.211 0-4.003-1.791-4.003-4v-24z"></path>
<path fill="#ea4335" d="M31.929 10.53c-2.068-1.194-4.712-0.484-5.906 1.583l-3.012 5.218c-0.872 1.507 0.25 2.033 1.502 2.783l2.898 1.673c0.981 0.566 2.235 0.23 2.801-0.75l3.096-5.362c1.040-1.802 0.423-4.105-1.379-5.145z"></path>
<path fill="#fbbc04" d="M28.519 12.69l-2.898-1.673c-1.6-0.888-2.506-0.947-3.163 0.097l-4.274 7.403c-1.194 2.066-0.483 4.709 1.583 5.9 1.802 1.040 4.105 0.423 5.145-1.379l4.356-7.546c0.569-0.981 0.233-2.236-0.749-2.802z"></path>
<path fill="#34a853" d="M29.077 8.884l-2.036-1.176c-2.252-1.3-5.131-0.529-6.43 1.723l-3.876 6.713c-0.572 0.99-0.233 2.258 0.758 2.829l2.28 1.316c1.126 0.65 2.565 0.264 3.215-0.861l4.428-7.669c0.918-1.588 2.948-2.133 4.537-1.215l-2.875-1.66z"></path>
<path fill="#4285f4" d="M21.163 11.352l-2.201-1.268c-0.981-0.565-2.235-0.23-2.801 0.749l-2.64 4.562c-1.3 2.245-0.529 5.118 1.723 6.414l4.589 2.643c-1.565-1.048-2.063-3.148-1.105-4.801l3.187-5.506c0.565-0.976 0.229-2.227-0.751-2.792z"></path>
</svg>
