<svg width="47" height="32" viewBox="0 0 47 32" fill="none" xmlns="http://www.w3.org/2000/svg">
<path d="M0 4C0 1.791 1.792 0 4.003 0H42.699C44.91 0 46.702 1.791 46.702 4V28C46.702 30.209 44.91 32 42.699 32H4.003C1.792 32 0 30.209 0 28V4Z" fill="white"/>
<path fill-rule="evenodd" clip-rule="evenodd" d="M13 7H24.072C31.5956 7 34.4868 11.1117 34.4868 16.3089C34.4868 22.5258 30.4457 25.6507 24.072 25.6507H13V7ZM14.0512 8.11844V24.5981H24.0718C30.1171 24.5981 33.4025 21.7693 33.4025 16.3418C33.4025 10.7499 29.8542 8.11844 24.0718 8.11844H14.0512ZM17.0083 16.6379C18.1151 16.6379 19.0124 15.7395 19.0124 14.6314C19.0124 13.5232 18.1151 12.6248 17.0083 12.6248C15.9014 12.6248 15.0041 13.5232 15.0041 14.6314C15.0041 15.7395 15.9014 16.6379 17.0083 16.6379ZM15.3984 17.4931H18.6182V23.2165H15.3984V17.4931Z" fill="black"/>
<path fill-rule="evenodd" clip-rule="evenodd" d="M29.7558 12.7893H30.6758V15.5523H32.0228C31.6614 10.5196 27.686 9.40121 24.072 9.40121H20.228V12.7893H20.7866C21.8379 12.7893 22.4622 13.48 22.4622 14.6313C22.4622 15.7826 21.8379 16.4733 20.8194 16.4733H20.228V23.2165H24.072C29.953 23.2165 31.9571 20.4863 32.0557 16.4733H29.7558V12.7893ZM25.3205 15.5523V16.4734H23.0207V12.7893H25.2548V13.7103H23.9406V14.1379H25.1891V15.0589H23.9734V15.5523H25.3205ZM25.7146 16.4734L26.8317 12.7893H28.1459L29.2629 16.4734H28.3101L28.113 15.7826H26.8974L26.7003 16.4734H25.7146ZM27.1705 14.8286H27.1602V14.8615L27.1705 14.8286ZM27.1705 14.8286H27.8173L27.5216 13.8089H27.4887L27.1705 14.8286ZM20.228 15.5523V13.7102H20.7866C21.148 13.7102 21.5422 13.8089 21.5422 14.6312C21.5422 15.4536 21.1808 15.5523 20.7866 15.5523H20.228Z" fill="#D50072"/>
</svg>
