<svg width="47" height="32" viewBox="0 0 47 32" fill="none" xmlns="http://www.w3.org/2000/svg">
<path d="M0 4C0 1.791 1.80343 0 4.02854 0H42.9715C45.1966 0 47 1.791 47 4V28C47 30.209 45.1966 32 42.9715 32H4.02854C1.80343 32 0 30.209 0 28V4Z" fill="#FDB913"/>
<path d="M25.4099 14.3633L25.4072 8.5357L26.9284 8.1747V8.93865C26.9284 8.93865 27.3224 7.93397 28.2368 7.70078C28.3734 7.65678 28.5187 7.64702 28.6599 7.67236V9.15927C28.386 9.16285 28.1154 9.21917 27.8629 9.32517C27.3008 9.54715 27.0179 10.0315 27.0179 10.7709L27.0189 13.9887L25.4099 14.3633Z" fill="#231F20"/>
<path d="M17.3912 16.2583C17.3912 16.2583 17.1439 15.8875 17.1439 14.5763V11.6746L16.3612 11.8608V10.6655L17.1457 10.4802V9.17721L18.7631 8.79514V10.0982L19.906 9.82669V11.0207L18.7631 11.292C18.7631 11.292 18.7613 13.6693 18.7631 14.2466C18.7631 15.5901 19.1196 15.848 19.1196 15.848L17.3912 16.2583Z" fill="#231F20"/>
<path d="M20.0751 12.7914C20.0751 11.7554 20.2226 10.9995 20.5393 10.4195C20.9162 9.73112 21.5341 9.28254 22.4344 9.07758C24.2088 8.67404 24.8492 9.72436 24.8245 11.1328C24.815 11.6365 24.8173 11.8818 24.8173 11.8818L21.6911 12.6166V12.6671C21.6911 13.651 21.8975 14.118 22.521 13.9857C23.0597 13.8721 23.2096 13.5346 23.2521 13.1174C23.2591 13.0501 23.2624 12.879 23.2624 12.879L24.7268 12.528C24.7268 12.528 24.7303 12.6479 24.7282 12.7825C24.7154 13.3417 24.5528 14.7288 22.5174 15.2101C20.5892 15.6678 20.0751 14.4902 20.0751 12.7914ZM22.4994 10.1631C21.9814 10.2806 21.7097 10.7888 21.6979 11.6307L23.2705 11.2561C23.2732 11.218 23.2736 11.1341 23.2732 11.0026C23.2705 10.3671 23.074 10.0316 22.4994 10.1631Z" fill="#231F20"/>
<path d="M34.1344 9.38354C34.0738 7.60871 34.5342 6.20011 36.5144 5.75152C37.7764 5.46477 38.2558 5.79309 38.4984 6.11039C38.7318 6.41319 38.8219 6.82156 38.8219 7.39351L38.8233 7.4985L37.2741 7.86665C37.2741 7.86665 37.2729 7.65783 37.2729 7.65106C37.2741 6.97276 37.0856 6.71483 36.5929 6.83819C36.007 6.98533 35.7704 7.54143 35.7704 8.64704C35.7704 9.03955 35.7721 9.10994 35.7721 9.16292C35.7721 10.2865 35.9256 10.8008 36.6008 10.6595C37.1865 10.5385 37.2667 10.0241 37.2762 9.57322C37.2774 9.50245 37.2803 9.27584 37.2803 9.27584L38.8271 8.91039C38.8271 8.91039 38.8287 9.02467 38.8287 9.1517C38.8248 10.6251 38.0483 11.5536 36.5935 11.8921C34.5891 12.362 34.1966 11.2038 34.1344 9.38354Z" fill="#231F20"/>
<path d="M28.7791 11.8683C28.7791 10.5183 29.5699 10.0914 30.7602 9.59888C31.8306 9.15609 31.8538 8.93624 31.8583 8.55146C31.8643 8.22759 31.714 7.95051 31.1811 8.08644C31.0034 8.12224 30.843 8.21702 30.7259 8.3554C30.6089 8.49379 30.542 8.66767 30.5361 8.84884C30.5274 8.9483 30.524 9.04815 30.526 9.14797L29.0252 9.50239C29.0151 9.20329 29.05 8.90437 29.1288 8.61566C29.3688 7.80839 30.0807 7.26525 31.3097 6.98082C32.9064 6.61287 33.4388 7.31359 33.4407 8.40354V10.9847C33.4407 12.233 33.6723 12.4159 33.6723 12.4159L32.199 12.7645C32.1177 12.5943 32.0516 12.4172 32.0015 12.2353C32.0015 12.2353 31.6788 13.0482 30.5663 13.3096C29.3978 13.5851 28.7791 12.861 28.7791 11.8683ZM31.848 10.0248C31.5997 10.199 31.3375 10.3525 31.0641 10.4839C30.573 10.7238 30.351 11.0199 30.351 11.4758C30.351 11.8706 30.5956 12.1299 31.0402 12.0201C31.517 11.8998 31.848 11.4549 31.848 10.8367V10.0248Z" fill="#231F20"/>
<path d="M8.93411 20.3434C8.76595 20.3432 8.60096 20.2976 8.4565 20.2116C8.31205 20.1255 8.19347 20.002 8.11326 19.8542C8.03305 19.7064 7.99417 19.5397 8.00071 19.3717C8.00725 19.2037 8.05897 19.0405 8.15043 18.8994L8.16087 18.8859L8.17847 18.8812L10.3785 18.3619V20.0327L10.3443 20.0406C9.84521 20.1607 9.2487 20.2974 9.12592 20.3235C9.06286 20.3368 8.99857 20.3435 8.93411 20.3434Z" fill="#231F20"/>
<path d="M8.93411 22.4808C8.68655 22.4809 8.4491 22.3826 8.27394 22.2077C8.09878 22.0327 8.00025 21.7954 8 21.5479C7.9995 21.3675 8.05179 21.1909 8.15044 21.0399L8.16088 21.0243L8.17847 21.0198L10.3785 20.5006V22.1714L10.3443 22.1803C9.84521 22.3 9.2487 22.4383 9.12592 22.4628C9.06272 22.475 8.99848 22.4811 8.93411 22.4808Z" fill="#231F20"/>
<path d="M8.93411 24.6223C8.68649 24.6221 8.44904 24.5237 8.2739 24.3487C8.09876 24.1736 8.00026 23.9362 8.00001 23.6886C7.99931 23.5082 8.05162 23.3315 8.15044 23.1806L8.16088 23.1638L10.3785 22.6411V24.3119L10.3443 24.3208C9.81717 24.4477 9.23188 24.5799 9.12592 24.6033C9.06277 24.616 8.99852 24.6223 8.93411 24.6223Z" fill="#231F20"/>
<path d="M8.67453 18.2961L8.67395 8.9475L10.3784 8.54474V17.8932L8.67453 18.2961Z" fill="#231F20"/>
<path d="M12.9198 17.5008C12.9198 17.2219 12.809 16.9544 12.6118 16.7572C12.4146 16.56 12.1471 16.4492 11.8682 16.4492C11.5893 16.4492 11.3219 16.56 11.1246 16.7572C10.9274 16.9544 10.8167 17.2219 10.8167 17.5008L10.8184 26.2384C10.8193 26.9929 11.1194 27.7163 11.6527 28.25C12.1861 28.7838 12.9093 29.0843 13.6638 29.0857C14.4599 29.0857 16.6406 29.0819 16.6406 29.0819L16.6415 25.4367C16.6421 23.4451 16.6425 21.418 16.6425 21.3718C16.6428 21.1452 16.5871 20.922 16.4804 20.7221C16.3737 20.5222 16.2193 20.3517 16.0309 20.2257L13.3779 18.4238C13.3779 18.4238 13.3773 22.3358 13.3773 22.5157C13.3773 22.5757 13.3534 22.6332 13.311 22.6756C13.2686 22.7181 13.211 22.7419 13.151 22.7419C13.091 22.7419 13.0335 22.7181 12.9911 22.6756C12.9487 22.6332 12.9248 22.5757 12.9248 22.5157C12.9248 22.4718 12.9198 18.0412 12.9198 17.5008Z" fill="#231F20"/>
<path d="M14.3401 10.9816C14.0177 11.0564 13.7153 11.2 13.4534 11.4024C13.1916 11.6048 12.9766 11.8614 12.823 12.1545V11.4975L11.2883 11.8606L11.2901 16.0565C11.5593 15.95 11.8527 15.92 12.1378 15.9699C12.423 16.0197 12.6888 16.1475 12.906 16.339V13.6298C12.906 12.9809 13.2289 12.4625 13.6902 12.3608C14.0373 12.2846 14.3271 12.4088 14.3271 13.0269L14.3283 16.9795L15.9447 16.6006V12.4192C15.9447 11.4055 15.5544 10.6968 14.3401 10.9816Z" fill="#231F20"/>
<path d="M37.8262 4.99835C37.6285 4.99852 37.4353 4.94005 37.2708 4.83035C37.1064 4.72064 36.9782 4.56462 36.9024 4.38203C36.8267 4.19944 36.8068 3.99849 36.8453 3.8046C36.8838 3.61071 36.9789 3.43259 37.1187 3.29279C37.2584 3.15298 37.4365 3.05777 37.6304 3.0192C37.8243 2.98063 38.0252 3.00044 38.2078 3.07611C38.3905 3.15179 38.5465 3.27993 38.6563 3.44433C38.7661 3.60872 38.8246 3.80198 38.8245 3.99966C38.8243 4.26438 38.719 4.51819 38.5319 4.70542C38.3447 4.89264 38.0909 4.99799 37.8262 4.99835ZM37.8262 3.12569C37.6534 3.12565 37.4845 3.17686 37.3407 3.27284C37.197 3.36882 37.085 3.50526 37.0188 3.66491C36.9527 3.82455 36.9353 4.00024 36.969 4.16974C37.0027 4.33925 37.0859 4.49496 37.208 4.61718C37.3302 4.73941 37.4859 4.82266 37.6554 4.85642C37.8249 4.89017 38.0005 4.8729 38.1602 4.80681C38.3199 4.74071 38.4564 4.62874 38.5524 4.48507C38.6485 4.3414 38.6998 4.17248 38.6998 3.99966C38.6996 3.76799 38.6075 3.54586 38.4438 3.38201C38.28 3.21816 38.0579 3.12598 37.8262 3.12569Z" fill="#231F20"/>
<path d="M37.4625 3.40425H37.8931C37.9352 3.39974 37.9778 3.40478 38.0177 3.419C38.0575 3.43321 38.0937 3.45624 38.1235 3.48636C38.1532 3.51648 38.1758 3.55292 38.1895 3.59297C38.2032 3.63302 38.2077 3.67565 38.2027 3.71768C38.2027 3.87585 38.1325 3.99747 37.9995 4.01816V4.02048C38.1205 4.03285 38.1841 4.09956 38.1903 4.27107C38.1926 4.34841 38.1938 4.44432 38.1975 4.51895C38.1975 4.53995 38.2028 4.5606 38.2129 4.57901C38.223 4.59742 38.2376 4.613 38.2553 4.62433H38.0352C38.0143 4.59208 38.0029 4.55453 38.0024 4.51605C37.9956 4.44316 37.9974 4.37432 37.9941 4.28576C37.9908 4.15273 37.95 4.09453 37.8164 4.09453H37.657V4.62433H37.4625V3.40425ZM37.8129 3.94758C37.8393 3.95001 37.866 3.94653 37.8909 3.9374C37.9159 3.92827 37.9385 3.91372 37.9571 3.8948C37.9757 3.87587 37.9899 3.85304 37.9986 3.82797C38.0074 3.80289 38.0104 3.77618 38.0076 3.74978C38.0076 3.61965 37.9513 3.5512 37.8231 3.5512H37.657V3.94758H37.8129Z" fill="#231F20"/>
</svg>
