<svg width="47" height="32" viewBox="0 0 47 32" fill="none" xmlns="http://www.w3.org/2000/svg">
<path d="M0 4C0 1.791 1.792 0 4.003 0H42.699C44.91 0 46.702 1.791 46.702 4V28C46.702 30.209 44.91 32 42.699 32H4.003C1.792 32 0 30.209 0 28V4Z" fill="white"/>
<path d="M31.1217 16.4453C31.9176 16.4626 32.7179 16.4101 33.5106 16.4725C34.3133 16.6223 34.5068 17.8375 33.7936 18.2355C33.307 18.4977 32.7289 18.3332 32.2014 18.3795H31.1217V16.4453V16.4453ZM33.9708 14.2561C34.1476 14.8802 33.5459 15.4405 32.9448 15.3546H31.1217C31.1345 14.766 31.0967 14.1272 31.1402 13.5696C31.8706 13.5902 32.6077 13.5277 33.3338 13.6023C33.6458 13.6807 33.9069 13.9372 33.9708 14.2561V14.2561ZM38.3584 5.00068C38.3923 6.19258 38.3633 7.44747 38.373 8.66354C38.3708 13.6077 38.3778 18.5516 38.3691 23.496C38.3371 25.3489 36.695 26.959 34.8549 26.996C33.013 27.0034 31.1709 26.9971 29.3287 26.9992V19.5247C31.3358 19.5143 33.3439 19.5457 35.3502 19.509C36.2809 19.4506 37.3004 18.8365 37.3437 17.8123C37.4533 16.7836 36.4835 16.0721 35.5627 15.9598C35.2088 15.9506 35.2191 15.8566 35.5627 15.8156C36.4409 15.6258 37.1305 14.7169 36.8721 13.8066C36.652 12.8492 35.5938 12.4786 34.7136 12.4805C32.9189 12.4683 31.1239 12.4788 29.3291 12.4752C29.3407 11.0798 29.3049 9.68293 29.3484 8.28856C29.4906 6.46908 31.1741 4.96861 32.9883 5.00116C34.7785 5.00089 36.5685 5.00089 38.3584 5.00082V5.00068Z" fill="url(#paint0_linear_11_624)"/>
<path d="M9.04774 8.47695C9.09357 6.62696 10.7427 5.03012 12.5804 5.00308C14.4155 4.99743 16.2509 5.00226 18.0859 5.00063C18.0809 11.1903 18.0959 17.3806 18.0784 23.57C18.0077 25.3975 16.3765 26.9639 14.5588 26.9962C12.7203 27.0029 10.8815 26.9972 9.0429 26.999V19.2726C10.8288 19.6945 12.7016 19.8741 14.5235 19.5942C15.6126 19.419 16.8041 18.8842 17.1729 17.7543C17.4442 16.7879 17.2914 15.7707 17.3318 14.7788V12.4752H14.1788C14.1646 13.9987 14.2078 15.5249 14.156 17.0467C14.071 17.982 13.1447 18.5763 12.2625 18.5445C11.1685 18.5561 9.00054 17.7517 9.00054 17.7517C8.99509 14.8972 9.03228 11.3223 9.04774 8.47722V8.47695Z" fill="url(#paint1_linear_11_624)"/>
<path d="M19.2618 13.4044C19.0958 13.4396 19.2284 12.8391 19.186 12.6113C19.1973 11.1709 19.1623 9.7289 19.2052 8.28952C19.347 6.46234 21.0434 4.95812 22.865 5.00089H28.2294C28.2244 11.1906 28.2393 17.3809 28.2218 23.5702C28.1511 25.3977 26.5198 26.9641 24.702 26.9965C22.8634 27.0034 21.0246 26.9976 19.1859 26.9994V18.534C20.4417 19.5643 22.1484 19.7247 23.7129 19.7275C24.8923 19.7271 26.0649 19.5453 27.2102 19.2733V17.7224C25.9195 18.3657 24.4021 18.7743 22.9712 18.4047C21.9731 18.1563 21.2486 17.1916 21.2647 16.1616C21.1491 15.0904 21.777 13.9594 22.8297 13.641C24.1366 13.2318 25.5611 13.5447 26.7862 14.0767C27.0487 14.2141 27.3151 14.3846 27.2102 13.9459V12.7269C25.1612 12.2394 22.9806 12.06 20.9221 12.5903C20.3263 12.7584 19.7458 13.0133 19.2618 13.4046V13.4044Z" fill="url(#paint2_linear_11_624)"/>
<defs>
<linearGradient id="paint0_linear_11_624" x1="29.267" y1="15.5296" x2="38.316" y2="15.5296" gradientUnits="userSpaceOnUse">
<stop stop-color="#58B03A"/>
<stop offset="1" stop-color="#55B330"/>
</linearGradient>
<linearGradient id="paint1_linear_11_624" x1="8.8505" y1="16.2105" x2="17.9377" y2="16.2105" gradientUnits="userSpaceOnUse">
<stop stop-color="#0F6EB6"/>
<stop offset="1" stop-color="#006DBA"/>
</linearGradient>
<linearGradient id="paint2_linear_11_624" x1="19.1726" y1="15.7429" x2="28.2277" y2="15.7429" gradientUnits="userSpaceOnUse">
<stop stop-color="#DE0D3D"/>
<stop offset="1" stop-color="#E30138"/>
</linearGradient>
</defs>
</svg>
