<svg width="47" height="32" viewBox="0 0 47 32" fill="none" xmlns="http://www.w3.org/2000/svg">
<path d="M0 4C0 1.791 1.792 0 4.003 0H42.699C44.91 0 46.702 1.791 46.702 4V28C46.702 30.209 44.91 32 42.699 32H4.003C1.792 32 0 30.209 0 28V4Z" fill="white"/>
<path d="M12.9227 6C10.7075 6 9 7.43065 9 9.92275V17.0298C9.1846 17.9067 10.1076 18.5528 11.1229 18.5528C12.2766 18.5528 13.1073 17.7221 13.1073 16.7068V13.1071H16.2455V16.6606C16.2455 18.6451 13.7073 19.6604 11.8613 19.6604C10.7998 19.6604 9.78455 19.3373 9.04615 18.7835V26.629H14.0303C15.784 26.629 17.8146 24.9676 17.8146 22.8447V6H12.9227Z" fill="#056EB9"/>
<path d="M30.3673 18.4605H32.5364C33.0902 18.4605 33.5978 17.9528 33.5978 17.399C33.5978 16.8452 33.0902 16.3376 32.5364 16.3376H30.3673V18.4605Z" fill="#56B234"/>
<path d="M32.8134 6C30.552 6 28.8906 7.43065 28.8906 9.8766V13.1071H34.7055C35.5362 13.1071 36.2285 13.7993 36.2285 14.63C36.2285 15.4607 35.5362 16.153 34.7055 16.153C35.6285 16.153 36.3669 16.7991 36.3669 17.6298C36.3669 18.4605 35.6747 19.1066 34.7055 19.1066H28.8445V26.629H33.8287C35.5824 26.629 37.613 24.9676 37.613 22.8447V6H32.8134Z" fill="#56B234"/>
<path d="M33.5517 14.8146C33.5517 14.2608 33.044 13.7532 32.4902 13.7532H30.3673V15.8299H32.5364C33.0902 15.8299 33.5517 15.3684 33.5517 14.8146Z" fill="#56B234"/>
<path d="M22.7988 6C20.5375 6 18.8761 7.43065 18.8761 9.8766V13.8455C19.4299 13.384 20.1221 13.0609 20.8605 13.0609H26.1216V14.1685C24.8756 13.8916 23.6757 13.7532 23.0757 13.7532C21.7835 13.7532 20.7221 14.8146 20.7221 16.1068C20.7221 17.399 21.7835 18.4605 23.0757 18.4605C23.6757 18.4605 24.8756 18.3682 26.1216 18.0913V19.1066H20.8605C20.1221 19.1066 19.3837 18.8297 18.8761 18.322V26.629H23.8603C25.614 26.629 27.6446 24.9676 27.6446 22.8447V6H22.7988Z" fill="#E30339"/>
</svg>
