<!-- Generated by IcoMoon.io -->
<svg version="1.1" xmlns="http://www.w3.org/2000/svg" width="47" height="32" viewBox="0 0 47 32">
<title>klarna</title>
<path fill="#feb4c7" d="M0 4c0-2.209 1.792-4 4.003-4h38.696c2.211 0 4.003 1.791 4.003 4v24c0 2.209-1.792 4-4.003 4h-38.696c-2.211 0-4.003-1.791-4.003-4v-24z"></path>
<path fill="#17120f" d="M11.983 12h-1.859c0 1.565-0.701 3.002-1.922 3.942l-0.737 0.567 2.854 3.998h2.346l-2.626-3.679c1.245-1.273 1.943-2.986 1.943-4.828zM15.013 20.504h-1.795v-8.502h1.795v8.502zM20.436 14.623v0.376c-0.484-0.339-1.069-0.539-1.699-0.539-1.668 0-3.021 1.389-3.021 3.103s1.352 3.103 3.021 3.103c0.63 0 1.215-0.199 1.699-0.539v0.376h1.714v-5.881h-1.714zM20.431 17.563c0 0.836-0.695 1.513-1.553 1.513s-1.553-0.678-1.553-1.513 0.695-1.513 1.553-1.513 1.553 0.677 1.553 1.513zM38.52 14.999v-0.376h1.714v5.881h-1.714v-0.376c-0.484 0.339-1.069 0.539-1.699 0.539-1.668 0-3.021-1.389-3.021-3.103s1.353-3.103 3.021-3.103c0.63 0 1.215 0.199 1.699 0.539zM36.961 19.076c0.858 0 1.553-0.678 1.553-1.513s-0.695-1.513-1.553-1.513-1.553 0.677-1.553 1.513 0.695 1.513 1.553 1.513zM40.977 19.523c0-0.61 0.482-1.105 1.076-1.105s1.076 0.495 1.076 1.105-0.482 1.105-1.076 1.105-1.076-0.495-1.076-1.105zM30.753 14.464c-0.685 0-1.333 0.218-1.766 0.821v-0.662h-1.707v5.881h1.728v-3.091c0-0.894 0.584-1.332 1.287-1.332 0.753 0 1.186 0.462 1.186 1.32v3.103h1.712v-3.74c0-1.369-1.059-2.3-2.44-2.3zM24.802 14.623v0.766c0.344-0.46 0.984-0.766 1.68-0.766v1.711h-0.004s-0.006-0-0.006-0l-0.004-0-0.007-0c-0.678 0-1.656 0.498-1.656 1.424v2.746h-1.759v-5.881h1.755zM7.238 20.506h-1.9v-8.506h1.9v8.506z"></path>
</svg>
