<svg width="47" height="32" viewBox="0 0 47 32" fill="none" xmlns="http://www.w3.org/2000/svg">
<path d="M0 4C0 1.791 1.80343 0 4.02854 0H42.9715C45.1966 0 47 1.791 47 4V28C47 30.209 45.1966 32 42.9715 32H4.02854C1.80343 32 0 30.209 0 28V4Z" fill="white"/>
<rect x="18.3665" y="7.46" width="10.2751" height="16.68" fill="#FF5F00"/>
<path d="M19.4734 15.8C19.4565 12.5535 20.9404 9.47905 23.499 7.46C19.1214 4.03929 12.8333 4.53602 9.05466 8.60101C5.27605 12.666 5.27605 18.934 9.05466 22.999C12.8333 27.064 19.1214 27.5607 23.499 24.14C20.9404 22.1209 19.4565 19.0465 19.4734 15.8Z" fill="#EB001B"/>
<path fill-rule="evenodd" clip-rule="evenodd" d="M39.742 22.03V22.37H39.6817V22.03H39.5408V21.96H39.893V22.03H39.742ZM40.4264 21.96V22.37H40.3559V22.06L40.2452 22.33H40.1647L40.0439 22.06V22.37H39.9735V21.96H40.0741L40.205 22.25L40.3257 21.96H40.4264Z" fill="#F69E1E"/>
<path d="M40.7685 15.8C40.7659 19.8593 38.4326 23.5614 34.7583 25.3358C31.084 27.1103 26.7129 26.646 23.499 24.14C28.1284 20.518 28.9301 13.8543 25.2904 9.25C24.7686 8.58327 24.1671 7.98218 23.499 7.46C26.7129 4.95399 31.084 4.48974 34.7583 6.26417C38.4326 8.0386 40.7659 11.7407 40.7685 15.8V15.8Z" fill="#F79E1B"/>
</svg>
