<svg width="47" height="32" viewBox="0 0 47 32" fill="none" xmlns="http://www.w3.org/2000/svg">
<path d="M0 4C0 1.791 1.792 0 4.003 0H42.699C44.91 0 46.702 1.791 46.702 4V28C46.702 30.209 44.91 32 42.699 32H4.003C1.792 32 0 30.209 0 28V4Z" fill="white"/>
<rect x="18.25" y="7.46" width="10.21" height="16.68" fill="#F26122"/>
<path d="M19.35 15.8C19.3331 12.5535 20.8077 9.47905 23.35 7.46C19.0002 4.03929 12.7519 4.53602 8.99726 8.60101C5.24261 12.666 5.24261 18.934 8.99726 22.999C12.7519 27.064 19.0002 27.5607 23.35 24.14C20.8077 22.1209 19.3331 19.0465 19.35 15.8Z" fill="#EA1D25"/>
<path fill-rule="evenodd" clip-rule="evenodd" d="M39.49 22.03V22.37H39.43V22.03H39.29V21.96H39.64V22.03H39.49ZM40.17 21.96V22.37H40.1V22.06L39.99 22.33H39.91L39.79 22.06V22.37H39.72V21.96H39.82L39.95 22.25L40.07 21.96H40.17Z" fill="#F69E1E"/>
<path d="M40.51 15.8C40.5074 19.8593 38.1888 23.5614 34.5378 25.3358C30.8869 27.1103 26.5434 26.646 23.35 24.14C27.95 20.518 28.7466 13.8543 25.13 9.25C24.6115 8.58327 24.0138 7.98218 23.35 7.46C26.5434 4.95399 30.8869 4.48974 34.5378 6.26417C38.1888 8.0386 40.5074 11.7407 40.51 15.8V15.8Z" fill="#F69E1E"/>
</svg>
