<!-- Generated by IcoMoon.io -->
<svg version="1.1" xmlns="http://www.w3.org/2000/svg" width="47" height="32" viewBox="0 0 47 32">
<title>paypal</title>
<path fill="#fff" d="M0 4c0-2.209 1.792-4 4.003-4h38.696c2.211 0 4.003 1.791 4.003 4v24c0 2.209-1.792 4-4.003 4h-38.696c-2.211 0-4.003-1.791-4.003-4v-24z"></path>
<path fill="#28356a" d="M20.074 24.598l0.303-1.932-0.675-0.016h-3.225l2.241-14.258c0.007-0.043 0.029-0.083 0.062-0.112s0.075-0.044 0.12-0.044h5.438c1.805 0 3.051 0.377 3.702 1.121 0.305 0.349 0.499 0.714 0.593 1.115 0.099 0.421 0.1 0.924 0.004 1.538l-0.007 0.045v0.393l0.305 0.173c0.257 0.137 0.461 0.293 0.617 0.472 0.261 0.299 0.43 0.678 0.501 1.127 0.074 0.462 0.049 1.013-0.071 1.636-0.139 0.717-0.364 1.341-0.668 1.851-0.279 0.471-0.635 0.861-1.058 1.163-0.404 0.287-0.883 0.506-1.425 0.645-0.525 0.137-1.124 0.206-1.781 0.206h-0.423c-0.303 0-0.596 0.109-0.827 0.305-0.231 0.2-0.384 0.473-0.431 0.772l-0.032 0.174-0.536 3.406-0.024 0.125c-0.006 0.040-0.018 0.059-0.034 0.073-0.014 0.012-0.035 0.020-0.056 0.020h-2.613z"></path>
<path fill="#298fc2" d="M29.224 12.1c-0.016 0.104-0.035 0.21-0.056 0.32-0.717 3.694-3.171 4.97-6.304 4.97h-1.596c-0.383 0-0.706 0.279-0.766 0.658l-1.048 6.671c-0.039 0.249 0.152 0.473 0.403 0.473h2.83c0.335 0 0.62-0.244 0.672-0.576l0.028-0.144 0.533-3.392 0.034-0.186c0.052-0.333 0.337-0.577 0.673-0.577h0.423c2.742 0 4.888-1.117 5.515-4.348 0.262-1.35 0.126-2.477-0.567-3.27-0.21-0.239-0.47-0.437-0.775-0.599z"></path>
<path fill="#22284f" d="M28.474 11.8c-0.11-0.032-0.223-0.061-0.339-0.087s-0.236-0.048-0.359-0.068c-0.43-0.070-0.902-0.103-1.407-0.103h-4.262c-0.105 0-0.205 0.024-0.294 0.067-0.197 0.095-0.343 0.281-0.378 0.51l-0.907 5.762-0.026 0.168c0.060-0.379 0.383-0.658 0.766-0.658h1.596c3.134 0 5.587-1.277 6.304-4.97 0.021-0.109 0.039-0.216 0.056-0.32-0.181-0.097-0.378-0.179-0.59-0.25-0.052-0.017-0.106-0.034-0.161-0.050z"></path>
<path fill="#28356a" d="M21.435 12.118c0.035-0.229 0.181-0.415 0.378-0.509 0.090-0.043 0.189-0.067 0.294-0.067h4.262c0.505 0 0.976 0.033 1.406 0.103 0.123 0.020 0.242 0.043 0.359 0.068s0.229 0.055 0.339 0.087c0.054 0.016 0.108 0.033 0.161 0.050 0.212 0.070 0.408 0.154 0.59 0.25 0.213-1.365-0.002-2.295-0.737-3.136-0.811-0.927-2.275-1.323-4.148-1.323h-5.438c-0.383 0-0.709 0.279-0.768 0.659l-2.265 14.405c-0.045 0.285 0.174 0.542 0.461 0.542h3.357l1.75-11.128z"></path>
</svg>
