<svg width="47" height="32" viewBox="0 0 47 32" fill="none" xmlns="http://www.w3.org/2000/svg">
<path d="M0 4C0 1.791 1.80343 0 4.02854 0H42.9715C45.1966 0 47 1.791 47 4V28C47 30.209 45.1966 32 42.9715 32H4.02854C1.80343 32 0 30.209 0 28V4Z" fill="#FFCC00"/>
<path d="M22.2084 14.3197V7H14.3384V12.5585H9V20.1534H14.3384V25.7119H22.2084V18.3922H20.3372V23.9508H16.2096V18.3922H10.8712V14.3197H16.2096V8.76112H20.3372V14.3197H22.2084Z" fill="#FF0000"/>
<path d="M32.9745 13.6621C32.9745 14.99 31.8785 16.0257 30.4885 16.0257H28.3723V11.4578H30.4885C31.932 11.4578 32.9745 12.3873 32.9745 13.6621ZM31.3974 7H23.3091V25.7119H28.3723V20.1534H31.3974C35.113 20.1534 38 17.3183 38 13.6561C38 9.96713 35.0596 7 31.3974 7Z" fill="black"/>
</svg>
