<svg width="47" height="32" viewBox="0 0 47 32" fill="none" xmlns="http://www.w3.org/2000/svg">
<path d="M0 4C0 1.791 1.80343 0 4.02854 0H42.9715C45.1966 0 47 1.791 47 4V28C47 30.209 45.1966 32 42.9715 32H4.02854C1.80343 32 0 30.209 0 28V4Z" fill="white"/>
<path d="M15.5 19.5C15.5 19.7 15.4 19.9 15.2 20L10 23C9.9 23 9.7 23 9.5 23L4.3 20C4.2 19.9 4 19.7 4 19.5V13.5C4 13.3 4.1 13.1 4.3 13L9.5 10C9.7 10 9.9 10 10 10.1L15.2 13.1C15.3 13.2 15.5 13.4 15.5 13.6V19.5ZM44.1 14H39.5V15.1H41.2V19.8H42.5V15.1H44.1V14ZM23.1 14H18.5V15.1H20.2V19.8H21.5V15.1H23.2L23.1 14ZM36.5 13.8C35 13.8 34.2 14.7 34.2 16.1V19.8H35.5V16.1C35.5 15.5 35.8 15.1 36.5 15.1C37.1 15.1 37.5 15.6 37.5 16.1V19.9H38.8V16.1C38.8 14.7 37.9 13.8 36.5 13.8ZM31.6 14V19.8H32.9V14H31.6ZM27.2 16.3V16.6L28.4 19.9H29L30.6 14H29.3L28.5 17.1V17.4L28.4 17.1L27.4 14H27L26 17.1L25.9 17.4V17.1L25.1 14H23.8L25.4 19.8H26L27.2 16.5V16.3Z" fill="black"/>
<path d="M12.4999 16.6L11.1999 18.6L10.3999 17.5L11.1999 16.3C11.2999 16.1 11.6999 15.5 11.2999 14.7C10.9999 14.1 10.3999 13.7 9.79995 13.7C9.19995 13.7 8.69995 14 8.29995 14.7C7.99995 15.5 8.29995 16.1 8.39995 16.3C8.39995 16.3 8.79995 16.9 9.19995 17.5L9.79995 18.4L10.6999 19.8C10.6999 19.8 10.7999 20 11.0999 20C11.2999 20 11.4999 19.8 11.4999 19.8L13.5999 16.7L12.4999 16.6ZM9.79995 16.6C9.79995 16.6 9.39995 16.1 9.19995 15.7C8.99995 15.3 9.19995 14.7 9.79995 14.7C10.3999 14.7 10.5999 15.3 10.3999 15.7C10.1999 16.1 9.79995 16.6 9.79995 16.6Z" fill="url(#paint0_radial_22_354)"/>
<path d="M8.50004 18.5L7.20004 16.6C7.20004 16.6 6.80004 16.1 6.60004 15.7C6.40004 15.3 6.60004 14.7 7.20004 14.7C7.30004 14.7 7.30004 14.7 7.40004 14.7L7.90004 13.8C7.70004 13.8 7.40004 13.8 7.20004 13.8C6.70004 13.8 6.00004 14 5.70004 14.7C5.30004 15.5 5.70004 16.1 5.80004 16.3L8.10004 19.7C8.10004 19.7 8.30004 19.9 8.50004 19.9C8.70004 19.9 8.90004 19.7 8.90004 19.7L9.60004 18.6L9.00004 17.8L8.50004 18.5Z" fill="url(#paint1_radial_22_354)"/>
<defs>
<radialGradient id="paint0_radial_22_354" cx="0" cy="0" r="1" gradientUnits="userSpaceOnUse" gradientTransform="translate(9.38613 14.2939) scale(6.20648 7.00585)">
<stop stop-color="#FFCC00"/>
<stop offset="0.09157" stop-color="#FFC800"/>
<stop offset="0.1739" stop-color="#FFBD00"/>
<stop offset="0.2528" stop-color="#FFAB00"/>
<stop offset="0.3295" stop-color="#FF9100"/>
<stop offset="0.4046" stop-color="#FF7000"/>
<stop offset="0.4786" stop-color="#FF4700"/>
<stop offset="0.5503" stop-color="#FF1800"/>
<stop offset="0.5822" stop-color="#FF0000"/>
<stop offset="1" stop-color="#FF0000"/>
</radialGradient>
<radialGradient id="paint1_radial_22_354" cx="0" cy="0" r="1" gradientUnits="userSpaceOnUse" gradientTransform="translate(5.64546 14.652) scale(5.69066 8.61615)">
<stop stop-color="#00B4E6"/>
<stop offset="0.201" stop-color="#00B0E3"/>
<stop offset="0.3898" stop-color="#01A5DB"/>
<stop offset="0.5737" stop-color="#0292CD"/>
<stop offset="0.7546" stop-color="#0377BA"/>
<stop offset="0.9316" stop-color="#0455A1"/>
<stop offset="1" stop-color="#054696"/>
</radialGradient>
</defs>
</svg>
