<svg width="47" height="32" viewBox="0 0 47 32" fill="none" xmlns="http://www.w3.org/2000/svg">
<path d="M0 4C0 1.791 1.792 0 4.003 0H42.699C44.91 0 46.702 1.791 46.702 4V28C46.702 30.209 44.91 32 42.699 32H4.003C1.792 32 0 30.209 0 28V4Z" fill="white"/>
<path d="M13.2668 6.00111H21.2539C22.3689 6.00111 23.0623 6.90988 22.8022 8.02851L19.0836 23.9938C18.8212 25.1086 17.7049 26.0181 16.5892 26.0181H8.60285C7.48948 26.0181 6.79447 25.1086 7.05456 23.9938L10.7747 8.02851C11.0348 6.90988 12.1505 6.00111 13.2668 6.00111Z" fill="#E21836"/>
<path d="M20.5888 6H29.7738C30.8886 6 30.3859 6.90877 30.1237 8.0274L26.4057 23.9927C26.1448 25.1075 26.2262 26.017 25.1091 26.017H15.9241C14.807 26.017 14.1157 25.1075 14.3781 23.9927L18.0959 8.0274C18.3599 6.90877 19.4733 6 20.5888 6Z" fill="#00447C"/>
<path d="M29.4097 6H37.3969C38.5134 6 39.2068 6.90877 38.9446 8.0274L35.2266 23.9927C34.9641 25.1075 33.8471 26.017 32.7308 26.017H24.7473C23.6303 26.017 22.9374 25.1075 23.199 23.9927L26.9176 8.0274C27.1777 6.90877 28.2927 6 29.4097 6Z" fill="#007B84"/>
<path d="M15.3524 11.1164C14.531 11.1248 14.2884 11.1164 14.211 11.0981C14.1812 11.2396 13.6269 13.7964 13.6254 13.7985C13.506 14.3158 13.4192 14.6845 13.1243 14.9226C12.9568 15.061 12.7614 15.1278 12.5348 15.1278C12.1705 15.1278 11.9583 14.9469 11.9227 14.6039L11.9159 14.4861C11.9159 14.4861 12.0268 13.7933 12.0268 13.7894C12.0268 13.7894 12.6085 11.4594 12.7127 11.1514C12.7182 11.1339 12.7197 11.1248 12.7211 11.1164C11.5888 11.1263 11.3881 11.1164 11.3743 11.0981C11.3667 11.1232 11.3386 11.2677 11.3386 11.2677L10.7447 13.8937L10.6937 14.1164L10.595 14.8449C10.595 15.061 10.6374 15.2374 10.7219 15.3865C10.9925 15.8594 11.7644 15.9303 12.2011 15.9303C12.7637 15.9303 13.2915 15.8107 13.6481 15.5925C14.2672 15.2267 14.4292 14.6549 14.5736 14.1468L14.6406 13.8861C14.6406 13.8861 15.2398 11.4662 15.3417 11.1514C15.3456 11.1339 15.3471 11.1248 15.3524 11.1164ZM17.3912 13.0685C17.2467 13.0685 16.9828 13.1036 16.7456 13.2198C16.6596 13.264 16.5782 13.315 16.4924 13.3658L16.5698 13.0861L16.5274 13.0389C16.0245 13.1408 15.912 13.1544 15.4475 13.2198L15.4086 13.2457C15.3546 13.6929 15.3068 14.0291 15.1068 14.9081C15.0307 15.232 14.9517 15.5591 14.8724 15.8822L14.8938 15.9233C15.3698 15.8982 15.5143 15.8982 15.928 15.905L15.9615 15.8686C16.014 15.5994 16.0208 15.5363 16.1373 14.991C16.192 14.7325 16.306 14.1644 16.3623 13.9621C16.4657 13.9142 16.5677 13.8671 16.665 13.8671C16.8969 13.8671 16.8687 14.0694 16.8597 14.15C16.8498 14.2853 16.7653 14.7272 16.6787 15.1066L16.6208 15.3515C16.5805 15.5324 16.5364 15.7082 16.4961 15.8875L16.5136 15.9233C16.9828 15.8982 17.1258 15.8982 17.5265 15.905L17.5736 15.8686C17.646 15.4481 17.6672 15.3356 17.7957 14.7233L17.8604 14.442C17.9859 13.8914 18.049 13.6123 17.954 13.3849C17.8536 13.1301 17.6125 13.0685 17.3912 13.0685ZM19.6688 13.645C19.4194 13.6929 19.2604 13.7248 19.1023 13.7454C18.9456 13.7705 18.7927 13.7933 18.5517 13.8268L18.5326 13.8441L18.5151 13.8579C18.49 14.0374 18.4725 14.1926 18.4392 14.375C18.411 14.5637 18.3676 14.778 18.2969 15.086C18.2422 15.3217 18.2139 15.4039 18.1828 15.4868C18.1524 15.5698 18.1189 15.6504 18.0574 15.8822L18.0718 15.9036L18.0839 15.9233C18.3091 15.9126 18.4565 15.905 18.608 15.9036C18.7592 15.8982 18.916 15.9036 19.1585 15.905L19.1798 15.8877L19.2025 15.8686C19.2376 15.6595 19.2428 15.6033 19.2642 15.5012C19.2855 15.3918 19.3221 15.2404 19.4118 14.8358C19.4543 14.6458 19.5016 14.4564 19.5456 14.2625C19.5913 14.0694 19.6392 13.8792 19.6848 13.6892L19.6779 13.6662L19.6688 13.645ZM19.6741 12.8678C19.4475 12.734 19.0498 12.7765 18.7821 12.9612C18.5152 13.1423 18.4848 13.3992 18.7106 13.5347C18.9334 13.6648 19.3326 13.626 19.598 13.4397C19.8643 13.2548 19.8976 13.0001 19.6741 12.8678ZM21.0446 15.9652C21.503 15.9652 21.973 15.8389 22.3267 15.4639C22.5989 15.1598 22.7237 14.7074 22.7669 14.5211C22.9076 13.9036 22.798 13.6152 22.6604 13.4396C22.4513 13.1719 22.0818 13.0861 21.6985 13.0861C21.468 13.0861 20.919 13.1089 20.4901 13.5043C20.1821 13.7895 20.0398 14.1765 19.954 14.5476C19.8673 14.9256 19.7677 15.6062 20.3935 15.8595C20.5867 15.9424 20.8651 15.9652 21.0446 15.9652ZM21.0087 14.5758C21.1144 14.1082 21.2392 13.7157 21.5577 13.7157C21.8073 13.7157 21.8254 14.0077 21.7145 14.4769C21.6946 14.581 21.6035 14.9683 21.4803 15.1332C21.3942 15.2548 21.2924 15.3286 21.1799 15.3286C21.1464 15.3286 20.9472 15.3286 20.9441 15.0329C20.9425 14.8869 20.9723 14.7378 21.0087 14.5758ZM23.913 15.9051L23.9488 15.8687C23.9996 15.5994 24.008 15.5362 24.1205 14.9911C24.1768 14.7325 24.2932 14.1644 24.3479 13.9622C24.4515 13.9141 24.5517 13.867 24.6522 13.867C24.8825 13.867 24.8544 14.0692 24.8453 14.1498C24.8369 14.2853 24.7524 14.7271 24.6642 15.1065L24.6095 15.3514C24.5677 15.5325 24.5221 15.7081 24.4818 15.8876L24.4994 15.9234C24.9701 15.8983 25.1077 15.8983 25.5107 15.9051L25.5594 15.8687C25.6301 15.448 25.6491 15.3354 25.7815 14.7234L25.8446 14.4419C25.9707 13.8913 26.0346 13.6123 25.9412 13.3849C25.8378 13.1301 25.5952 13.0686 25.377 13.0686C25.2323 13.0686 24.967 13.1034 24.7312 13.2199C24.6469 13.2641 24.5624 13.3149 24.4795 13.3659L24.5517 13.0861L24.513 13.0388C24.0103 13.1408 23.8955 13.1544 23.4315 13.2199L23.3959 13.2458C23.3396 13.6929 23.2939 14.029 23.094 14.9081C23.0178 15.2321 22.9388 15.5591 22.8598 15.8823L22.881 15.9234C23.3577 15.8983 23.5001 15.8983 23.913 15.9051ZM27.3716 15.9233C27.4012 15.7788 27.577 14.9226 27.5785 14.9226C27.5785 14.9226 27.7282 14.2944 27.7374 14.2716C27.7374 14.2716 27.7845 14.2062 27.8316 14.1803H27.9009C28.5548 14.1803 29.2933 14.1803 29.872 13.7545C30.2659 13.4625 30.5351 13.0313 30.6552 12.5072C30.6864 12.3787 30.7094 12.2259 30.7094 12.0731C30.7094 11.8724 30.6691 11.6738 30.5526 11.5186C30.2575 11.1057 29.6698 11.0981 28.9913 11.095C28.9892 11.095 28.6568 11.0981 28.6568 11.0981C27.7884 11.1088 27.4401 11.1057 27.297 11.0882C27.2849 11.1515 27.2622 11.264 27.2622 11.264C27.2622 11.264 26.9511 12.7058 26.9511 12.7081C26.9511 12.7081 26.2066 15.7736 26.1716 15.918C26.9298 15.9089 27.2407 15.9089 27.3716 15.9233ZM27.948 13.3621C27.948 13.3621 28.2788 11.9232 28.2772 11.9286L28.2879 11.8549L28.2926 11.7986L28.4248 11.8122C28.4248 11.8122 29.1069 11.8708 29.1229 11.8724C29.3921 11.9765 29.5031 12.245 29.4256 12.5954C29.355 12.9157 29.1472 13.1849 28.8803 13.315C28.6605 13.4251 28.3913 13.4343 28.1139 13.4343H27.9344L27.948 13.3621ZM30.0074 14.6024C29.92 14.9751 29.8195 15.6557 30.4423 15.8982C30.6409 15.9827 30.8188 16.0078 30.9997 15.9987C31.1907 15.9884 31.3676 15.8926 31.5316 15.7547C31.5168 15.8114 31.502 15.8681 31.4872 15.9249L31.5154 15.9613C31.9634 15.9424 32.1024 15.9424 32.5877 15.9461L32.6317 15.9126C32.7026 15.496 32.7693 15.0915 32.9535 14.2945C33.0433 13.9127 33.1328 13.5346 33.2249 13.1544L33.2105 13.1126C32.7094 13.2054 32.5754 13.2253 32.0934 13.2936L32.0568 13.3234C32.0519 13.3621 32.0469 13.3993 32.0422 13.4365C31.9673 13.3154 31.8586 13.212 31.691 13.1476C31.4767 13.0633 30.9732 13.1719 30.5404 13.566C30.2364 13.8473 30.0903 14.2327 30.0074 14.6024ZM31.0599 14.6252C31.1671 14.166 31.2904 13.7774 31.6096 13.7774C31.8115 13.7774 31.9178 13.9637 31.8962 14.2814C31.8791 14.3606 31.8606 14.4442 31.8386 14.5386C31.8066 14.6751 31.772 14.8104 31.7383 14.9459C31.7041 15.0385 31.6641 15.1259 31.6203 15.1841C31.5382 15.3006 31.3427 15.3728 31.2302 15.3728C31.1983 15.3728 31.0013 15.3728 30.9944 15.0823C30.9929 14.9377 31.0227 14.7887 31.0599 14.6252ZM36.5558 13.1088L36.517 13.0646C36.0212 13.1651 35.9314 13.1811 35.4759 13.2426L35.4424 13.2761C35.4408 13.2815 35.4395 13.2899 35.4371 13.2975L35.4356 13.2899C35.0964 14.0723 35.1064 13.9035 34.8303 14.5195C34.8288 14.4915 34.8288 14.4739 34.8272 14.4441L34.7581 13.1088L34.7147 13.0646C34.1953 13.1651 34.183 13.1811 33.7033 13.2426L33.6659 13.2761C33.6607 13.292 33.6607 13.3095 33.6576 13.3286L33.6607 13.3354C33.7206 13.6419 33.7062 13.5735 33.7664 14.0571C33.7944 14.2944 33.8318 14.5331 33.8598 14.7675C33.9071 15.1598 33.9336 15.3529 33.9914 15.9516C33.6675 16.4861 33.5908 16.6884 33.2789 17.1576L33.2811 17.1623L33.0615 17.5096C33.0363 17.5462 33.0136 17.5713 32.9816 17.582C32.9466 17.5993 32.901 17.6024 32.8378 17.6024H32.7161L32.5352 18.204L33.1557 18.2147C33.5199 18.2131 33.7489 18.0428 33.8721 17.8139L34.2622 17.1453H34.256L34.2971 17.0982C34.5595 16.5333 36.5558 13.1088 36.5558 13.1088ZM30.0074 21.0094H29.7442L30.7184 17.7873H31.0415L31.1441 17.4554L31.1541 17.8245C31.142 18.0526 31.3215 18.2549 31.793 18.2214H32.3383L32.526 17.601H32.3208C32.2028 17.601 32.1481 17.5712 32.1549 17.5073L32.145 17.1318H31.1352V17.1337C30.8087 17.1406 29.8337 17.1651 29.6363 17.2177C29.3975 17.2792 29.1457 17.4602 29.1457 17.4602L29.2446 17.1279H28.3001L28.1032 17.7873L27.116 21.0587H26.9244L26.7366 21.6747H28.618L28.5549 21.88H29.482L29.5435 21.6747H29.8036L30.0074 21.0094ZM29.2355 18.442C29.0842 18.4839 28.8027 18.6108 28.8027 18.6108L29.0531 17.7873H29.8036L29.6225 18.3873C29.6225 18.3873 29.3906 18.4009 29.2355 18.442ZM29.2499 19.6184C29.2499 19.6184 29.0141 19.648 28.859 19.6831C28.7062 19.7294 28.4196 19.8754 28.4196 19.8754L28.6781 19.0184H29.4325L29.2499 19.6184ZM28.8294 21.017H28.0766L28.2948 20.2938H29.0453L28.8294 21.017ZM30.6424 19.0184H31.7275L31.5716 19.5234H30.472L30.3069 20.0756H31.269L30.5405 21.1013C30.4895 21.1767 30.4438 21.2033 30.393 21.2246C30.342 21.2504 30.275 21.2808 30.1975 21.2808H29.9306L29.7472 21.8855H30.4453C30.8082 21.8855 31.0226 21.7204 31.1808 21.5037L31.6804 20.82L31.7877 21.5142C31.8104 21.6443 31.9039 21.7204 31.9672 21.75C32.0371 21.785 32.1093 21.8452 32.2113 21.8542C32.3207 21.8588 32.3997 21.8625 32.4523 21.8625H32.7953L33.0013 21.1858H32.866C32.7883 21.1858 32.6546 21.1728 32.6318 21.1484C32.609 21.1188 32.609 21.0733 32.5968 21.004L32.4879 20.3082H32.0423L32.2378 20.0756H33.3352L33.504 19.5234H32.4879L32.6462 19.0184H33.6591L33.847 18.3957H30.8271L30.6424 19.0184ZM21.4772 21.1576L21.7305 20.3151H22.7714L22.9616 19.6884H21.9197L22.0787 19.1698H23.0969L23.2856 18.563H20.738L20.5532 19.1698H21.132L20.9776 19.6884H20.3973L20.2049 20.3258H20.7835L20.446 21.4405C20.4004 21.5881 20.4674 21.6443 20.5098 21.7129C20.5532 21.7796 20.5972 21.8238 20.6961 21.849C20.7981 21.8717 20.868 21.8854 20.963 21.8854H22.1366L22.3456 21.1911L21.8255 21.2626C21.725 21.2626 21.4468 21.2505 21.4772 21.1576ZM21.5966 17.1241L21.3328 17.6009C21.2763 17.705 21.2255 17.7697 21.1798 17.7995C21.1395 17.8246 21.0596 17.8351 20.944 17.8351H20.8064L20.6224 18.445H21.0795C21.2993 18.445 21.4681 18.3644 21.5487 18.3241C21.6353 18.2778 21.6581 18.3043 21.7251 18.2396L21.8794 18.1059H23.3068L23.4963 17.4708H22.4514L22.6338 17.1241H21.5966ZM23.7039 21.1699C23.6795 21.1348 23.6971 21.0731 23.7342 20.9446L24.1244 19.6533H25.5123C25.7145 19.6504 25.8605 19.6481 25.9555 19.6413C26.0576 19.6306 26.1685 19.5942 26.2894 19.5287C26.4142 19.4602 26.4781 19.388 26.532 19.3051C26.5921 19.2223 26.6887 19.0413 26.7716 18.7621L27.262 17.1279L25.8218 17.1363C25.8218 17.1363 25.3783 17.2017 25.183 17.274C24.986 17.3546 24.7045 17.5796 24.7045 17.5796L24.8346 17.1316H23.9449L22.6993 21.2626C22.6551 21.423 22.6255 21.5394 22.6187 21.6093C22.6164 21.6846 22.7137 21.7592 22.7768 21.8155C22.8514 21.8717 22.9616 21.8626 23.0673 21.8717C23.1784 21.8801 23.3365 21.8853 23.5547 21.8853H24.2385L24.4483 21.1767L23.8363 21.2345C23.7708 21.2345 23.7235 21.1995 23.7039 21.1699ZM24.3761 18.7812H25.8339L25.7412 19.0716C25.7282 19.0784 25.697 19.0572 25.5487 19.0747H24.2864L24.3761 18.7812ZM24.6681 17.807H26.1381L26.0324 18.1568C26.0324 18.1568 25.3396 18.15 25.2286 18.1705C24.7403 18.2549 24.4551 18.5158 24.4551 18.5158L24.6681 17.807ZM25.7738 20.0443C25.7618 20.0877 25.7427 20.1142 25.716 20.1341C25.6864 20.1531 25.6385 20.16 25.5671 20.16H25.3594L25.3716 19.8062H24.5076L24.4726 21.5356C24.4712 21.6603 24.4833 21.7326 24.5746 21.7904C24.6659 21.8626 24.9472 21.8718 25.3259 21.8718H25.8673L26.0627 21.2245L25.5914 21.2504L25.4347 21.2595C25.4133 21.2504 25.3928 21.242 25.3701 21.2192C25.3502 21.1995 25.3167 21.2116 25.3222 21.0868L25.3259 20.6435L25.8202 20.6231C26.0871 20.6231 26.2011 20.5363 26.2985 20.4535C26.3914 20.3743 26.4217 20.2832 26.4568 20.16L26.5397 19.7675H25.8605L25.7738 20.0443Z" fill="#FEFEFE"/>
</svg>
