<svg viewBox="0 0 47 32" fill="none" xmlns="http://www.w3.org/2000/svg">
<path d="M0 4C0 1.791 1.80343 0 4.02854 0H42.9715C45.1966 0 47 1.791 47 4V28C47 30.209 45.1966 32 42.9715 32H4.02854C1.80343 32 0 30.209 0 28V4Z" fill="white"/>
<path d="M15.173 21.345H12.344L10.222 13.257C10.121 12.885 9.908 12.556 9.593 12.401C8.808 12.011 7.943 11.701 7 11.545V11.234H11.558C12.187 11.234 12.659 11.702 12.737 12.245L13.838 18.079L16.666 11.234H19.417L15.173 21.345ZM20.989 21.345H18.317L20.517 11.234H23.189L20.989 21.345ZM26.646 14.035C26.725 13.49 27.196 13.179 27.747 13.179C28.612 13.101 29.554 13.257 30.34 13.645L30.812 11.468C30.026 11.157 29.161 11 28.376 11C25.783 11 23.895 12.401 23.895 14.344C23.895 15.823 25.232 16.599 26.175 17.067C27.196 17.533 27.589 17.845 27.51 18.311C27.51 19.011 26.724 19.322 25.939 19.322C24.996 19.322 24.052 19.089 23.188 18.699L22.716 20.877C23.66 21.265 24.68 21.422 25.624 21.422C28.532 21.499 30.339 20.1 30.339 18C30.339 15.355 26.645 15.2 26.645 14.034L26.646 14.035ZM39.692 21.345L37.57 11.234H35.291C34.819 11.234 34.347 11.545 34.19 12.012L30.261 21.345H33.012L33.561 19.868H36.941L37.256 21.345H39.692ZM35.684 13.957L36.469 17.768H34.269L35.684 13.957Z" fill="#172B85"/>
</svg>
