<!-- Generated by IcoMoon.io -->
<svg version="1.1" xmlns="http://www.w3.org/2000/svg" width="47" height="32" viewBox="0 0 47 32">
<title>visa</title>
<path fill="#fff" d="M0 4c0-2.209 1.792-4 4.003-4h38.696c2.211 0 4.003 1.791 4.003 4v24c0 2.209-1.792 4-4.003 4h-38.696c-2.211 0-4.003-1.791-4.003-4v-24z"></path>
<path fill="#172b85" d="M14.177 21.678h-2.829l-2.122-8.088c-0.101-0.372-0.314-0.701-0.629-0.856-0.785-0.39-1.65-0.7-2.593-0.856v-0.311h4.558c0.629 0 1.101 0.468 1.179 1.011l1.101 5.834 2.828-6.845h2.751l-4.243 10.111zM19.993 21.678h-2.672l2.2-10.111h2.672l-2.2 10.111zM25.65 14.368c0.079-0.545 0.55-0.856 1.101-0.856 0.865-0.078 1.807 0.078 2.593 0.466l0.472-2.177c-0.786-0.311-1.651-0.468-2.436-0.468-2.593 0-4.481 1.401-4.481 3.344 0 1.479 1.337 2.255 2.28 2.723 1.021 0.466 1.414 0.778 1.335 1.244 0 0.7-0.786 1.011-1.571 1.011-0.943 0-1.887-0.233-2.751-0.623l-0.472 2.178c0.944 0.388 1.964 0.545 2.908 0.545 2.908 0.077 4.715-1.322 4.715-3.422 0-2.645-3.694-2.8-3.694-3.966zM38.696 21.678l-2.122-10.111h-2.279c-0.472 0-0.944 0.311-1.101 0.778l-3.929 9.333h2.751l0.549-1.477h3.38l0.315 1.477h2.436zM34.688 14.29l0.785 3.811h-2.2l1.415-3.811z"></path>
</svg>
