<svg width="47" height="32" viewBox="0 0 47 32" fill="none" xmlns="http://www.w3.org/2000/svg">
<path d="M0 4C0 1.791 1.792 0 4.003 0H42.699C44.91 0 46.702 1.791 46.702 4V28C46.702 30.209 44.91 32 42.699 32H4.003C1.792 32 0 30.209 0 28V4Z" fill="white"/>
<path d="M20.3645 18.2838C20.2607 18.338 20.1439 18.3694 20.0196 18.3694C19.7321 18.3694 19.4821 18.2057 19.3509 17.9634L19.3006 17.8496L17.207 13.0952C17.1844 13.0435 17.1704 12.985 17.1704 12.9281C17.1704 12.709 17.3421 12.5315 17.5538 12.5315C17.6397 12.5315 17.7193 12.5609 17.7832 12.6101L20.2538 14.4305C20.4343 14.5526 20.6499 14.6243 20.8818 14.6243C21.0202 14.6243 21.1521 14.5976 21.2751 14.5513L32.8935 9.20002C30.8109 6.66007 27.3811 5 23.4998 5C17.1484 5 12 9.44011 12 14.9176C12 17.9057 13.549 20.5957 15.9735 22.4139C16.168 22.5576 16.2953 22.7937 16.2953 23.0602C16.2953 23.1483 16.2771 23.2287 16.2548 23.3128C16.0612 24.0602 15.7512 25.2573 15.7368 25.3134C15.7126 25.4072 15.6749 25.5053 15.6749 25.6034C15.6749 25.8225 15.8465 26 16.0585 26C16.1416 26 16.2096 25.968 16.2798 25.9262L18.7974 24.4219C18.9868 24.309 19.1873 24.2387 19.4082 24.2387C19.5257 24.2387 19.6393 24.2576 19.7461 24.2914C20.9205 24.641 22.1877 24.8353 23.4999 24.8353C29.8509 24.8353 35 20.3949 35 14.9176C35 13.2586 34.5249 11.6961 33.6899 10.3217L20.4488 18.2335L20.3645 18.2838Z" fill="#1AAD19"/>
</svg>
