<svg viewBox="0 0 47 32" fill="none" xmlns="http://www.w3.org/2000/svg">
<path d="M0 4C0 1.791 1.80343 0 4.02854 0H42.9715C45.1966 0 47 1.791 47 4V28C47 30.209 45.1966 32 42.9715 32H4.02854C1.80343 32 0 30.209 0 28V4Z" fill="white"/>
<path d="M20.4945 18.2838C20.39 18.338 20.2724 18.3694 20.1473 18.3694C19.8579 18.3694 19.6064 18.2057 19.4743 17.9634L19.4238 17.8496L17.3168 13.0952C17.294 13.0435 17.28 12.985 17.28 12.9281C17.28 12.709 17.4527 12.5315 17.6658 12.5315C17.7523 12.5315 17.8323 12.5609 17.8966 12.6101L20.383 14.4305C20.5646 14.5526 20.7817 14.6243 21.015 14.6243C21.1543 14.6243 21.287 14.5976 21.4108 14.5513L33.1034 9.20002C31.0075 6.66007 27.5558 5 23.6497 5C17.2578 5 12.0765 9.44011 12.0765 14.9176C12.0765 17.9057 13.6354 20.5957 16.0754 22.4139C16.2711 22.5576 16.3993 22.7937 16.3993 23.0602C16.3993 23.1483 16.3809 23.2287 16.3585 23.3128C16.1636 24.0602 15.8517 25.2573 15.8372 25.3134C15.8129 25.4072 15.7749 25.5053 15.7749 25.6034C15.7749 25.8225 15.9475 26 16.1609 26C16.2445 26 16.313 25.968 16.3837 25.9262L18.9173 24.4219C19.1079 24.309 19.3097 24.2387 19.532 24.2387C19.6503 24.2387 19.7646 24.2576 19.872 24.2914C21.054 24.641 22.3293 24.8353 23.6498 24.8353C30.0413 24.8353 35.2233 20.3949 35.2233 14.9176C35.2233 13.2586 34.7452 11.6961 33.9049 10.3217L20.5793 18.2335L20.4945 18.2838Z" fill="#1AAD19"/>
</svg>
