<svg xmlns="http://www.w3.org/2000/svg" width="16" height="12" viewBox="0 0 16 12">
  <path id="badge_FILL0_wght400_GRAD0_opsz48_1_" data-name="badge_FILL0_wght400_GRAD0_opsz48 (1)" d="M81.2-668a1.151,1.151,0,0,1-.84-.36,1.151,1.151,0,0,1-.36-.84v-9.6a1.152,1.152,0,0,1,.36-.84,2.088,2.088,0,0,1,.84-.36H94.8a2.088,2.088,0,0,1,.84.36,1.152,1.152,0,0,1,.36.84v9.6a1.151,1.151,0,0,1-.36.84,1.151,1.151,0,0,1-.84.36Zm0-1.2H94.8v-9.6H81.2Zm1.84-2.14h4.78v-.28a1.157,1.157,0,0,0-.18-.64.9.9,0,0,0-.46-.38,8,8,0,0,0-1-.29,3.658,3.658,0,0,0-.7-.07,3.962,3.962,0,0,0-.81.09,8.859,8.859,0,0,0-.97.27.9.9,0,0,0-.48.38,1.157,1.157,0,0,0-.18.64Zm6.72-1.34h3.4v-1h-3.4Zm-4.28-1a1.042,1.042,0,0,0,.765-.315,1.041,1.041,0,0,0,.315-.765,1.042,1.042,0,0,0-.315-.765,1.042,1.042,0,0,0-.765-.315,1.042,1.042,0,0,0-.765.315,1.042,1.042,0,0,0-.315.765,1.041,1.041,0,0,0,.315.765A1.042,1.042,0,0,0,85.48-673.68Zm4.28-1.26h3.4v-1h-3.4ZM88-674Z" transform="translate(-80 680)"/>
</svg>
