<svg width="243" height="273" viewBox="0 0 243 273" fill="none" xmlns="http://www.w3.org/2000/svg">
<path clip-rule="evenodd" d="M106.142 121.304H136.469V0H106.142V121.304ZM121.305 272.928C188.203 272.928 242.607 218.562 242.607 151.628C242.607 100.93 211.099 57.986 166.794 39.92V73.448C193.858 89.201 212.28 118.163 212.28 151.628C212.28 201.797 171.475 242.607 121.304 242.607C71.137 242.607 30.326 201.797 30.326 151.628C30.326 118.105 48.719 89.201 75.814 73.448V39.92C31.512 57.985 0 100.93 0 151.628C0 218.562 54.405 272.928 121.305 272.928Z"/>
</svg>
