<svg xmlns="http://www.w3.org/2000/svg" width="12" height="10" viewBox="0 0 12 10">
  <g id="Group_180" data-name="Group 180" transform="translate(-960 -399)">
    <path id="Path_4" data-name="Path 4" d="M-15696.425-17869.658h2.348l1.787,1.3" transform="translate(16657 18271)" fill="none" stroke="#fff" stroke-width="0.7"/>
    <path id="Path_5" data-name="Path 5" d="M-15696.425-17864.492h2.192l1.855-1.141" transform="translate(16657 18271.133)" fill="none" stroke="#fff" stroke-width="0.7"/>
    <path id="Path_6" data-name="Path 6" d="M-15692.213-17869.658h-2.393l-1.414,1.123" transform="translate(16663.551 18271)" fill="none" stroke="#fff" stroke-width="0.7"/>
    <path id="Path_7" data-name="Path 7" d="M-15692.3-17864.492h-2.233l-1.892-1.141" transform="translate(16663.637 18271.133)" fill="none" stroke="#fff" stroke-width="0.7"/>
    <g id="Rectangle_96" data-name="Rectangle 96" transform="translate(960 399)" fill="none" stroke="#fff" stroke-width="0.9">
      <rect width="12" height="10" rx="1" stroke="none"/>
      <rect x="0.45" y="0.45" width="11.1" height="9.1" rx="0.55" fill="none"/>
    </g>
    <line id="Line_8" data-name="Line 8" y2="3" transform="translate(966 399.5)" fill="none" stroke="#fff" stroke-width="0.7"/>
    <line id="Line_9" data-name="Line 9" y2="3" transform="translate(966 405.5)" fill="none" stroke="#fff" stroke-width="0.7"/>
    <g id="Rectangle_97" data-name="Rectangle 97" transform="translate(964 402)" fill="none" stroke="#fff" stroke-width="0.7">
      <rect width="4" height="4" stroke="none"/>
      <rect x="0.35" y="0.35" width="3.3" height="3.3" fill="none"/>
    </g>
    <line id="Line_10" data-name="Line 10" y2="3.232" transform="translate(960.866 404) rotate(-90)" fill="none" stroke="#fff" stroke-width="0.7"/>
    <line id="Line_11" data-name="Line 11" y2="3.232" transform="translate(967.965 404) rotate(-90)" fill="none" stroke="#fff" stroke-width="0.7"/>
  </g>
</svg>
