<svg xmlns="http://www.w3.org/2000/svg" width="23.006" height="23.006" viewBox="0 0 23.006 23.006">
  <path id="contactless_FILL0_wght400_GRAD0_opsz48_1_" data-name="contactless_FILL0_wght400_GRAD0_opsz48 (1)" d="M86.959-865.765a10.116,10.116,0,0,0,.475-1.337,5.209,5.209,0,0,0,.187-1.395,5.787,5.787,0,0,0-.173-1.409,5.577,5.577,0,0,0-.518-1.323l-1.61.575a3.292,3.292,0,0,1,.446,1.035A4.848,4.848,0,0,1,85.9-868.5a4.013,4.013,0,0,1-.158,1.122,6.276,6.276,0,0,1-.417,1.064Zm3.911,1.639a9.4,9.4,0,0,0,.661-2.142,12.434,12.434,0,0,0,.2-2.229,12.2,12.2,0,0,0-.2-2.214,9.431,9.431,0,0,0-.661-2.128l-1.639.575a7.144,7.144,0,0,1,.6,1.84,10.751,10.751,0,0,1,.173,1.927,10.168,10.168,0,0,1-.187,1.941,8.363,8.363,0,0,1-.59,1.855Zm3.767,1.61a13.684,13.684,0,0,0,.92-2.933,16.107,16.107,0,0,0,.288-3.048,16.1,16.1,0,0,0-.288-3.048,13.118,13.118,0,0,0-.92-2.9l-1.61.633a11.592,11.592,0,0,1,.834,2.6,14.267,14.267,0,0,1,.259,2.718,14.494,14.494,0,0,1-.259,2.732,11.556,11.556,0,0,1-.834,2.617ZM91.5-856.994a11.131,11.131,0,0,1-4.457-.906,11.668,11.668,0,0,1-3.667-2.473,11.667,11.667,0,0,1-2.473-3.667A11.13,11.13,0,0,1,80-868.5a11.2,11.2,0,0,1,.906-4.486,11.5,11.5,0,0,1,2.473-3.652,11.791,11.791,0,0,1,3.667-2.459A11.129,11.129,0,0,1,91.5-880a11.2,11.2,0,0,1,4.486.906,11.616,11.616,0,0,1,3.652,2.459,11.615,11.615,0,0,1,2.459,3.652,11.2,11.2,0,0,1,.906,4.486,11.131,11.131,0,0,1-.906,4.458,11.791,11.791,0,0,1-2.459,3.667,11.5,11.5,0,0,1-3.652,2.473A11.2,11.2,0,0,1,91.5-856.994Zm0-1.725a9.409,9.409,0,0,0,6.931-2.862,9.446,9.446,0,0,0,2.847-6.916,9.433,9.433,0,0,0-2.847-6.931,9.433,9.433,0,0,0-6.931-2.847,9.447,9.447,0,0,0-6.916,2.847,9.409,9.409,0,0,0-2.861,6.931,9.422,9.422,0,0,0,2.861,6.916A9.422,9.422,0,0,0,91.5-858.719ZM91.5-868.5Z" transform="translate(-80 880)" fill="#fff"/>
</svg>
