<svg xmlns="http://www.w3.org/2000/svg" width="14.64" height="23.006" viewBox="0 0 14.64 23.006">
  <path id="phone_iphone_FILL0_wght400_GRAD0_opsz48" d="M201.569-896.994a1.5,1.5,0,0,1-1.1-.471,1.505,1.505,0,0,1-.471-1.1v-19.869a1.505,1.505,0,0,1,.471-1.1,1.5,1.5,0,0,1,1.1-.47h11.5a1.5,1.5,0,0,1,1.1.47,1.505,1.505,0,0,1,.471,1.1v19.869a1.505,1.505,0,0,1-.471,1.1,1.5,1.5,0,0,1-1.1.471Zm0-3.922v2.353h11.5v-2.353Zm5.756,1.961a.748.748,0,0,0,.558-.227.771.771,0,0,0,.222-.562.748.748,0,0,0-.227-.557.772.772,0,0,0-.562-.222.748.748,0,0,0-.558.227.771.771,0,0,0-.222.562.748.748,0,0,0,.227.557A.771.771,0,0,0,207.325-898.954Zm-5.756-3.529h11.5v-13.595h-11.5Zm0-15.163h11.5v-.784h-11.5Zm0,16.732v0Zm0-16.732v0Z" transform="translate(-200 920)" fill="#fff"/>
</svg>
