<svg width="23" height="18" viewBox="0 0 23 18" fill="none" xmlns="http://www.w3.org/2000/svg">
<path fill-rule="evenodd" clip-rule="evenodd" d="M17.4999 8.24V4.89H14.1499V3.34H17.4999V0H19.0499V3.35H22.3999V4.9H19.0499V8.25H17.4999V8.24ZM17 10.65V15C17 15.2652 16.8947 15.5196 16.7071 15.7071C16.5196 15.8946 16.2652 16 16 16H3.00001C2.7348 16 2.48044 15.8946 2.29291 15.7071C2.10537 15.5196 2.00001 15.2652 2.00001 15V7C2.00001 6.73478 2.10537 6.48043 2.29291 6.29289C2.48044 6.10536 2.7348 6 3.00001 6H11.97V5H3.00001C2.46958 5 1.96087 5.21071 1.5858 5.58579C1.21073 5.96086 1.00001 6.46957 1.00001 7V15C0.999087 15.2629 1.05019 15.5234 1.15037 15.7665C1.25055 16.0095 1.39783 16.2304 1.58374 16.4163C1.76964 16.6022 1.99048 16.7495 2.23355 16.8496C2.47662 16.9498 2.73711 17.0009 3.00001 17H16C16.5304 17 17.0392 16.7893 17.4142 16.4142C17.7893 16.0391 18 15.5304 18 15V10.65H17ZM7.68 11.7599C7.60833 12.0116 7.5215 12.2587 7.42 12.4999H7.41L6.5 12.1999C6.59127 12.0093 6.66815 11.8121 6.73 11.6099C6.78993 11.4087 6.82025 11.1999 6.82 10.9899C6.82199 10.7812 6.79849 10.573 6.75 10.3699C6.69599 10.1684 6.61169 9.9762 6.5 9.79994L7.39 9.47994C7.52153 9.70794 7.61922 9.95384 7.68 10.2099C7.74824 10.4643 7.78188 10.7266 7.78 10.9899C7.78187 11.25 7.74823 11.509 7.68 11.7599ZM9.95 12.2199C9.87235 12.6294 9.74821 13.0286 9.58 13.4099L9.57 13.4199L8.67 13.0999C8.81882 12.7703 8.92954 12.4247 9 12.0699C9.13334 11.3628 9.13334 10.637 9 9.92994C8.94024 9.57569 8.82907 9.23206 8.67 8.90994L9.58 8.58994C9.75267 8.96607 9.877 9.36256 9.95 9.76994C10.0217 10.1727 10.0585 10.5809 10.06 10.9899C10.0581 11.4023 10.0213 11.8138 9.95 12.2199ZM12.17 12.6799C12.0608 13.2372 11.8898 13.7806 11.66 14.2999V14.2899L10.77 13.9399C10.9786 13.4759 11.1329 12.9893 11.23 12.4899C11.3216 11.9918 11.3685 11.4864 11.37 10.9799C11.3735 10.4765 11.3266 9.97402 11.23 9.47994C11.1375 8.98259 10.983 8.49881 10.77 8.03994L11.66 7.68994C11.8883 8.20635 12.0594 8.74625 12.17 9.29994C12.3833 10.4165 12.3833 11.5634 12.17 12.6799Z" fill="#141414"/>
</svg>
