<svg width="23" height="18" viewBox="0 0 23 18" fill="none" xmlns="http://www.w3.org/2000/svg">
<path fill-rule="evenodd" clip-rule="evenodd" d="M7.00002 6.00001H15.97L20 6.00001C20.2652 6.00001 20.5196 6.10537 20.7071 6.29291C20.8946 6.48044 21 6.7348 21 7.00001L21 15C21 15.2652 20.8946 15.5196 20.7071 15.7071C20.5768 15.8374 20.4142 15.9281 20.2382 15.9712C20.1767 15.9863 20.1136 15.9956 20.0496 15.9988C20.0331 15.9996 20.0166 16 20 16L11.03 16L7.00002 16C6.73481 16 6.48045 15.8947 6.29291 15.7071C6.10538 15.5196 6.00002 15.2652 6.00002 15V7.00001C6.00002 6.7348 6.10538 6.48044 6.29291 6.29291C6.48045 6.10537 6.73481 6.00001 7.00002 6.00001ZM22 7.00001V10.65H22V15C22 15.5304 21.7893 16.0392 21.4142 16.4142C21.1329 16.6955 20.7764 16.8844 20.392 16.9612C20.2639 16.9868 20.1326 17 20 17H7.00002C6.73712 17.0009 6.47663 16.9498 6.23356 16.8497C5.99049 16.7495 5.76965 16.6022 5.58375 16.4163C5.39784 16.2304 5.25056 16.0095 5.15038 15.7665C5.0502 15.5234 4.9991 15.2629 5.00002 15V11.35H5V7.00001C5 6.46958 5.21072 5.96087 5.58579 5.5858C5.96086 5.21073 6.46957 5.00001 7 5.00001L20 5.00001C20.2629 4.99909 20.5234 5.05019 20.7665 5.15037C21.0095 5.25055 21.2304 5.39783 21.4163 5.58374C21.6022 5.76964 21.7495 5.99048 21.8496 6.23355C21.9498 6.47662 22.0009 6.73711 22 7.00001ZM11.7501 11.7599C11.6784 12.0116 11.5916 12.2587 11.4901 12.4999H11.4801L10.5701 12.1999C10.6613 12.0093 10.7382 11.8121 10.8001 11.6099C10.86 11.4087 10.8903 11.1999 10.8901 10.9899C10.8921 10.7812 10.8686 10.573 10.8201 10.3699C10.7661 10.1684 10.6818 9.9762 10.5701 9.79994L11.4601 9.47994C11.5916 9.70794 11.6893 9.95384 11.7501 10.2099C11.8183 10.4643 11.8519 10.7266 11.8501 10.9899C11.8519 11.25 11.8183 11.509 11.7501 11.7599ZM14.0201 12.2199C13.9424 12.6294 13.8183 13.0286 13.6501 13.4099L13.6401 13.4199L12.7401 13.0999C12.8889 12.7703 12.9996 12.4247 13.0701 12.0699C13.2034 11.3628 13.2034 10.637 13.0701 9.92994C13.0103 9.57569 12.8991 9.23206 12.7401 8.90994L13.6501 8.58994C13.8227 8.96607 13.9471 9.36256 14.0201 9.76994C14.0918 10.1727 14.1286 10.5809 14.1301 10.9899C14.1282 11.4023 14.0914 11.8138 14.0201 12.2199ZM16.2401 12.6799C16.1309 13.2372 15.9599 13.7806 15.7301 14.2999V14.2899L14.8401 13.9399C15.0486 13.4759 15.203 12.9893 15.3001 12.4899C15.3917 11.9918 15.4386 11.4864 15.4401 10.9799C15.4435 10.4765 15.3966 9.97402 15.3001 9.47994C15.2076 8.98259 15.053 8.49881 14.8401 8.03994L15.7301 7.68994C15.9584 8.20635 16.1294 8.74625 16.2401 9.29994C16.4534 10.4165 16.4534 11.5634 16.2401 12.6799Z" fill="#141414"/>
</svg>
