<svg xmlns="http://www.w3.org/2000/svg" viewBox="0 0 12 12">
  <path id="settings_FILL0_wght600_GRAD0_opsz48" d="M65.85-882.818l-.295-1.871a2.815,2.815,0,0,1-.488-.228,3.381,3.381,0,0,1-.453-.306l-1.748.806L61.347-887.1l1.6-1.165a1.748,1.748,0,0,1-.028-.245q-.007-.141-.007-.245t.007-.245a1.75,1.75,0,0,1,.028-.245l-1.6-1.173,1.519-2.666,1.764.8a3.272,3.272,0,0,1,.441-.293,2.509,2.509,0,0,1,.484-.218l.295-1.9h2.993l.295,1.887a4.386,4.386,0,0,1,.491.225,2.3,2.3,0,0,1,.45.3l1.756-.8,1.511,2.666-1.6,1.144q.021.119.032.26t.011.26q0,.119-.011.252t-.032.252l1.6,1.15-1.519,2.682-1.756-.806a4.012,4.012,0,0,1-.442.309,2.057,2.057,0,0,1-.491.225l-.295,1.871Zm1.481-4.072a1.8,1.8,0,0,0,1.319-.545,1.8,1.8,0,0,0,.545-1.319,1.8,1.8,0,0,0-.545-1.318,1.8,1.8,0,0,0-1.319-.545,1.8,1.8,0,0,0-1.319.545,1.8,1.8,0,0,0-.545,1.318,1.8,1.8,0,0,0,.545,1.319A1.8,1.8,0,0,0,67.331-886.89Zm0-.86a.963.963,0,0,1-.713-.294.974.974,0,0,1-.29-.709.973.973,0,0,1,.29-.709.963.963,0,0,1,.713-.294.966.966,0,0,1,.709.294.967.967,0,0,1,.294.709.967.967,0,0,1-.294.709A.967.967,0,0,1,67.331-887.75ZM67.347-888.753Zm-.566,4.8H67.9l.209-1.6a3.556,3.556,0,0,0,.916-.358,3.2,3.2,0,0,0,.779-.612l1.519.659.5-.927L70.5-887.76q.057-.252.1-.5a3.078,3.078,0,0,0,.04-.5,3.738,3.738,0,0,0-.033-.5,3.512,3.512,0,0,0-.1-.5l1.339-.973-.508-.927-1.511.659a3.118,3.118,0,0,0-.761-.652,2.348,2.348,0,0,0-.942-.326l-.2-1.589H66.781l-.193,1.589a2.891,2.891,0,0,0-.942.348,3.228,3.228,0,0,0-.777.63l-1.5-.659-.508.927,1.323.964q-.057.252-.1.5a3.153,3.153,0,0,0-.04.5,3.231,3.231,0,0,0,.04.5q.04.253.1.5l-1.323.965.508.927,1.5-.659a3.617,3.617,0,0,0,.791.612,3.432,3.432,0,0,0,.928.366Z" transform="translate(-61.347 894.696)" fill="#141414"/>
</svg>
