<svg viewBox="0 0 47 32" fill="none" xmlns="http://www.w3.org/2000/svg">
<path d="M0 4C0 1.791 1.80343 0 4.02854 0H42.9715C45.1966 0 47 1.791 47 4V28C47 30.209 45.1966 32 42.9715 32H4.02854C1.80343 32 0 30.209 0 28V4Z" fill="white"/>
<path fill-rule="evenodd" clip-rule="evenodd" d="M7.77545 10.0316C6.90808 10.033 6.20631 10.6504 6.20462 11.4133V11.4133V20.5868V20.5868C6.20483 20.6821 6.21599 20.7752 6.23703 20.8651C6.26046 20.9651 6.29615 21.0612 6.34266 21.1521C6.58862 21.6328 7.1372 21.9674 7.77545 21.9685H24.1192V21.9685V10.0316V10.0316H7.77545ZM7.77533 9H39.0549C40.5702 9.00023 41.7979 10.0799 41.7984 11.4133V20.5868C41.7979 21.9197 40.5702 22.9995 39.0549 23H7.77533C6.25992 22.9995 5.03238 21.9197 5.03186 20.5868V11.4133C5.03238 10.0799 6.25992 9.00023 7.77533 9Z" fill="#0F3365"/>
<path fill-rule="evenodd" clip-rule="evenodd" d="M26.7939 19.0862H25.4218V14.1833H26.6873V14.8138H26.7026C26.977 14.3242 27.5566 14.1029 28.1818 14.1029C29.2798 14.1029 29.8817 15.0218 29.8817 15.8667C29.8817 16.8997 29.249 17.7582 28.0672 17.7582C27.587 17.7582 27.0685 17.6041 26.8092 17.1883H26.7939V19.0862ZM27.6331 16.8326C28.1512 16.8326 28.4639 16.4505 28.4639 15.8937C28.4639 15.4307 28.1666 15.0284 27.6331 15.0284C27.1297 15.0284 26.7939 15.4175 26.7939 15.9405C26.7939 16.4505 27.1755 16.8326 27.6331 16.8326ZM35.1399 19.0862C35.4222 19.14 35.7041 19.1669 35.9939 19.1669C37.1808 19.1669 37.5125 18.4086 37.8724 17.5856L37.8725 17.5855C37.8941 17.536 37.9158 17.4864 37.9378 17.4366L39.3943 14.1833H38.022L37.206 16.4636H37.1908L36.3368 14.1833H34.8582L36.4662 17.7582C36.3677 18.0667 36.1083 18.2412 35.7734 18.2412C35.5822 18.2412 35.4144 18.2214 35.2318 18.1673L35.1399 19.0862ZM34.6285 17.7913C34.5676 17.5164 34.552 17.2416 34.552 16.9664V15.6653C34.552 14.5988 33.6754 14.2167 32.6614 14.2167C32.0741 14.2167 31.5634 14.2902 31.0755 14.4649L31.0981 15.283C31.4797 15.0954 31.9217 15.0215 32.3637 15.0215C32.8595 15.0215 33.2638 15.1489 33.2713 15.6253C33.0959 15.5982 32.8522 15.5779 32.631 15.5779C31.899 15.5779 30.5801 15.7057 30.5801 16.7721C30.5801 17.5302 31.2815 17.8722 32.0668 17.8722C32.631 17.8722 33.0122 17.6774 33.3246 17.2416H33.3396C33.3396 17.3479 33.3476 17.4544 33.3558 17.562C33.3615 17.6377 33.3673 17.714 33.3703 17.7913H34.6285ZM31.8606 16.685C31.8606 16.3496 32.2265 16.2222 32.6917 16.2222C32.8375 16.2222 32.9795 16.2289 33.1121 16.2352L33.1122 16.2352C33.1669 16.2378 33.22 16.2403 33.2712 16.2422C33.2712 16.6512 32.9436 17.0676 32.4247 17.0676C32.1046 17.0676 31.8606 16.9261 31.8606 16.685Z" fill="#FFFFFE"/>
<path fill-rule="evenodd" clip-rule="evenodd" d="M13.4953 17.6775H14.8676V14.1833H13.4953V17.6775ZM13.4954 13.6131H14.8676V12.7278H13.4954V13.6131ZM18.2238 14.1029C18.3837 14.1029 18.5514 14.123 18.6887 14.1428L18.6199 15.1489C18.4677 15.1088 18.315 15.1088 18.1551 15.1088C17.5148 15.1088 17.1563 15.518 17.1563 16.2023V17.6775H15.784V14.1833H17.0344V14.827H17.0495C17.2859 14.3846 17.6291 14.1029 18.2238 14.1029ZM23.3613 15.934C23.3613 17.0877 22.3625 17.7582 21.0515 17.7582C19.7402 17.7582 18.7414 17.0877 18.7414 15.934C18.7414 14.7734 19.7402 14.1029 21.0515 14.1029C22.3625 14.1029 23.3613 14.7734 23.3613 15.934ZM20.1597 15.934C20.1597 16.4505 20.4189 16.9131 21.0518 16.9131C21.6845 16.9131 21.9438 16.4505 21.9438 15.934C21.9438 15.4108 21.6845 14.948 21.0518 14.948C20.4189 14.948 20.1597 15.4108 20.1597 15.934ZM11.3054 14.1833H12.5483V17.2688C12.5483 18.7039 11.7555 19.1669 10.1544 19.1669C9.49883 19.1669 8.95749 19.0459 8.63717 18.9457L8.70596 17.9931C9.12517 18.1743 9.47586 18.2814 10.0477 18.2814C10.8407 18.2814 11.2675 17.9529 11.2675 17.2688V17.0806H11.252C10.9244 17.4903 10.4671 17.6775 9.91818 17.6775C8.82783 17.6775 8.14929 16.9538 8.14929 15.9204C8.14929 14.8807 8.70596 14.1029 9.94089 14.1029C10.5278 14.1029 11.0006 14.3846 11.2904 14.8136H11.3054V14.1833ZM10.3451 15.0284C9.83422 15.0284 9.56738 15.4242 9.56738 15.9002C9.56738 16.4433 9.93338 16.7522 10.3451 16.7522C10.8328 16.7522 11.2218 16.3901 11.2218 15.8532C11.2218 15.464 10.9625 15.0284 10.3451 15.0284Z" fill="#D8232A"/>
</svg>
