<svg viewBox="0 0 47 32" fill="none" xmlns="http://www.w3.org/2000/svg">
<g clip-path="url(#clip0_19_109)">
<path d="M0 4C0 1.791 1.80343 0 4.02854 0H42.9715C45.1966 0 47 1.791 47 4V28C47 30.209 45.1966 32 42.9715 32H4.02854C1.80343 32 0 30.209 0 28V4Z" fill="white"/>
<path d="M22.8398 16.56V20.858H21.444V10.228H25.072C25.9556 10.228 26.7929 10.552 27.444 11.152C28.0951 11.707 28.4212 12.539 28.4212 13.417C28.4212 14.295 28.0951 15.081 27.444 15.682C26.7929 16.283 26.0019 16.606 25.072 16.606L22.8398 16.56ZM22.8398 11.522V15.219H25.1656C25.6768 15.219 26.1891 15.034 26.5141 14.664C27.2578 13.971 27.2578 12.815 26.5604 12.122L26.5141 12.076C26.1418 11.706 25.6768 11.475 25.1656 11.521H22.8398V11.522Z" fill="#5F6368"/>
<path d="M31.6305 13.371C32.654 13.371 33.444 13.648 34.0489 14.203C34.6537 14.758 34.9325 15.497 34.9325 16.421V20.858H33.6302V19.841H33.5839C33.0254 20.673 32.2354 21.089 31.3045 21.089C30.5134 21.089 29.816 20.858 29.2575 20.396C28.7462 19.934 28.4202 19.287 28.4202 18.594C28.4202 17.855 28.6989 17.254 29.2575 16.792C29.816 16.33 30.606 16.145 31.5369 16.145C32.3742 16.145 33.0254 16.284 33.5366 16.607V16.283C33.5366 15.821 33.3504 15.359 32.9781 15.081C32.6057 14.757 32.1408 14.573 31.6295 14.573C30.8385 14.573 30.2337 14.897 29.816 15.544L28.6063 14.805C29.3501 13.834 30.3273 13.372 31.6295 13.372L31.6305 13.371ZM29.8633 18.64C29.8633 19.01 30.0495 19.333 30.3283 19.518C30.6543 19.749 31.0257 19.888 31.398 19.888C31.9566 19.888 32.5141 19.657 32.9328 19.241C33.3977 18.825 33.6302 18.317 33.6302 17.762C33.2115 17.438 32.6067 17.254 31.8167 17.254C31.2582 17.254 30.7932 17.393 30.4209 17.67C30.0485 17.901 29.8623 18.225 29.8623 18.641L29.8633 18.64Z" fill="#5F6368"/>
<path d="M42.4683 13.602L37.8631 24.093H36.4673L38.1882 20.442L35.165 13.648H36.6535L38.8393 18.871H38.8856L41.0252 13.648H42.4673L42.4683 13.602Z" fill="#5F6368"/>
<path d="M17.3048 15.636C17.3048 15.22 17.2585 14.804 17.2122 14.388H11.3983V16.745H14.7003C14.5604 17.484 14.1417 18.178 13.4906 18.594V20.119H15.4903C16.6526 19.056 17.3048 17.485 17.3048 15.636Z" fill="#4285F4"/>
<path d="M11.3972 21.598C13.0719 21.598 14.4667 21.043 15.4902 20.119L13.4905 18.594C12.932 18.964 12.2346 19.195 11.3972 19.195C9.81622 19.195 8.42037 18.132 7.95543 16.653H5.90845V18.224C6.97823 20.304 9.0715 21.598 11.3972 21.598Z" fill="#34A853"/>
<path d="M7.95541 16.653C7.67664 15.914 7.67664 15.082 7.95541 14.296V12.725H5.90843C5.02483 14.435 5.02483 16.469 5.90843 18.225L7.95541 16.653Z" fill="#FBBC04"/>
<path d="M11.3319 11.8C12.2155 11.8 13.0528 12.124 13.704 12.724L15.4712 10.968C14.3551 9.95101 12.8666 9.35001 11.3782 9.39701C9.05246 9.39701 6.91289 10.691 5.8894 12.771L7.93638 14.342C8.35504 12.863 9.74988 11.8 11.3319 11.8Z" fill="#EA4335"/>
</g>
<defs>
<clipPath id="clip0_19_109">
<rect width="47" height="32" fill="white"/>
</clipPath>
</defs>
</svg>
