<svg viewBox="0 0 47 32" fill="none" xmlns="http://www.w3.org/2000/svg">
<path d="M0 4C0 1.791 1.80343 0 4.02854 0H42.9715C45.1966 0 47 1.791 47 4V28C47 30.209 45.1966 32 42.9715 32H4.02854C1.80343 32 0 30.209 0 28V4Z" fill="white"/>
<path d="M31.3203 16.4453C32.1212 16.4626 32.9267 16.4101 33.7244 16.4725C34.5323 16.6223 34.727 17.8375 34.0093 18.2355C33.5196 18.4977 32.9378 18.3332 32.4069 18.3795H31.3203V16.4453V16.4453ZM34.1875 14.2561C34.3655 14.8802 33.76 15.4405 33.1551 15.3546H31.3203C31.3332 14.766 31.2951 14.1272 31.3389 13.5696C32.0739 13.5902 32.8157 13.5277 33.5465 13.6023C33.8605 13.6807 34.1232 13.9372 34.1875 14.2561V14.2561ZM38.6031 5.00068C38.6373 6.19258 38.6081 7.44747 38.6179 8.66354C38.6156 13.6077 38.6227 18.5516 38.614 23.496C38.5818 25.3489 36.9291 26.959 35.0773 26.996C33.2237 27.0034 31.3698 26.9971 29.5159 26.9992V19.5247C31.5358 19.5143 33.5567 19.5457 35.5758 19.509C36.5124 19.4506 37.5384 18.8365 37.582 17.8123C37.6923 16.7836 36.7163 16.0721 35.7896 15.9598C35.4334 15.9506 35.4438 15.8566 35.7896 15.8156C36.6734 15.6258 37.3675 14.7169 37.1074 13.8066C36.8858 12.8492 35.8209 12.4786 34.9351 12.4805C33.129 12.4683 31.3225 12.4788 29.5163 12.4752C29.5279 11.0798 29.4919 9.68293 29.5357 8.28856C29.6788 6.46908 31.373 4.96861 33.1988 5.00116C35.0005 5.00089 36.8019 5.00089 38.6031 5.00082V5.00068Z" fill="url(#paint0_linear_11_624)"/>
<path d="M9.10541 8.47695C9.15154 6.62696 10.8112 5.03012 12.6607 5.00308C14.5075 4.99743 16.3545 5.00226 18.2013 5.00063C18.1962 11.1903 18.2113 17.3806 18.1937 23.57C18.1225 25.3975 16.481 26.9639 14.6517 26.9962C12.8014 27.0029 10.9509 26.9972 9.10055 26.999V19.2726C10.8978 19.6945 12.7826 19.8741 14.6162 19.5942C15.7122 19.419 16.9113 18.8842 17.2824 17.7543C17.5554 16.7879 17.4017 15.7707 17.4424 14.7788V12.4752H14.2692C14.255 13.9987 14.2984 15.5249 14.2462 17.0467C14.1607 17.982 13.2285 18.5763 12.3407 18.5445C11.2397 18.5561 9.05792 17.7517 9.05792 17.7517C9.05243 14.8972 9.08986 11.3223 9.10541 8.47722V8.47695Z" fill="url(#paint1_linear_11_624)"/>
<path d="M19.3846 13.4044C19.2176 13.4396 19.351 12.8391 19.3083 12.6113C19.3197 11.1709 19.2846 9.7289 19.3277 8.28952C19.4704 6.46234 21.1777 4.95812 23.0109 5.00089H28.4095C28.4044 11.1906 28.4194 17.3809 28.4019 23.5702C28.3307 25.3977 26.689 26.9641 24.8596 26.9965C23.0093 27.0034 21.1587 26.9976 19.3083 26.9994V18.534C20.572 19.5643 22.2897 19.7247 23.8642 19.7275C25.0511 19.7271 26.2311 19.5453 27.3838 19.2733V17.7224C26.0848 18.3657 24.5578 18.7743 23.1178 18.4047C22.1133 18.1563 21.3841 17.1916 21.4003 16.1616C21.284 15.0904 21.9159 13.9594 22.9753 13.641C24.2906 13.2318 25.7242 13.5447 26.9571 14.0767C27.2212 14.2141 27.4894 14.3846 27.3837 13.9459V12.7269C25.3217 12.2394 23.1272 12.06 21.0556 12.5903C20.4559 12.7584 19.8717 13.0133 19.3846 13.4046V13.4044Z" fill="url(#paint2_linear_11_624)"/>
<defs>
<linearGradient id="paint0_linear_11_624" x1="29.4537" y1="15.5296" x2="38.5605" y2="15.5296" gradientUnits="userSpaceOnUse">
<stop stop-color="#58B03A"/>
<stop offset="1" stop-color="#55B330"/>
</linearGradient>
<linearGradient id="paint1_linear_11_624" x1="8.90692" y1="16.2105" x2="18.0521" y2="16.2105" gradientUnits="userSpaceOnUse">
<stop stop-color="#0F6EB6"/>
<stop offset="1" stop-color="#006DBA"/>
</linearGradient>
<linearGradient id="paint2_linear_11_624" x1="19.2949" y1="15.7429" x2="28.4078" y2="15.7429" gradientUnits="userSpaceOnUse">
<stop stop-color="#DE0D3D"/>
<stop offset="1" stop-color="#E30138"/>
</linearGradient>
</defs>
</svg>
