<svg viewBox="0 0 47 32" fill="none" xmlns="http://www.w3.org/2000/svg">
<path d="M0 4C0 1.791 1.80343 0 4.02854 0H42.9715C45.1966 0 47 1.791 47 4V28C47 30.209 45.1966 32 42.9715 32H4.02854C1.80343 32 0 30.209 0 28V4Z" fill="#FEB4C7"/>
<path d="M11.645 11H9.786C9.786 12.565 9.085 14.002 7.864 14.942L7.127 15.509L9.981 19.507H12.327L9.701 15.828C10.946 14.555 11.645 12.842 11.645 11ZM14.675 19.504H12.88V11.002H14.675V19.504ZM20.098 13.623V13.999C19.614 13.66 19.029 13.46 18.399 13.46C16.731 13.46 15.378 14.849 15.378 16.563C15.378 18.277 16.73 19.666 18.399 19.666C19.029 19.666 19.614 19.467 20.098 19.127V19.503H21.812V13.622H20.098V13.623ZM20.093 16.563C20.093 17.399 19.398 18.076 18.54 18.076C17.682 18.076 16.987 17.398 16.987 16.563C16.987 15.728 17.682 15.05 18.54 15.05C19.398 15.05 20.093 15.727 20.093 16.563ZM38.182 13.999V13.623H39.896V19.504H38.182V19.128C37.698 19.467 37.113 19.667 36.483 19.667C34.815 19.667 33.462 18.278 33.462 16.564C33.462 14.85 34.815 13.461 36.483 13.461C37.113 13.461 37.698 13.66 38.182 14V13.999ZM36.623 18.076C37.481 18.076 38.176 17.398 38.176 16.563C38.176 15.728 37.481 15.05 36.623 15.05C35.765 15.05 35.07 15.727 35.07 16.563C35.07 17.399 35.765 18.076 36.623 18.076ZM40.639 18.523C40.639 17.913 41.121 17.418 41.715 17.418C42.309 17.418 42.791 17.913 42.791 18.523C42.791 19.133 42.309 19.628 41.715 19.628C41.121 19.628 40.639 19.133 40.639 18.523ZM30.415 13.464C29.73 13.464 29.082 13.682 28.649 14.285V13.623H26.942V19.504H28.67V16.413C28.67 15.519 29.254 15.081 29.957 15.081C30.71 15.081 31.143 15.543 31.143 16.401V19.504H32.855V15.764C32.855 14.395 31.796 13.464 30.415 13.464ZM24.464 13.623V14.389C24.808 13.929 25.448 13.623 26.144 13.623V15.334H26.14H26.134H26.13H26.123C25.445 15.334 24.467 15.832 24.467 16.758V19.504H22.708V13.623H24.464ZM6.9 19.506H5V11H6.9V19.506Z" fill="#17120F"/>
</svg>
