<svg width="47" height="32" viewBox="0 0 47 32" fill="none" xmlns="http://www.w3.org/2000/svg">
<path d="M0 4C0 1.791 1.80343 0 4.02854 0H42.9715C45.1966 0 47 1.791 47 4V28C47 30.209 45.1966 32 42.9715 32H4.02854C1.80343 32 0 30.209 0 28V4Z" fill="white"/>
<g clip-path="url(#clip0_21_292)">
<mask id="mask0_21_292" style="mask-type:luminance" maskUnits="userSpaceOnUse" x="5" y="2" width="37" height="29">
<path d="M41.0234 2.95536H5.97437V30.9439H41.0234V2.95536Z" fill="white"/>
</mask>
<g mask="url(#mask0_21_292)">
<path d="M18.6959 26.5521C18.8656 26.5483 19.0339 26.5821 19.1882 26.6511C19.3242 26.7142 19.4448 26.8053 19.5417 26.918V25.3901H19.9558V28.9505H19.5417V28.6365C19.4442 28.748 19.3238 28.8382 19.1882 28.901C19.0339 28.97 18.8656 29.0039 18.6959 29C18.5338 29.0013 18.3732 28.9701 18.2238 28.9083C18.0805 28.8495 17.9508 28.763 17.8425 28.6538C17.733 28.5423 17.6468 28.4107 17.5888 28.2667C17.466 27.9506 17.466 27.6013 17.5888 27.2851C17.6469 27.1412 17.733 27.0098 17.8425 26.8983C17.9509 26.7891 18.0805 26.7025 18.2238 26.6435C18.3732 26.582 18.5339 26.5509 18.6959 26.5521ZM18.7439 26.933C18.6273 26.9314 18.5116 26.9537 18.4043 26.9985C18.3053 27.0401 18.2163 27.1016 18.143 27.179C18.0699 27.2568 18.0133 27.348 17.9764 27.4473C17.9371 27.5526 17.9175 27.664 17.9184 27.7761C17.9174 27.8883 17.9376 27.9997 17.9777 28.1048C18.0153 28.2041 18.0723 28.2953 18.1456 28.3731C18.219 28.4506 18.308 28.5124 18.4069 28.5548C18.5131 28.6003 18.628 28.6231 18.7439 28.6217C18.8583 28.623 18.9718 28.6011 19.0771 28.5574C19.1755 28.5164 19.2641 28.4557 19.3372 28.3793C19.4109 28.3015 19.4683 28.2104 19.5063 28.111C19.5872 27.8951 19.5872 27.6582 19.5063 27.4423C19.468 27.3434 19.4106 27.2527 19.3372 27.1752C19.264 27.0989 19.1755 27.0384 19.0771 26.9973C18.9718 26.9536 18.8583 26.9317 18.7439 26.933ZM21.7988 26.5521C21.9541 26.5506 22.108 26.5809 22.2507 26.6411C22.3861 26.6987 22.5074 26.7838 22.6066 26.8909C22.709 27.0031 22.7883 27.1337 22.8402 27.2754C22.8981 27.4337 22.9276 27.6006 22.9273 27.7687C22.9273 27.7951 22.9264 27.8211 22.9247 27.8465C22.923 27.872 22.9213 27.8963 22.9197 27.9194H21.0337C21.0456 28.0304 21.0776 28.1385 21.1284 28.2384C21.1731 28.3249 21.2344 28.4021 21.3089 28.4658C21.3813 28.5269 21.4654 28.5732 21.5564 28.6019C21.651 28.6319 21.7498 28.6469 21.8492 28.6465C21.9859 28.6474 22.1214 28.6221 22.2481 28.5722C22.3726 28.5227 22.4878 28.4534 22.589 28.367L22.8086 28.6438C22.7384 28.7085 22.6614 28.7657 22.5789 28.8145C22.5023 28.8596 22.4211 28.8964 22.3365 28.9245C22.2544 28.9516 22.1699 28.971 22.0841 28.9826C21.9978 28.9941 21.9109 29 21.8239 29C21.656 29.0019 21.4893 28.9721 21.3329 28.9122C21.188 28.8563 21.0569 28.7712 20.9479 28.6624C20.8382 28.5515 20.7527 28.4198 20.6967 28.2755C20.5772 27.9541 20.5772 27.6018 20.6967 27.2804C20.7521 27.1363 20.8367 27.0046 20.9453 26.8933C21.0525 26.7854 21.1809 26.7001 21.3228 26.6423C21.4736 26.5813 21.6355 26.5506 21.7988 26.5521ZM21.7911 26.9107C21.6927 26.9093 21.595 26.9265 21.5033 26.9614C21.4201 26.9935 21.3442 27.0414 21.2799 27.1023C21.2153 27.1645 21.1624 27.2373 21.1233 27.3173C21.0809 27.4044 21.0524 27.4974 21.0388 27.593H22.5056C22.4939 27.4957 22.4671 27.4007 22.4261 27.3114C22.3894 27.2312 22.3381 27.1582 22.2746 27.0961C22.2132 27.0368 22.1402 26.9902 22.06 26.959C21.9744 26.9261 21.8831 26.9097 21.7911 26.9107ZM24.8361 26.5521C24.9977 26.5508 25.1579 26.5819 25.3068 26.6435C25.4494 26.7027 25.5786 26.7894 25.6865 26.8983C25.7962 27.0099 25.8829 27.1413 25.9417 27.2851C26.0662 27.601 26.0662 27.9509 25.9417 28.2667C25.883 28.4107 25.7963 28.5422 25.6865 28.6538C25.5786 28.7628 25.4495 28.8493 25.3068 28.9083C25.1579 28.9701 24.9977 29.0013 24.8361 29C24.6656 29.0041 24.4964 28.9702 24.3411 28.901C24.206 28.8386 24.0863 28.7484 23.9901 28.6365V28.9505H23.5785V25.3901H23.9901V26.9157C24.0863 26.8037 24.206 26.7135 24.3411 26.6511C24.4964 26.5819 24.6656 26.548 24.8361 26.5521ZM24.788 26.933C24.6734 26.9317 24.5599 26.9536 24.4544 26.9973C24.3562 27.0383 24.2678 27.0989 24.1948 27.1752C24.1213 27.2527 24.0639 27.3434 24.0256 27.4423C23.9445 27.6581 23.9445 27.8952 24.0256 28.111C24.0636 28.2104 24.1211 28.3016 24.1948 28.3793C24.2677 28.4558 24.3562 28.5164 24.4544 28.5574C24.5599 28.6011 24.6734 28.623 24.788 28.6217C24.9043 28.6233 25.0197 28.6005 25.1264 28.5548C25.2247 28.5121 25.3132 28.4503 25.3865 28.3731C25.4595 28.2953 25.516 28.2041 25.5527 28.1048C25.5922 27.9996 25.612 27.8882 25.6111 27.7761C25.6119 27.6638 25.5918 27.5524 25.5518 27.4473C25.5139 27.348 25.4568 27.2569 25.3836 27.179C25.3106 27.1019 25.2222 27.0405 25.1239 26.9985C25.0179 26.9538 24.9034 26.9315 24.788 26.933ZM26.8884 25.4865C26.9668 25.4863 27.0421 25.5165 27.0979 25.5705C27.1256 25.5973 27.1475 25.6293 27.1622 25.6646C27.177 25.6998 27.1844 25.7376 27.184 25.7757C27.1841 25.814 27.1764 25.8519 27.1611 25.8872C27.1464 25.9212 27.1248 25.9519 27.0977 25.9776C27.0706 26.0033 27.0385 26.0234 27.0034 26.0367C26.9667 26.0508 26.9277 26.0579 26.8884 26.0576C26.8495 26.0579 26.8109 26.0508 26.7748 26.0367C26.7404 26.0232 26.709 26.003 26.6827 25.9774C26.6564 25.9515 26.6355 25.9208 26.621 25.8872C26.6056 25.852 26.5978 25.814 26.5981 25.7757C26.5976 25.7367 26.6054 25.6979 26.621 25.6619C26.6357 25.628 26.6566 25.597 26.6827 25.5705C26.7095 25.5437 26.7415 25.5225 26.7768 25.5081C26.8121 25.4936 26.8501 25.4863 26.8884 25.4865ZM27.0979 28.9505H26.6866V26.6016H27.0979V28.9505ZM29.5593 26.9699H28.5519V28.1149C28.5501 28.1924 28.5617 28.2697 28.5862 28.3434C28.6057 28.4019 28.638 28.4555 28.6808 28.5005C28.7205 28.5413 28.7694 28.5726 28.8235 28.5919C28.8813 28.6123 28.9424 28.6224 29.0038 28.6217C29.0925 28.6217 29.1805 28.6067 29.264 28.5772C29.3452 28.5489 29.4223 28.5107 29.4937 28.4634L29.6882 28.7674C29.5901 28.8362 29.4831 28.892 29.3699 28.9331C29.2414 28.9792 29.1054 29.0019 28.9686 29C28.8502 29.0017 28.7324 28.9837 28.6202 28.9467C28.5212 28.9138 28.4317 28.8583 28.3589 28.7848C28.2841 28.7069 28.228 28.6136 28.1948 28.5117C28.1544 28.3858 28.1352 28.2542 28.1379 28.1222V26.9699H27.6254V26.6016H28.1379V25.8648H28.5519V26.6016H29.5593V26.9699Z" fill="black"/>
<path d="M27.4 6.87598H19.5592V20.6765H27.4V6.87598Z" fill="#FF5F00"/>
<path d="M20.0766 13.7764C20.0753 12.4473 20.3829 11.1353 20.9761 9.9398C21.5692 8.74433 22.4324 7.6967 23.5001 6.87625C22.1781 5.85863 20.5903 5.22581 18.9184 5.0501C17.2465 4.8744 15.5578 5.1629 14.0454 5.88263C12.533 6.60237 11.2578 7.7243 10.3657 9.1202C9.47358 10.5161 9.00049 12.1296 9.00049 13.7764C9.00049 15.4232 9.47358 17.0367 10.3657 18.4326C11.2578 19.8285 12.533 20.9504 14.0454 21.6702C15.5578 22.3899 17.2465 22.6784 18.9184 22.5027C20.5903 22.327 22.1781 21.6942 23.5001 20.6765C22.4324 19.8561 21.5692 18.8085 20.9761 17.613C20.3829 16.4175 20.0753 15.1055 20.0766 13.7764Z" fill="#EB001B"/>
<path d="M37.1443 19.2145V18.932H37.2607V18.8745H36.9646V18.932H37.081V19.2145H37.1443ZM37.7196 19.2145V18.874H37.6289L37.5242 19.1083L37.4199 18.874H37.3291V19.2145H37.3932V18.9576L37.4909 19.1791H37.5576L37.6555 18.9571V19.2145H37.7196Z" fill="#F79E1B"/>
<path d="M29.0383 5.00001C27.0291 4.99696 25.0777 5.65804 23.4999 6.87625C24.5667 7.69752 25.4292 8.74531 26.0223 9.9406C26.6153 11.1359 26.9235 12.4475 26.9235 13.7764C26.9235 15.1053 26.6153 16.4169 26.0223 17.6122C25.4292 18.8075 24.5667 19.8553 23.4999 20.6765C24.623 21.5411 25.941 22.1303 27.3438 22.3948C28.7467 22.6593 30.1938 22.5915 31.5644 22.1971C32.9351 21.8027 34.1896 21.0932 35.2234 20.1276C36.2572 19.162 37.0403 17.9683 37.5074 16.6462C37.9745 15.324 38.1121 13.9116 37.9087 12.5268C37.7053 11.142 37.1667 9.82491 36.338 8.6853C35.5093 7.5457 34.4144 6.61663 33.1446 5.97557C31.8748 5.33451 30.4669 5.00002 29.0383 5.00001Z" fill="#F79E1B"/>
</g>
</g>
<defs>
<clipPath id="clip0_21_292">
<rect width="29" height="24" fill="white" transform="translate(9 5)"/>
</clipPath>
</defs>
</svg>
