<svg width="47" height="32" viewBox="0 0 47 32" fill="none" xmlns="http://www.w3.org/2000/svg">
<path d="M0 4C0 1.791 1.80343 0 4.02854 0H42.9715C45.1966 0 47 1.791 47 4V28C47 30.209 45.1966 32 42.9715 32H4.02854C1.80343 32 0 30.209 0 28V4Z" fill="white"/>
<path d="M37.9354 25.3111C37.6695 25.1352 37.3022 25.0452 36.8974 25.0452C36.2534 25.0452 35.8383 25.3533 35.8383 25.859C35.8383 26.2741 36.1471 26.529 36.7168 26.6094L36.9778 26.6462C37.2811 26.6885 37.4248 26.7689 37.4248 26.9127C37.4248 27.1096 37.2225 27.2208 36.8449 27.2208C36.4612 27.2208 36.1851 27.0987 35.999 26.955L35.738 27.3857C36.0413 27.6093 36.4244 27.7156 36.8394 27.7156C37.5741 27.7156 38 27.37 38 26.8861C38 26.439 37.6647 26.2052 37.1113 26.1249L36.8503 26.088C36.6111 26.056 36.4195 26.0082 36.4195 25.8379C36.4195 25.6518 36.6008 25.54 36.9041 25.54C37.2285 25.54 37.5427 25.6627 37.6973 25.7581L37.9366 25.3111H37.9354ZM35.2795 25.3111C35.0137 25.1352 34.6463 25.0452 34.2416 25.0452C33.5975 25.0452 33.1825 25.3533 33.1825 25.859C33.1825 26.2741 33.4912 26.529 34.0603 26.6094L34.3213 26.6462C34.6246 26.6885 34.7684 26.7689 34.7684 26.9127C34.7684 27.1096 34.566 27.2208 34.1884 27.2208C33.8054 27.2208 33.5287 27.0987 33.3426 26.955L33.0816 27.3857C33.3849 27.6093 33.7679 27.7156 34.183 27.7156C34.9176 27.7156 35.3435 27.37 35.3435 26.8861C35.3435 26.439 35.0082 26.2052 34.4548 26.1249L34.1938 26.088C33.954 26.056 33.7631 26.0082 33.7631 25.8379C33.7631 25.6518 33.9437 25.54 34.247 25.54C34.5714 25.54 34.8856 25.6627 35.0403 25.7581L35.2795 25.3111ZM28.9413 26.3695C28.9413 26.8166 28.6489 27.1833 28.1698 27.1833C27.7119 27.1833 27.4031 26.8323 27.4031 26.3695C27.4031 25.9068 27.7119 25.5557 28.1698 25.5557C28.6489 25.5557 28.9413 25.9231 28.9413 26.3695ZM26.8818 26.3695V28.5614H27.4352V27.3326C27.611 27.5615 27.8768 27.7047 28.2387 27.7047C28.9516 27.7047 29.5104 27.1465 29.5104 26.3695C29.5104 25.5926 28.9516 25.0344 28.2387 25.0344C27.8768 25.0344 27.611 25.1781 27.4352 25.4065V25.0984H26.8818V26.3695ZM30.4849 26.375C30.4849 25.9279 30.7779 25.5612 31.257 25.5612C31.7144 25.5612 32.0231 25.9122 32.0231 26.375C32.0231 26.8378 31.7144 27.1888 31.257 27.1888C30.7779 27.1888 30.4849 26.822 30.4849 26.375ZM32.5445 26.375V25.1032H31.9911V25.4119C31.8153 25.183 31.5494 25.0398 31.187 25.0398C30.4741 25.0398 29.9152 25.598 29.9152 26.375C29.9152 27.1519 30.4741 27.7102 31.187 27.7102C31.5488 27.7102 31.8153 27.5664 31.9911 27.3374V27.6461H32.5445V26.375ZM14.0936 26.375C14.0936 25.9279 14.386 25.5612 14.8651 25.5612C15.3225 25.5612 15.6318 25.9122 15.6318 26.375C15.6318 26.8378 15.3231 27.1888 14.8651 27.1888C14.386 27.1888 14.0936 26.822 14.0936 26.375ZM16.1532 26.375V25.1032H15.5998V25.4119C15.424 25.183 15.1581 25.0398 14.7963 25.0398C14.0827 25.0398 13.5245 25.598 13.5245 26.375C13.5245 27.1519 14.0834 27.7102 14.7963 27.7102C15.1581 27.7102 15.424 27.5664 15.5998 27.3374V27.6461H16.1532V26.375ZM23.0182 25.5346C23.3746 25.5346 23.6036 25.7581 23.6622 26.152H22.3421C22.4007 25.7847 22.6243 25.5346 23.0182 25.5346ZM23.0285 25.0398C22.2835 25.0398 21.7622 25.5823 21.7622 26.375C21.7622 27.1833 22.3053 27.7102 23.0659 27.7102C23.4489 27.7102 23.8006 27.6141 24.1093 27.3537L23.8374 26.9441C23.6248 27.1145 23.3535 27.2099 23.0979 27.2099C22.7409 27.2099 22.4165 27.045 22.3367 26.5876H24.2259L24.2368 26.375C24.2313 25.5823 23.742 25.0398 23.0285 25.0398ZM18.8882 25.3056C18.6218 25.1298 18.255 25.0398 17.8503 25.0398C17.2062 25.0398 16.7912 25.3479 16.7912 25.8536C16.7912 26.2686 17.0999 26.5242 17.669 26.6039L17.93 26.6414C18.2333 26.6837 18.3771 26.7634 18.3771 26.9072C18.3771 27.1042 18.1747 27.216 17.7971 27.216C17.4135 27.216 17.1367 27.0933 16.9507 26.9495L16.6897 27.3803C16.993 27.6038 17.3766 27.7102 17.7917 27.7102C18.5263 27.7102 18.9516 27.364 18.9516 26.88C18.9516 26.433 18.6163 26.1992 18.0629 26.1194L17.8019 26.082C17.5627 26.0505 17.3712 26.0022 17.3712 25.8318C17.3712 25.6458 17.5524 25.534 17.8551 25.534C18.1801 25.534 18.4937 25.6566 18.6483 25.7521L18.8882 25.3056ZM26.0251 25.0398C25.7055 25.0398 25.4982 25.1884 25.3545 25.4119V25.1032H24.8065V27.6461H25.3599V26.2203C25.3599 25.7998 25.5405 25.566 25.9024 25.566C26.0142 25.566 26.1314 25.5817 26.2486 25.63L26.419 25.1087C26.2969 25.0609 26.1368 25.0398 26.0251 25.0398ZM21.3042 25.1032H20.3998V24.3317H19.8409V25.1032H19.3244V25.6089H19.8409V26.7689C19.8409 27.3591 20.0699 27.7108 20.7242 27.7108C20.9641 27.7108 21.2402 27.6364 21.416 27.5138L21.2565 27.0401C21.0915 27.1356 20.9103 27.1839 20.7665 27.1839C20.4898 27.1839 20.3992 27.0136 20.3992 26.7586V25.6095H21.3036V25.1038L21.3042 25.1032ZM13.0339 27.6461V26.0505C13.0339 25.4494 12.6509 25.0452 12.0335 25.0398C11.709 25.0344 11.3737 25.1352 11.1393 25.4917C10.9641 25.2102 10.6874 25.0398 10.2989 25.0398C10.0277 25.0398 9.76123 25.1195 9.55341 25.4174V25.1032H9V27.6461H9.55884V26.2366C9.55884 25.795 9.80352 25.5612 10.1817 25.5612C10.5491 25.5612 10.7351 25.8004 10.7351 26.2312V27.6461H11.294V26.2366C11.294 25.795 11.5495 25.5612 11.9169 25.5612C12.2945 25.5612 12.4757 25.8004 12.4757 26.2312V27.6461H13.0339Z" fill="black"/>
<path d="M15.3436 20.7624H31.6558V6.87952H15.3436V20.7624Z" fill="#FF5F00"/>
<path d="M20.0766 13.8255C20.0766 11.0107 21.4154 8.50289 23.4997 6.88677C21.9754 5.70505 20.0518 5 17.9614 5C13.0122 5 9 8.95177 9 13.8261C9 18.6998 13.0122 22.6522 17.9614 22.6522C20.0524 22.6522 21.976 21.9471 23.4997 20.7654C21.416 19.1493 20.0766 16.642 20.0766 13.8267" fill="#EC001B"/>
<path d="M37.9995 13.8255C37.9995 18.6992 33.9873 22.6516 29.038 22.6516C26.9471 22.6516 25.0246 21.9465 23.4998 20.7648C25.5847 19.1487 26.9229 16.6414 26.9229 13.8261C26.9229 11.0113 25.5847 8.50349 23.4998 6.88738C25.0246 5.70565 26.9477 5.0006 29.038 5.0006C33.9873 5.0006 37.9995 8.95237 37.9995 13.8267" fill="#F89E1B"/>
</svg>
