<svg width="47" height="32" viewBox="0 0 47 32" fill="none" xmlns="http://www.w3.org/2000/svg">
<path d="M0 4C0 1.791 1.80343 0 4.02854 0H42.9715C45.1966 0 47 1.791 47 4V28C47 30.209 45.1966 32 42.9715 32H4.02854C1.80343 32 0 30.209 0 28V4Z" fill="#FFCC00"/>
<path d="M22.4756 14.741V8.93574H16.2339V13.3442H12V19.3677H16.2339V23.7762H22.4756V17.9709H20.9915V22.3794H17.7179V17.9709H13.484V14.741H17.7179V10.3325H20.9915V14.741H22.4756Z" fill="#FF0000"/>
<path d="M31.0142 14.2195C31.0142 15.2726 30.1449 16.0941 29.0425 16.0941H27.3642V12.4713H29.0425C30.1873 12.4713 31.0142 13.2084 31.0142 14.2195ZM29.7633 8.93574H23.3485V23.7762H27.3642V19.3677H29.7633C32.7102 19.3677 34.9999 17.1192 34.9999 14.2147C34.9999 11.289 32.6678 8.93574 29.7633 8.93574Z" fill="black"/>
</svg>
