<svg width="47" height="32" viewBox="0 0 47 32" fill="none" xmlns="http://www.w3.org/2000/svg">
<path d="M0 4C0 1.791 1.80343 0 4.02854 0H42.9715C45.1966 0 47 1.791 47 4V28C47 30.209 45.1966 32 42.9715 32H4.02854C1.80343 32 0 30.209 0 28V4Z" fill="white"/>
<path d="M34.6923 21.9197C34.6923 22.297 34.5037 22.6742 34.1264 22.8629L24.3177 28.5217C24.1291 28.5217 23.7518 28.5217 23.3746 28.5217L13.5659 22.8629C13.3773 22.6742 13 22.297 13 21.9197V10.602C13 10.2247 13.1886 9.84749 13.5659 9.65886L23.3746 4C23.7518 4 24.1291 4 24.3177 4.18863L34.1264 9.84749C34.3151 10.0361 34.6923 10.4134 34.6923 10.7906V21.9197Z" fill="black"/>
<path d="M29.0333 16.4495L26.5811 20.2221L25.0721 18.1472L26.5811 15.8836C26.7697 15.5064 27.5243 14.3746 26.7697 12.8656C26.2039 11.7338 25.0721 10.9793 23.9403 10.9793C22.8085 10.9793 21.8654 11.5451 21.1109 12.8656C20.545 14.3746 21.1109 15.5064 21.2995 15.8836C21.2995 15.8836 22.054 17.0154 22.8085 18.1472L23.9403 19.8448L25.638 22.4856C25.638 22.4856 25.8266 22.8629 26.3925 22.8629C26.7697 22.8629 27.147 22.4856 27.147 22.4856L31.1082 16.6381L29.0333 16.4495ZM23.9403 16.4495C23.9403 16.4495 23.1858 15.5064 22.8085 14.7518C22.4313 13.9973 22.8085 12.8656 23.9403 12.8656C25.0721 12.8656 25.4493 13.9973 25.0721 14.7518C24.6948 15.5064 23.9403 16.4495 23.9403 16.4495Z" fill="url(#paint0_radial_26_23)"/>
<path d="M21.4883 20.0335L19.0361 16.4495C19.0361 16.4495 18.2816 15.5064 17.9043 14.7519C17.5271 13.9973 17.9043 12.8656 19.0361 12.8656C19.2247 12.8656 19.2247 12.8656 19.4134 12.8656L20.3565 11.1679C19.9793 11.1679 19.4134 11.1679 19.0361 11.1679C18.093 11.1679 16.7726 11.5452 16.2067 12.8656C15.4522 14.3746 16.2067 15.5064 16.3953 15.8836L20.7338 22.297C20.7338 22.297 21.111 22.6743 21.4883 22.6743C21.8655 22.6743 22.2428 22.297 22.2428 22.297L23.5632 20.2221L22.4314 18.7131L21.4883 20.0335Z" fill="url(#paint1_radial_26_23)"/>
<defs>
<radialGradient id="paint0_radial_26_23" cx="0" cy="0" r="1" gradientUnits="userSpaceOnUse" gradientTransform="translate(23.1597 12.0995) scale(11.7072 13.2151)">
<stop stop-color="#FFCC00"/>
<stop offset="0.09157" stop-color="#FFC800"/>
<stop offset="0.1739" stop-color="#FFBD00"/>
<stop offset="0.2528" stop-color="#FFAB00"/>
<stop offset="0.3295" stop-color="#FF9100"/>
<stop offset="0.4046" stop-color="#FF7000"/>
<stop offset="0.4786" stop-color="#FF4700"/>
<stop offset="0.5503" stop-color="#FF1800"/>
<stop offset="0.5822" stop-color="#FF0000"/>
<stop offset="1" stop-color="#FF0000"/>
</radialGradient>
<radialGradient id="paint1_radial_26_23" cx="0" cy="0" r="1" gradientUnits="userSpaceOnUse" gradientTransform="translate(16.1037 12.7751) scale(10.7342 16.2525)">
<stop stop-color="#00B4E6"/>
<stop offset="0.201" stop-color="#00B0E3"/>
<stop offset="0.3898" stop-color="#01A5DB"/>
<stop offset="0.5737" stop-color="#0292CD"/>
<stop offset="0.7546" stop-color="#0377BA"/>
<stop offset="0.9316" stop-color="#0455A1"/>
<stop offset="1" stop-color="#054696"/>
</radialGradient>
</defs>
</svg>
