<svg width="47" height="32" viewBox="0 0 47 32" fill="none" xmlns="http://www.w3.org/2000/svg">
<path d="M0 4C0 1.791 1.80343 0 4.02854 0H42.9715C45.1966 0 47 1.791 47 4V28C47 30.209 45.1966 32 42.9715 32H4.02854C1.80343 32 0 30.209 0 28V4Z" fill="white"/>
<path d="M19.288 9.20092L14.7058 20.1331H11.7164L9.46257 11.4078C9.32647 10.8714 9.20656 10.6738 8.79177 10.4469C8.10962 10.0791 6.98676 9.73399 6 9.51849L6.06643 9.20092H10.8787C11.4912 9.20092 12.0421 9.60923 12.183 10.3157L13.374 16.6413L16.3164 9.20092H19.288ZM31.0012 16.5635C31.0125 13.6794 27.012 13.519 27.0395 12.2292C27.0493 11.8371 27.4219 11.4207 28.2402 11.3138C28.6452 11.2619 29.7633 11.2198 31.0287 11.8031L31.5245 9.48285C30.844 9.23656 29.969 9 28.8786 9C26.0819 9 24.1165 10.4842 24.1003 12.6133C24.0825 14.1882 25.5051 15.0648 26.5761 15.5897C27.6779 16.1261 28.0474 16.4696 28.0425 16.9475C28.0344 17.6815 27.1627 18.0056 26.3509 18.0186C24.9283 18.0412 24.1036 17.6346 23.4457 17.3283L22.9321 19.7247C23.5932 20.0277 24.8132 20.2918 26.0771 20.3048C29.0487 20.3048 30.9931 18.8368 31.0012 16.5635ZM38.3848 20.1331H41L38.7154 9.20092H36.3028C35.7583 9.20092 35.3014 9.51687 35.0989 10.003L30.8553 20.1331H33.8253L34.4151 18.4998H38.0446L38.3865 20.1331H38.3848ZM35.2285 16.2605L36.7176 12.1547L37.5731 16.2605H35.2285ZM23.3307 9.20092L20.9926 20.1331H18.1652L20.5016 9.20092H23.3307Z" fill="#1434CB"/>
<path d="M25.0416 25.2645V22.3091H26.8888V22.6235H25.4192V23.5681H26.589V23.8792H25.4192V24.9486H26.8888V25.2629H25.0416V25.2645Z" fill="#1434CB"/>
<path d="M27.8254 22.1924V25.2645H27.4786V22.1924H27.8254Z" fill="#1434CB"/>
<path d="M29.475 25.0393C29.671 25.0393 29.8314 25.015 29.9546 24.968C30.0777 24.9194 30.1879 24.8562 30.2867 24.7752H30.2948L30.264 25.0895C30.1992 25.1446 30.0988 25.1965 29.961 25.2451C29.8233 25.2937 29.6532 25.3196 29.4474 25.3196C29.2238 25.3196 29.0294 25.271 28.8625 25.1722C28.6956 25.0733 28.5643 24.9372 28.472 24.7639C28.378 24.5905 28.3326 24.3912 28.3326 24.1692C28.3326 23.9472 28.378 23.7479 28.4704 23.5746C28.5627 23.4012 28.6875 23.2635 28.8479 23.1646C29.0067 23.0642 29.1865 23.0156 29.3858 23.0156C29.6159 23.0156 29.8039 23.0561 29.9481 23.1387C30.0923 23.2197 30.1976 23.3348 30.2624 23.4806C30.3272 23.6264 30.3613 23.7982 30.3613 23.9926C30.3613 24.0185 30.3613 24.0493 30.358 24.0866C30.3548 24.1238 30.3515 24.1546 30.3467 24.1838H28.6859C28.6859 24.1838 28.6859 24.1887 28.6875 24.1919C28.6875 24.1951 28.6875 24.1968 28.6859 24.2C28.6907 24.4625 28.7636 24.6683 28.903 24.819C29.0423 24.9696 29.2335 25.0442 29.475 25.0442V25.0393ZM29.3891 23.2781C29.1946 23.2781 29.0375 23.338 28.9192 23.4563C28.7993 23.5762 28.728 23.7415 28.7021 23.9537H30.0275V23.9148C30.0275 23.7852 30.008 23.6734 29.9691 23.5778C29.9303 23.4838 29.8654 23.4093 29.7731 23.3558C29.6807 23.3024 29.5527 23.2764 29.3907 23.2764L29.3891 23.2781Z" fill="#1434CB"/>
<path d="M30.7273 24.1676C30.7273 23.944 30.7727 23.7463 30.8634 23.5729C30.9542 23.3996 31.0822 23.2619 31.2491 23.163C31.4143 23.0626 31.6088 23.0139 31.8324 23.0139C32.0268 23.0139 32.1824 23.0366 32.2974 23.0804C32.4124 23.1241 32.4983 23.1711 32.5518 23.2197L32.5874 23.5859H32.5793C32.4837 23.4952 32.3784 23.4255 32.2617 23.3753C32.1467 23.3267 32.009 23.3007 31.8518 23.3007C31.6946 23.3007 31.5683 23.3348 31.4532 23.4044C31.3382 23.4725 31.2474 23.5729 31.181 23.7026C31.1146 23.8322 31.0822 23.9877 31.0822 24.1692C31.0822 24.4414 31.1551 24.6521 31.3025 24.8028C31.4484 24.9534 31.6396 25.028 31.8729 25.028C31.9976 25.028 32.103 25.0166 32.1872 24.9956C32.2731 24.9729 32.3492 24.9421 32.4141 24.9016C32.4805 24.8611 32.5453 24.8157 32.6101 24.7639H32.6215L32.5858 25.0782C32.5242 25.1382 32.4303 25.1932 32.3039 25.2435C32.1775 25.2937 32.0203 25.3196 31.8307 25.3196C31.6071 25.3196 31.4127 25.271 31.2474 25.1722C31.0822 25.0733 30.9525 24.9372 30.8618 24.7639C30.7711 24.5905 30.7257 24.3912 30.7257 24.1692L30.7273 24.1676Z" fill="#1434CB"/>
<path d="M33.5855 24.6731C33.5855 24.8125 33.6147 24.9064 33.6746 24.955C33.7346 25.0037 33.8124 25.0263 33.908 25.0263C33.9955 25.0263 34.0732 25.0182 34.138 25.0037C34.2029 24.9875 34.2563 24.9696 34.2968 24.9486H34.3082L34.2774 25.2402C34.2385 25.2613 34.1802 25.2791 34.1024 25.2953C34.0246 25.3115 33.9452 25.318 33.8658 25.318C33.6714 25.318 33.5191 25.2726 33.4073 25.1803C33.2955 25.0879 33.2404 24.9372 33.2404 24.7266V23.3542H32.8353L32.8823 23.1241L33.2404 23.0739V22.604L33.5871 22.5538V23.0674H34.2596L34.2174 23.3558H33.5871V24.6747L33.5855 24.6731Z" fill="#1434CB"/>
<path d="M35.5915 23.3704C35.4197 23.3704 35.2869 23.4239 35.1913 23.5324C35.0957 23.6394 35.0471 23.803 35.0471 24.0202V25.2645H34.7003V23.0674H35.0309V23.526H35.0503C35.0989 23.3348 35.1832 23.2003 35.3031 23.1257C35.423 23.0512 35.5526 23.0123 35.6919 23.0123C35.7276 23.0123 35.7632 23.0139 35.7989 23.0188C35.8345 23.0221 35.8588 23.0269 35.875 23.0318L35.8329 23.4093H35.8216C35.8005 23.4012 35.7697 23.3931 35.7276 23.3834C35.6855 23.3737 35.6401 23.3704 35.5915 23.3704Z" fill="#1434CB"/>
<path d="M37.1858 23.0123C37.4013 23.0123 37.5908 23.0626 37.7561 23.1614C37.9214 23.2619 38.0494 23.398 38.1434 23.5713C38.2373 23.7447 38.2827 23.944 38.2827 24.166C38.2827 24.388 38.2357 24.5873 38.1434 24.7606C38.0494 24.934 37.9214 25.0701 37.7561 25.1689C37.5908 25.2678 37.4013 25.3164 37.1858 25.3164C36.9703 25.3164 36.7839 25.2678 36.6187 25.1689C36.4534 25.0701 36.3238 24.934 36.2298 24.7606C36.1358 24.5873 36.0905 24.388 36.0905 24.166C36.0905 23.944 36.1374 23.7447 36.2298 23.5713C36.3238 23.398 36.4534 23.2602 36.6187 23.1614C36.7839 23.0609 36.9735 23.0123 37.1858 23.0123ZM37.1858 25.0312C37.4288 25.0312 37.6135 24.9534 37.7367 24.7995C37.8598 24.6456 37.9214 24.4349 37.9214 24.1676C37.9214 23.9003 37.8598 23.6864 37.7367 23.5324C37.6135 23.3785 37.4304 23.3007 37.1858 23.3007C36.9411 23.3007 36.758 23.3785 36.6333 23.5324C36.5085 23.6864 36.4469 23.8986 36.4469 24.1676C36.4469 24.4366 36.5085 24.6456 36.6333 24.7995C36.758 24.9534 36.9411 25.0312 37.1858 25.0312Z" fill="#1434CB"/>
<path d="M39.924 23.0123C40.1622 23.0123 40.3485 23.0739 40.4846 23.1954C40.6191 23.3169 40.6872 23.5081 40.6872 23.7674V25.2645H40.3453V23.8646C40.3453 23.6799 40.3064 23.5422 40.227 23.4498C40.1476 23.3575 40.005 23.3121 39.7976 23.3121C39.6761 23.3121 39.5643 23.3364 39.4655 23.3866C39.3666 23.4368 39.2872 23.5065 39.2289 23.5973C39.1706 23.688 39.1414 23.7949 39.1414 23.9197V25.2645H38.7947V23.0674H39.1252V23.5341H39.1447C39.1868 23.4093 39.2484 23.3088 39.3326 23.2327C39.4169 23.1565 39.5108 23.0998 39.6162 23.0658C39.7215 23.0302 39.8236 23.0139 39.9256 23.0139L39.924 23.0123Z" fill="#1434CB"/>
</svg>
