<svg width="47" height="32" viewBox="0 0 47 32" fill="none" xmlns="http://www.w3.org/2000/svg">
<path d="M0 4C0 1.791 1.80343 0 4.02854 0H42.9715C45.1966 0 47 1.791 47 4V28C47 30.209 45.1966 32 42.9715 32H4.02854C1.80343 32 0 30.209 0 28V4Z" fill="white"/>
<g clip-path="url(#clip0_24_149)">
<path d="M35 4H12V28.9169H35V4Z" fill="#1834CB"/>
<path d="M34.4252 4.57475H12.5747V20.1808H34.4252V4.57475Z" fill="white"/>
<path d="M29.026 7.40791L24.739 17.6418H21.9397L19.83 9.47362C19.7015 8.97325 19.59 8.7873 19.2012 8.57431C18.5622 8.22946 17.5107 7.9049 16.5878 7.70543L16.6486 7.40791H21.1553C21.7301 7.40791 22.2473 7.78995 22.3758 8.44922L23.4915 14.3691L26.2469 7.40791H29.026Z" fill="#1834CB"/>
<path d="M17.7271 26.7295V21.976H19.4649C19.8064 21.976 20.1073 22.0301 20.3642 22.1349C20.6212 22.2398 20.824 22.4054 20.9694 22.6286C21.1148 22.8517 21.1858 23.1357 21.1858 23.4839C21.1858 23.8321 21.1148 24.1127 20.9694 24.3359C20.824 24.5556 20.6245 24.7213 20.3642 24.8261C20.1039 24.9309 19.8064 24.985 19.4649 24.985H18.569V26.7295H17.7238H17.7271ZM19.3398 22.6387H18.569V24.3528H19.3398C19.6508 24.3528 19.8909 24.2886 20.0565 24.1635C20.2222 24.035 20.3034 23.8152 20.3034 23.4974C20.3034 23.1796 20.2222 22.9531 20.0565 22.828C19.8909 22.7029 19.6542 22.6421 19.3398 22.6421V22.6387Z" fill="white"/>
<path d="M21.9971 26.7295H21.2229L22.9877 21.976H23.8836L25.6484 26.7295H24.7491L24.286 25.4279H22.4671L22.0039 26.7295H21.9971ZM22.6733 24.7889H24.0696L23.3833 22.8686H23.3697L22.6767 24.7889H22.6733Z" fill="white"/>
<path d="M27.1293 26.7295V24.6706L25.4524 21.976H26.3855L27.6297 24.0384H27.65L28.8806 21.976H29.6447L27.9678 24.6638V26.7295H27.1293Z" fill="white"/>
</g>
<defs>
<clipPath id="clip0_24_149">
<rect width="23" height="24.9169" fill="white" transform="translate(12 4)"/>
</clipPath>
</defs>
</svg>
