<svg width="23" height="18" viewBox="0 0 23 18" fill="none" xmlns="http://www.w3.org/2000/svg">
<g clip-path="url(#clip0_109_38)">
<path d="M6.2 17C6.04283 17.0005 5.88721 16.9688 5.74274 16.9069C5.59828 16.845 5.46802 16.7542 5.36001 16.64C5.24583 16.532 5.15498 16.4017 5.09306 16.2573C5.03115 16.1128 4.99948 15.9572 5.00001 15.8V6.20001C4.99954 6.04285 5.03123 5.88726 5.09315 5.7428C5.15506 5.59834 5.24587 5.46804 5.36001 5.35999C5.60999 5.17943 5.89686 5.0565 6.2 5H19.8C20.1032 5.0565 20.39 5.17943 20.64 5.35999C20.7541 5.46804 20.845 5.59834 20.9069 5.7428C20.9688 5.88726 21.0005 6.04285 21 6.20001V15.8C21.0005 15.9572 20.9689 16.1128 20.907 16.2573C20.845 16.4017 20.7542 16.532 20.64 16.64C20.532 16.7542 20.4017 16.845 20.2573 16.9069C20.1128 16.9688 19.9572 17.0005 19.8 17H6.2ZM6.2 15.8H19.8V6.20001H6.2V15.8ZM8.04001 13.66H12.82V13.38C12.8239 13.1537 12.7613 12.9311 12.64 12.74C12.5343 12.5647 12.3721 12.4307 12.18 12.36C11.8533 12.2417 11.5193 12.1449 11.18 12.07C10.9495 12.0242 10.7151 12.0008 10.48 12C10.2076 12.0021 9.93619 12.0323 9.67 12.09C9.34181 12.1616 9.01796 12.2517 8.7 12.36C8.50051 12.4267 8.33069 12.5611 8.22001 12.74C8.09869 12.9311 8.0361 13.1537 8.04001 13.38V13.66ZM14.76 12.32H18.16V11.32H14.76V12.32ZM10.48 11.32C10.6223 11.3225 10.7635 11.2959 10.8951 11.2417C11.0267 11.1875 11.1458 11.107 11.245 11.005C11.347 10.9058 11.4276 10.7867 11.4818 10.6552C11.5359 10.5236 11.5626 10.3823 11.56 10.24C11.5625 10.0977 11.5359 9.95646 11.4817 9.82489C11.4275 9.69332 11.347 9.57423 11.245 9.47498C11.1458 9.37302 11.0267 9.29252 10.8951 9.23834C10.7635 9.18417 10.6223 9.15747 10.48 9.15997C10.3377 9.15747 10.1965 9.18417 10.0649 9.23834C9.93333 9.29252 9.81425 9.37302 9.715 9.47498C9.61305 9.57423 9.53251 9.69332 9.47833 9.82489C9.42416 9.95646 9.3975 10.0977 9.40001 10.24C9.39744 10.3823 9.42407 10.5236 9.47825 10.6552C9.53243 10.7867 9.613 10.9058 9.715 11.005C9.81425 11.107 9.93333 11.1875 10.0649 11.2417C10.1965 11.2959 10.3377 11.3225 10.48 11.32ZM14.76 10.06H18.16V9.06H14.76V10.06Z" fill="#141414"/>
</g>
<defs>
<clipPath id="clip0_109_38">
<rect width="16" height="12" fill="white" transform="translate(5 5)"/>
</clipPath>
</defs>
</svg>
