<svg id="Group_213" data-name="Group 213" xmlns="http://www.w3.org/2000/svg" width="21.4" height="16.66" viewBox="0 0 21.4 16.66">
  <path id="Path_11" data-name="Path 11" d="M17,10.31v4.35a2,2,0,0,1-2,2H2a1.993,1.993,0,0,1-2-2v-8a2,2,0,0,1,2-2h8.36V6.7h4.72v3.61H17Z" fill="none"/>
  <g id="Group_215" data-name="Group 215">
    <path id="person_add_FILL0_wght400_GRAD0_opsz48" data-name="person add FILL0 wght400 GRAD0 opsz48" d="M16.5,8.24V4.89H13.15V3.34H16.5V0h1.55V3.35H21.4V4.9H18.05V8.25H16.5Z"/>
    <path id="Path_12" data-name="Path 12" d="M16,10.31v4.35a1,1,0,0,1-1,1H2a1,1,0,0,1-1-1v-8a1,1,0,0,1,1-1h8.97v-1H2a2,2,0,0,0-2,2v8a1.993,1.993,0,0,0,2,2H15a2,2,0,0,0,2-2V10.31H16Z" fill="#141414"/>
  </g>
  <path id="contactless_FILL0_wght600_GRAD0_opsz48" data-name="contactless FILL0 wght600 GRAD0 opsz48" d="M6.49,12.16a6.492,6.492,0,0,0,.26-.74,2.856,2.856,0,0,0,.1-.77,2.929,2.929,0,0,0-.1-.78,2.716,2.716,0,0,0-.29-.73l-.89.32a2.062,2.062,0,0,1,.25.57,2.564,2.564,0,0,1,.07.62,2.163,2.163,0,0,1-.09.62,4.238,4.238,0,0,1-.23.59l.91.3Zm2.16.91a5.476,5.476,0,0,0,.37-1.19,7.3,7.3,0,0,0,.11-1.23,7.1,7.1,0,0,0-.11-1.22,4.9,4.9,0,0,0-.37-1.18l-.91.32a3.69,3.69,0,0,1,.33,1.02,5.774,5.774,0,0,1,0,2.14,4.754,4.754,0,0,1-.33,1.03l.9.32Zm2.08.89a7.626,7.626,0,0,0,.51-1.62,9.005,9.005,0,0,0,0-3.38,7.724,7.724,0,0,0-.51-1.61l-.89.35a6.046,6.046,0,0,1,.46,1.44,7.547,7.547,0,0,1,.14,1.5,8.484,8.484,0,0,1-.14,1.51,6.618,6.618,0,0,1-.46,1.45l.89.35Z" fill="#141414"/>
</svg>
