<svg width="23" height="19" viewBox="0 0 23 19" fill="none" xmlns="http://www.w3.org/2000/svg">
<path d="M1.57535 19C1.36902 19.0006 1.16475 18.9588 0.97511 18.8771C0.785466 18.7954 0.614458 18.6756 0.472609 18.525C0.322777 18.3824 0.203556 18.2105 0.12228 18.0199C0.0410038 17.8293 -0.000607752 17.624 6.70705e-06 17.4167V12.8779H1.57535V17.4167H6.09122V19H1.57535ZM16.9088 19V17.4167H21.4247V12.8779H23V17.4167C23.0006 17.624 22.959 17.8293 22.8777 18.0199C22.7964 18.2105 22.6772 18.3824 22.5274 18.525C22.3855 18.6756 22.2145 18.7954 22.0249 18.8771C21.8352 18.9588 21.631 19.0006 21.4247 19H16.9088ZM6.70705e-06 6.12212V1.58334C-0.000607752 1.37597 0.0410038 1.17067 0.12228 0.980061C0.203556 0.789455 0.322777 0.617575 0.472609 0.475006C0.614458 0.324414 0.785466 0.204581 0.97511 0.122893C1.16475 0.0412045 1.36902 -0.000610834 1.57535 6.74222e-06H6.09122V1.58334H1.57535V6.12212H6.70705e-06ZM21.4247 6.12212V1.58334H16.9088V6.74222e-06H21.4247C21.631 -0.000610834 21.8352 0.0412045 22.0249 0.122893C22.2145 0.204581 22.3855 0.324414 22.5274 0.475006C22.6772 0.617575 22.7964 0.789455 22.8777 0.980061C22.959 1.17067 23.0006 1.37597 23 1.58334V6.12212H21.4247Z" />
<path d="M5.125 15C4.97765 15.0005 4.83176 14.9714 4.69632 14.9147C4.56088 14.8579 4.43877 14.7747 4.33751 14.67C4.23046 14.571 4.14529 14.4516 4.08725 14.3192C4.0292 14.1867 3.99951 14.0441 4.00001 13.9V5.10001C3.99957 4.95594 4.02928 4.81332 4.08732 4.6809C4.14537 4.54848 4.23051 4.42903 4.33751 4.32999C4.57186 4.16448 4.8408 4.05179 5.125 4H17.875C18.1592 4.05179 18.4281 4.16448 18.6625 4.32999C18.7695 4.42903 18.8546 4.54848 18.9127 4.6809C18.9707 4.81332 19.0004 4.95594 19 5.10001V13.9C19.0005 14.0441 18.9708 14.1867 18.9128 14.3192C18.8547 14.4516 18.7695 14.571 18.6625 14.67C18.5612 14.7747 18.4391 14.8579 18.3037 14.9147C18.1683 14.9714 18.0224 15.0005 17.875 15H5.125ZM5.125 13.9H17.875V5.10001H5.125V13.9ZM6.85001 11.9383H11.3313V11.6817C11.3349 11.4742 11.2762 11.2702 11.1625 11.095C11.0634 10.9343 10.9113 10.8114 10.7313 10.7467C10.425 10.6382 10.1118 10.5495 9.79376 10.4808C9.57762 10.4389 9.35786 10.4174 9.13751 10.4167C8.88216 10.4186 8.62768 10.4462 8.37813 10.4992C8.07045 10.5648 7.76683 10.6474 7.46875 10.7467C7.28173 10.8078 7.12252 10.931 7.01876 11.095C6.90502 11.2702 6.84635 11.4742 6.85001 11.6817V11.9383ZM13.15 10.71H16.3375V9.79334H13.15V10.71ZM9.13751 9.79334C9.27088 9.79564 9.40332 9.77122 9.52667 9.72156C9.65001 9.6719 9.76165 9.59805 9.8547 9.50459C9.95032 9.41364 10.0259 9.3045 10.0767 9.18389C10.1274 9.06328 10.1524 8.93374 10.15 8.80332C10.1524 8.67292 10.1274 8.54342 10.0766 8.42282C10.0258 8.30221 9.95028 8.19304 9.8547 8.10206C9.76165 8.0086 9.65001 7.93481 9.52667 7.88515C9.40332 7.83549 9.27088 7.81101 9.13751 7.81331C9.00414 7.81101 8.87169 7.83549 8.74835 7.88515C8.625 7.93481 8.51336 8.0086 8.42032 8.10206C8.32473 8.19304 8.24923 8.30221 8.19844 8.42282C8.14765 8.54342 8.12266 8.67292 8.12501 8.80332C8.1226 8.93374 8.14756 9.06328 8.19836 9.18389C8.24915 9.3045 8.32469 9.41364 8.42032 9.50459C8.51336 9.59805 8.625 9.6719 8.74835 9.72156C8.87169 9.77122 9.00414 9.79564 9.13751 9.79334ZM13.15 8.63833H16.3375V7.72166H13.15V8.63833Z" />
</svg>
