<svg width="17" height="17" viewBox="0 0 17 17" fill="none" xmlns="http://www.w3.org/2000/svg">
<path d="M9.1115 14V12.7776H10.3339V14H9.1115ZM7.88906 12.7776V9.72239H9.1115V12.7776H7.88906ZM12.7781 10.9441V8.50001H14.0006V10.9448L12.7781 10.9441ZM11.5557 8.50001V7.27762H12.7781V8.50001H11.5557ZM4.22175 9.72239V8.50001H5.44419V9.72239H4.22175ZM3 8.50001V7.27762H4.22244L4.22175 8.50001H3ZM8.50028 4.22239V3H9.72272V4.22239H8.50028ZM3.76385 5.90262H5.90277V3.76383H3.76385V5.90262ZM3 6.66645V3H6.66662V6.66645H3ZM3.76385 13.2362H5.90277V11.0974H3.76385V13.2362ZM3 14V10.3336H6.66662V14H3ZM11.5557 14V12.1665H10.3332V10.9441H12.7781V12.7776H14.0006V14H11.5557ZM9.11081 9.72239V8.50001H11.5557V9.72239H9.11081ZM6.66594 9.72239V8.50001H5.44419L5.4435 7.27762H9.11012V8.50001H7.88769V9.72239H6.66594ZM7.27715 6.66712V4.22239H8.50028V5.44477H9.72272V6.66712H7.27715ZM4.37438 5.29212V4.375H5.29087V5.29145L4.37438 5.29212ZM4.37507 12.625V11.7086H5.29155V12.625H4.37507Z" fill="#3A3A3D"/>
<path d="M13.4382 6V3.56258H11V2.43742H13.4374V0H14.5626V2.43742H17V3.56258H14.5633V6H13.4382Z" fill="#3A3A3D"/>
</svg>
